<svg width="24" height="24" viewBox="0 0 24 24" fill="none" xmlns="http://www.w3.org/2000/svg">
<path d="M20.494 18.5793L19.8835 15.0823C19.8747 15.029 19.8354 14.9858 19.7838 14.9706C19.7321 14.9566 19.6757 14.9714 19.6393 15.011L17.2424 17.6309C17.2096 17.6669 17.1975 17.7178 17.2108 17.765C17.2236 17.8122 17.2604 17.8491 17.3072 17.8631L18.2004 18.1237C17.4133 19.0513 16.3284 19.6458 14.898 19.9245C14.3431 20.033 14.0216 20.0326 13.8046 19.8572C15.1033 19.5806 16.4293 18.5969 16.1258 17.1745C15.8172 15.7276 14.2698 14.8513 12.8798 14.2568C12.8458 13.2267 12.8194 12.197 12.8005 11.1777H14.5825V11.5112C14.5825 11.773 14.7951 11.986 15.0573 11.986C15.3195 11.986 15.5321 11.773 15.5321 11.5112V11.1777H15.9957C16.4593 11.1777 16.8368 10.8002 16.8368 10.3366C16.8368 9.87296 16.4597 9.49543 15.9957 9.49543H15.5317V9.16194C15.5317 8.90051 15.3191 8.68753 15.0569 8.68753C14.7947 8.68753 14.5821 8.90051 14.5821 9.16194V9.49543H12.7689C12.7633 9.17715 12.7577 8.85888 12.7513 8.5406C12.7445 8.20031 12.7513 7.85961 12.7585 7.51892C12.7613 7.3816 12.7621 7.24388 12.7633 7.10616C14.3791 6.75465 15.5938 5.31461 15.5938 3.59472C15.5938 1.6126 13.9812 0 11.999 0C10.0169 0 8.40433 1.6126 8.40433 3.59472C8.40433 3.79729 8.42515 3.99426 8.45757 4.18803C5.52944 5.39668 3.62058 8.83406 6.11394 11.4611C7.41267 12.8291 9.39439 13.4048 11.1771 14.041C11.1339 14.9698 11.0694 15.8978 10.9673 16.819C10.8809 17.5973 10.7231 18.4196 10.4977 19.2627C10.3192 19.9321 10.109 20.0718 9.43202 19.9757C7.86626 19.7535 6.67803 19.1394 5.80888 18.1197L6.69084 17.8623C6.73768 17.8483 6.77452 17.8114 6.78733 17.7642C6.80054 17.717 6.78853 17.6661 6.7557 17.6301L4.35882 15.0102C4.32239 14.9706 4.26714 14.9558 4.2143 14.9698C4.16265 14.985 4.12342 15.0282 4.11461 15.0815L3.50408 18.5793C3.49567 18.6277 3.51249 18.677 3.54892 18.7094C3.57534 18.733 3.60897 18.7454 3.6434 18.7454C3.65661 18.7454 3.66983 18.7434 3.68344 18.7398L4.73635 18.4324C4.98296 19.0501 5.3729 19.6086 5.93098 20.1198C7.73895 21.7757 9.88681 22.9655 11.7584 23.9512C11.8241 23.9856 11.903 24 11.9834 24C12.1035 24 12.2264 23.9676 12.3149 23.9207C12.9383 23.5888 13.5996 23.2337 14.2366 22.8546C15.643 22.0183 17.1203 21.0943 18.3714 19.8116C18.7625 19.41 19.0512 18.9504 19.2577 18.4312L20.3146 18.7398C20.3279 18.7434 20.3411 18.7454 20.3547 18.7454C20.3891 18.7454 20.4231 18.7326 20.4492 18.7094C20.4856 18.6766 20.5028 18.6273 20.494 18.5793ZM15.5317 9.72283H15.9953V9.72243C16.334 9.72243 16.6094 9.99786 16.6094 10.3366C16.6094 10.6753 16.334 10.9507 15.9953 10.9507H15.5317V9.72283ZM14.7414 9.16194C14.7414 8.98779 14.8831 8.84607 15.0573 8.84607C15.2314 8.84607 15.3732 8.98779 15.3732 9.16194V11.5112C15.3732 11.6853 15.2314 11.8271 15.0573 11.8271C14.8831 11.8271 14.7414 11.6853 14.7414 11.5112V9.16194ZM15.2403 16.373C16.3684 17.825 15.209 19.1738 13.6012 19.4769C13.5852 19.4801 13.5744 19.4877 13.5612 19.4929C13.5035 19.348 13.4527 19.1738 13.4043 18.952C13.2145 18.0817 12.9899 16.9351 12.9351 15.7837C12.9182 15.4302 12.9098 15.0739 12.8966 14.7188C13.793 15.1195 14.6569 15.6223 15.2403 16.373ZM14.5825 9.72283V10.9507H9.416V9.72283H14.5825ZM12.4767 14.0898C12.3257 14.029 12.1772 13.9705 12.0359 13.9157C11.8901 13.8592 11.7404 13.804 11.5883 13.7487C11.6235 12.8904 11.6403 12.0324 11.6471 11.1777H12.4038C12.421 12.1417 12.4458 13.115 12.4767 14.0898ZM12.3546 8.54861C12.3614 8.86408 12.3666 9.17956 12.3722 9.49543H11.6543C11.6531 9.08547 11.6515 8.67672 11.6495 8.27037L11.6459 7.17182C11.7624 7.18343 11.8801 7.18983 11.9994 7.18983C12.1232 7.18983 12.2453 7.18343 12.3658 7.17142C12.3646 7.28471 12.3642 7.39801 12.3618 7.51131C12.3546 7.85721 12.3481 8.20311 12.3546 8.54861ZM11.9994 0.283446C13.8254 0.283446 15.3107 1.76873 15.3107 3.59472C15.3107 5.4207 13.8254 6.90599 11.9994 6.90599C10.4869 6.90599 9.21103 5.8855 8.81669 4.4979C9.0597 4.40942 9.30631 4.33175 9.55613 4.27651C9.57334 4.2725 9.58495 4.2641 9.59936 4.25769C9.89082 5.311 10.8549 6.08728 11.9994 6.08728C13.3738 6.08728 14.492 4.96911 14.492 3.59472C14.492 2.22032 13.3738 1.10216 11.9994 1.10216C10.6251 1.10216 9.50688 2.22032 9.50688 3.59472C9.50688 3.6892 9.51329 3.78208 9.5237 3.87416C9.49808 3.87055 9.47085 3.86975 9.44123 3.87656C9.19902 3.93021 8.96121 4.00107 8.72861 4.08434C8.70459 3.9242 8.68817 3.76166 8.68817 3.59472C8.68817 1.76873 10.1735 0.283446 11.9994 0.283446ZM9.79073 3.59472C9.79073 2.37686 10.7816 1.386 11.9994 1.386C13.2173 1.386 14.2082 2.37686 14.2082 3.59472C14.2082 4.81257 13.2173 5.80343 11.9994 5.80343C10.7816 5.80343 9.79073 4.81257 9.79073 3.59472ZM5.65515 9.97304C4.71553 7.64262 6.39218 5.49997 8.55005 4.59879C8.91717 5.85788 9.95447 6.83352 11.2492 7.10976L11.2524 8.27237C11.2544 8.67792 11.256 9.08628 11.2572 9.49543H9.41641V9.16194C9.41641 8.90051 9.20382 8.68753 8.94159 8.68753C8.68017 8.68753 8.46718 8.90051 8.46718 9.16194V9.49543H8.00358C7.53998 9.49543 7.16245 9.87296 7.16245 10.3366C7.16245 10.8002 7.53958 11.1777 8.00358 11.1777H8.46718V11.5112C8.46718 11.773 8.67977 11.986 8.94159 11.986C9.20342 11.986 9.41641 11.773 9.41641 11.5112V11.1777H11.25C11.2436 11.9864 11.2268 12.7983 11.1955 13.6098C9.0621 12.8643 6.51509 12.1061 5.65515 9.97304ZM9.25707 9.16194V11.5112C9.25707 11.6853 9.11534 11.8271 8.94119 11.8271C8.76704 11.8271 8.62572 11.6853 8.62572 11.5112V9.16194C8.62572 8.98779 8.76744 8.84607 8.94119 8.84607C9.11494 8.84607 9.25707 8.98779 9.25707 9.16194ZM8.46718 9.72243V10.9507H8.00358C7.66489 10.9507 7.38945 10.6753 7.38945 10.3366C7.38945 9.99786 7.66489 9.72243 8.00358 9.72243H8.46718ZM3.82276 18.4048L4.34481 15.4154L6.39298 17.6541L3.82276 18.4048ZM18.0867 19.5357C17.5222 20.1146 16.9057 20.6183 16.2699 21.0763L15.9152 20.3028C15.9024 20.2744 15.8672 20.2612 15.84 20.2748C15.8115 20.288 15.7987 20.3216 15.8119 20.35L16.1763 21.1447C15.9493 21.3061 15.7199 21.4614 15.4897 21.6123L15.0677 20.6915C15.0549 20.6631 15.0201 20.6499 14.9924 20.6635C14.964 20.6767 14.9512 20.7103 14.9644 20.7388L15.3932 21.6744C15.1201 21.8513 14.8467 22.0235 14.5737 22.1892L14.0921 21.1383C14.0792 21.1099 14.0448 21.0971 14.0168 21.1103C13.9884 21.1235 13.9756 21.1571 13.9888 21.1856L14.476 22.2485C14.3279 22.3382 14.1801 22.427 14.0332 22.5143C13.8811 22.6048 13.7249 22.6901 13.5708 22.7781L13.0403 21.6207C13.0275 21.5923 12.9927 21.5795 12.9651 21.5927C12.9367 21.6059 12.9238 21.6396 12.9371 21.668L13.4719 22.8346C13.0199 23.09 12.5659 23.3382 12.1284 23.5708C12.1203 23.5752 12.1107 23.5776 12.1019 23.5812V20.9518C12.1019 20.8953 12.0563 20.8497 11.9998 20.8497C11.9434 20.8497 11.8978 20.8953 11.8978 20.9518V23.5756C11.4562 23.343 10.9998 23.0988 10.5362 22.8398L11.0618 21.6928C11.0746 21.6644 11.0622 21.6307 11.0338 21.6175C11.0062 21.6039 10.9718 21.6175 10.9585 21.6456L10.4369 22.7837C10.1366 22.6148 9.83397 22.4374 9.5309 22.2553L10.0097 21.2108C10.0225 21.1824 10.0101 21.1487 9.98169 21.1355C9.95407 21.1227 9.91964 21.1351 9.90643 21.1635L9.43322 22.1956C9.15978 22.0295 8.88715 21.8573 8.61491 21.6788L9.03407 20.764C9.04689 20.7356 9.03447 20.7019 9.00605 20.6887C8.97843 20.6755 8.944 20.6887 8.93078 20.7168L8.51843 21.6163C8.28823 21.4638 8.06043 21.3057 7.83423 21.1431L8.18614 20.3757C8.19895 20.3472 8.18654 20.3136 8.15811 20.3004C8.13049 20.2872 8.09566 20.3 8.08285 20.3284L7.73975 21.0763C7.20849 20.6903 6.69004 20.278 6.19882 19.8284C5.69718 19.3692 5.34488 18.8704 5.11908 18.3219L5.39732 18.2406C6.33814 19.418 7.64007 20.1234 9.37637 20.3697C10.2567 20.4942 10.6503 20.2315 10.8817 19.3656C11.1119 18.5032 11.2736 17.6613 11.3621 16.8634C11.4606 15.9734 11.5234 15.0787 11.5667 14.1835C11.6271 14.2059 11.688 14.2279 11.7472 14.2508C11.9918 14.344 12.2421 14.4425 12.4923 14.5458C12.5071 14.9654 12.5179 15.3857 12.5379 15.8033C12.594 16.9843 12.8226 18.1521 13.0155 19.0377C13.2814 20.2568 13.7394 20.555 14.9732 20.3144C16.5654 20.0041 17.7568 19.3195 18.6096 18.2434L18.875 18.3207C18.6884 18.7775 18.4314 19.1818 18.0867 19.5357ZM17.6055 17.6541L19.6541 15.4154L20.1757 18.4048L17.6055 17.6541Z" fill="black"/>
</svg>
