<svg width="192" height="188" viewBox="0 0 192 188" fill="none" xmlns="http://www.w3.org/2000/svg">
<path d="M88.4882 175.45C84.8076 174.598 81.3154 173.144 78.1093 171.128C77.3336 170.64 76.3102 170.873 75.8229 171.649C75.3351 172.424 75.5688 173.448 76.3437 173.935C79.8644 176.149 83.6995 177.746 87.741 178.681C87.8666 178.71 87.9926 178.724 88.1163 178.724C88.8709 178.724 89.553 178.205 89.7305 177.439C89.9365 176.547 89.3805 175.657 88.4882 175.45Z" fill="#06324F"/>
<path d="M119.632 166.95C113.283 172.995 104.957 176.324 96.1861 176.324C95.27 176.324 94.5278 177.067 94.5278 177.982C94.5278 178.898 95.27 179.641 96.1861 179.641C105.812 179.641 114.95 175.987 121.919 169.352C122.582 168.72 122.608 167.67 121.976 167.007C121.344 166.344 120.295 166.318 119.632 166.95Z" fill="#06324F"/>
<path d="M95.8538 103.614C78.9702 103.614 65.2339 117.349 65.2339 134.233C65.2339 151.116 78.9699 164.853 95.8538 164.853C112.737 164.853 126.473 151.117 126.473 134.233C126.473 117.349 112.737 103.614 95.8538 103.614ZM95.8538 161.536C80.7986 161.536 68.5504 149.288 68.5504 134.232C68.5504 119.178 80.7986 106.93 95.8538 106.93C110.909 106.93 123.156 119.178 123.156 134.232C123.156 149.288 110.909 161.536 95.8538 161.536Z" fill="#06324F"/>
<path d="M95.8537 109.489C82.2103 109.489 71.1104 120.589 71.1104 134.232C71.1104 147.876 82.2103 158.976 95.8537 158.976C109.497 158.976 120.596 147.876 120.596 134.232C120.596 120.589 109.497 109.489 95.8537 109.489ZM95.8537 155.66C84.039 155.66 74.4269 146.048 74.4269 134.233C74.4269 122.418 84.039 112.806 95.8537 112.806C107.668 112.806 117.28 122.418 117.28 134.233C117.28 146.048 107.668 155.66 95.8537 155.66Z" fill="#06324F"/>
<path d="M101.67 129.136C103.323 127.843 104.367 125.995 104.367 123.938C104.367 120.04 100.642 116.87 96.0631 116.87C91.4844 116.87 87.7589 120.041 87.7589 123.938C87.7589 125.994 88.803 127.843 90.4558 129.135C87.7761 130.662 86.0105 133.25 86.0105 136.179C86.0105 140.862 90.5202 144.671 96.0635 144.671C101.606 144.671 106.116 140.862 106.116 136.179C106.116 133.25 104.35 130.662 101.67 129.136ZM91.0754 123.938C91.0754 121.869 93.3128 120.187 96.0631 120.187C98.8131 120.187 101.05 121.87 101.05 123.938C101.05 126.006 98.8131 127.688 96.0631 127.688C93.3131 127.688 91.0754 126.006 91.0754 123.938ZM96.0631 141.354C92.3486 141.354 89.3267 139.033 89.3267 136.179C89.3267 133.326 92.3486 131.005 96.0631 131.005C99.7777 131.005 102.799 133.326 102.799 136.179C102.799 139.033 99.7777 141.354 96.0631 141.354Z" fill="#06324F"/>
<path d="M43.7067 102.545C44.0068 102.545 44.3104 102.464 44.5831 102.294C47.4065 100.531 50.4889 99.2616 53.7442 98.5191C54.6373 98.3154 55.196 97.4266 54.9924 96.5338C54.7891 95.6411 53.8987 95.0816 53.0071 95.2856C49.3897 96.1101 45.9647 97.5214 42.8269 99.4801C42.05 99.9651 41.8128 100.988 42.2978 101.765C42.6131 102.269 43.1535 102.545 43.7067 102.545Z" fill="#06324F"/>
<path d="M28.7741 128.615C28.7881 128.616 28.8018 128.616 28.8154 128.616C29.7124 128.616 30.4503 127.9 30.4725 126.998C30.6618 119.274 33.7758 112.011 39.2407 106.545C39.8884 105.897 39.8884 104.848 39.2407 104.2C38.593 103.553 37.5426 103.552 36.8957 104.2C30.8256 110.27 27.3671 118.338 27.1567 126.917C27.1345 127.832 27.8591 128.593 28.7741 128.615Z" fill="#06324F"/>
<path d="M160.235 119.399C161.375 122.617 161.965 125.987 161.987 129.414C161.993 130.326 162.734 131.061 163.645 131.061C163.649 131.061 163.653 131.061 163.656 131.061C164.572 131.055 165.309 130.308 165.303 129.392C165.278 125.594 164.625 121.859 163.361 118.291C163.056 117.428 162.108 116.976 161.244 117.282C160.381 117.588 159.929 118.536 160.235 119.399Z" fill="#06324F"/>
<path d="M137.396 97.7817C137.177 98.6709 137.72 99.5695 138.609 99.7888C146.305 101.689 152.893 106.418 157.158 113.104C157.474 113.6 158.011 113.871 158.558 113.871C158.863 113.871 159.172 113.787 159.448 113.611C160.22 113.119 160.447 112.093 159.954 111.321C155.229 103.913 147.93 98.674 139.404 96.5694C138.514 96.3493 137.616 96.8924 137.396 97.7817Z" fill="#06324F"/>
<path d="M191.774 162.287L172.219 128.833C172.252 128.189 172.269 127.54 172.269 126.888C172.269 112.029 163.687 99.1387 151.221 92.9071L97.432 0.884627C97.1347 0.375829 96.59 0.0632935 96.0005 0.0632935C95.4113 0.0632935 94.8662 0.375829 94.5689 0.884627L40.7807 92.9071C28.314 99.1383 19.732 112.029 19.732 126.888C19.732 127.54 19.7487 128.189 19.7815 128.833L0.22754 162.287C-0.0725104 162.8 -0.0748516 163.434 0.220516 163.949C0.516274 164.465 1.06487 164.783 1.65873 164.783H55.4321C55.7848 164.804 56.1383 164.82 56.4937 164.832C64.2217 178.607 78.9678 187.937 95.8545 187.937C112.738 187.937 127.48 178.611 135.209 164.841C135.668 164.831 136.125 164.81 136.58 164.783H173.582H173.585H173.588H190.343C190.936 164.783 191.485 164.465 191.781 163.95C192.077 163.434 192.074 162.8 191.774 162.287ZM168.952 126.888C168.952 127.787 168.908 128.675 168.841 129.557C168.815 129.893 168.788 130.229 168.753 130.562C168.729 130.788 168.699 131.011 168.671 131.235C168.632 131.545 168.593 131.855 168.546 132.163C168.508 132.414 168.462 132.663 168.419 132.913C168.37 133.189 168.323 133.465 168.268 133.738C168.21 134.027 168.144 134.312 168.079 134.598C168.027 134.828 167.977 135.06 167.92 135.288C167.835 135.628 167.741 135.964 167.646 136.3C167.598 136.47 167.554 136.641 167.503 136.81C167.38 137.224 167.246 137.634 167.106 138.041C167.077 138.128 167.05 138.217 167.019 138.305C164.354 145.921 159.1 152.331 152.318 156.476C152.292 156.491 152.266 156.506 152.241 156.522C151.824 156.775 151.402 157.019 150.974 157.255C150.917 157.286 150.86 157.316 150.803 157.347C150.406 157.563 150.004 157.771 149.598 157.972C149.509 158.016 149.42 158.059 149.331 158.101C148.955 158.283 148.575 158.458 148.191 158.627C148.07 158.68 147.95 158.732 147.828 158.783C147.473 158.934 147.115 159.08 146.753 159.219C146.602 159.277 146.45 159.334 146.298 159.391C145.964 159.514 145.628 159.632 145.289 159.746C145.107 159.807 144.923 159.867 144.74 159.925C144.428 160.023 144.115 160.117 143.799 160.207C143.586 160.268 143.372 160.327 143.158 160.384C142.868 160.46 142.576 160.532 142.284 160.601C142.041 160.659 141.798 160.715 141.554 160.767C141.285 160.825 141.015 160.877 140.745 160.928C140.473 160.979 140.202 161.029 139.929 161.074C139.681 161.114 139.432 161.15 139.183 161.185C138.885 161.227 138.587 161.268 138.286 161.302C138.057 161.329 137.827 161.35 137.597 161.372C137.382 161.392 137.167 161.41 136.952 161.426C137.387 160.461 137.786 159.48 138.152 158.486C138.178 158.417 138.205 158.348 138.23 158.277C138.297 158.092 138.362 157.906 138.427 157.72C138.501 157.508 138.576 157.295 138.647 157.081C138.677 156.99 138.707 156.898 138.736 156.806C138.839 156.493 138.938 156.179 139.033 155.863C139.038 155.845 139.043 155.827 139.049 155.809C140.168 152.089 140.821 148.169 140.934 144.115C140.935 144.088 140.937 144.061 140.937 144.033C140.947 143.636 140.953 143.237 140.953 142.838C140.953 142.297 140.94 141.759 140.921 141.223C140.916 141.083 140.912 140.943 140.905 140.803C140.883 140.306 140.855 139.81 140.816 139.317C140.802 139.131 140.783 138.947 140.767 138.761C140.739 138.453 140.709 138.147 140.675 137.841C140.566 136.841 140.422 135.849 140.247 134.865L140.247 134.863C139.023 127.962 136.211 121.466 131.926 115.765C129.78 112.911 127.291 110.33 124.544 108.066C124.535 108.058 124.526 108.05 124.517 108.043C124.271 107.841 124.024 107.642 123.775 107.445C123.651 107.347 123.525 107.25 123.399 107.153C123.105 106.926 122.809 106.702 122.509 106.482C122.273 106.308 122.035 106.136 121.795 105.966C121.639 105.856 121.482 105.748 121.325 105.64C121.055 105.454 120.782 105.272 120.507 105.092C120.398 105.02 120.289 104.947 120.178 104.876C119.808 104.637 119.432 104.405 119.054 104.177C118.921 104.097 118.787 104.019 118.654 103.94C118.368 103.772 118.08 103.607 117.789 103.444C117.658 103.371 117.526 103.295 117.394 103.223C117.026 103.022 116.654 102.826 116.281 102.635C116.096 102.541 115.91 102.45 115.724 102.358C115.51 102.253 115.296 102.149 115.08 102.048C114.862 101.944 114.645 101.841 114.425 101.741C114.283 101.677 114.14 101.616 113.996 101.553C113.527 101.345 113.053 101.145 112.576 100.954C112.465 100.909 112.353 100.864 112.241 100.82C112.07 100.753 111.9 100.681 111.728 100.616C111.832 100.527 111.933 100.436 112.038 100.347C112.215 100.198 112.394 100.051 112.574 99.905C112.822 99.7048 113.072 99.509 113.324 99.3162C113.508 99.1761 113.691 99.0365 113.877 98.9007C114.135 98.7111 114.397 98.5273 114.66 98.3455C114.845 98.2179 115.028 98.0891 115.215 97.9654C115.492 97.7812 115.774 97.6045 116.057 97.4289C116.234 97.3189 116.409 97.2057 116.588 97.0988C116.91 96.9061 117.238 96.7231 117.566 96.5413C117.709 96.462 117.85 96.3782 117.995 96.3009C118.468 96.0473 118.947 95.8042 119.432 95.574C119.519 95.533 119.606 95.4971 119.693 95.4565C120.094 95.27 120.497 95.0882 120.904 94.9173C121.083 94.8424 121.264 94.7749 121.443 94.7031C121.763 94.5755 122.084 94.4483 122.408 94.3301C122.612 94.2556 122.819 94.1869 123.025 94.1163C123.329 94.0121 123.633 93.9091 123.94 93.8131C124.157 93.7456 124.376 93.6824 124.595 93.6188C124.895 93.5314 125.197 93.4467 125.5 93.3679C125.724 93.3094 125.949 93.254 126.174 93.1997C126.478 93.1272 126.782 93.0593 127.087 92.9949C127.314 92.9469 127.542 92.9001 127.77 92.8568C128.08 92.7978 128.393 92.7448 128.706 92.6941C128.931 92.6578 129.155 92.6207 129.381 92.5887C129.708 92.5423 130.036 92.5044 130.365 92.4674C130.579 92.4436 130.792 92.4162 131.007 92.396C131.372 92.362 131.739 92.3382 132.106 92.3152C132.287 92.3039 132.467 92.2875 132.649 92.2793C133.198 92.2539 133.75 92.2387 134.304 92.2387C134.614 92.2387 134.923 92.2434 135.232 92.2512C135.399 92.2559 135.565 92.2637 135.73 92.2703C135.865 92.2758 135.999 92.2801 136.132 92.2867C136.362 92.2988 136.592 92.314 136.821 92.3304C136.882 92.3347 136.943 92.3386 137.004 92.3429C137.284 92.3647 137.562 92.3893 137.839 92.4174L137.842 92.4178C155.292 94.197 168.952 108.977 168.952 126.888ZM45.8511 90.804L96.0005 5.00729L146.149 90.804C144.478 90.2539 142.772 89.8309 141.04 89.5215C141.024 89.5188 141.009 89.5156 140.993 89.5133C140.143 89.3627 139.288 89.2398 138.425 89.1473C138.197 89.1223 137.968 89.1005 137.738 89.0798C137.567 89.0646 137.396 89.047 137.225 89.0341C136.822 89.0033 136.417 88.9811 136.011 88.9631C135.884 88.9577 135.758 88.953 135.632 88.9487C135.191 88.9335 134.749 88.9229 134.305 88.9229C133.708 88.9229 133.113 88.9378 132.52 88.9651C132.495 88.9663 132.47 88.9666 132.445 88.9678C132.239 88.9776 132.034 88.9916 131.829 89.0045C131.807 88.9565 131.79 88.9073 131.762 88.8609L97.2631 30.8026C96.9642 30.2993 96.4226 29.9914 95.8377 29.9914H95.8315C95.2439 29.9938 94.7019 30.3063 94.4058 30.8131L80.4396 54.7243C79.9776 55.5152 80.2445 56.5304 81.035 56.9924C81.8255 57.454 82.8416 57.1879 83.3035 56.397C88.2032 48.0083 90.9502 43.305 95.8498 34.9163L128.229 89.4064C127.877 89.463 127.526 89.5238 127.177 89.5898C127.111 89.6022 127.045 89.614 126.979 89.6268C126.456 89.7283 125.936 89.8422 125.42 89.9651C125.348 89.9823 125.275 89.9991 125.203 90.0166C124.693 90.1415 124.186 90.2777 123.683 90.4236C123.607 90.4458 123.531 90.4673 123.456 90.4895C122.956 90.6378 122.46 90.7966 121.968 90.9652C121.891 90.9913 121.814 91.0174 121.738 91.0444C121.248 91.2157 120.762 91.3975 120.28 91.5887C120.204 91.6187 120.129 91.6492 120.054 91.6792C119.573 91.8743 119.095 92.0787 118.621 92.2937C118.549 92.3265 118.477 92.3597 118.405 92.3928C117.931 92.6121 117.461 92.84 116.996 93.0792C116.929 93.1135 116.862 93.1486 116.795 93.1837C116.327 93.4276 115.863 93.6808 115.405 93.945C115.346 93.9789 115.287 94.014 115.228 94.0488C114.764 94.3192 114.305 94.5985 113.853 94.8892C113.803 94.9212 113.755 94.954 113.705 94.986C113.245 95.2845 112.79 95.5919 112.342 95.9111C112.305 95.9376 112.268 95.9657 112.23 95.9923C111.772 96.3212 111.32 96.6595 110.875 97.0099C110.852 97.0274 110.831 97.0458 110.809 97.0633C110.35 97.4262 109.898 97.7988 109.455 98.1843C109.45 98.1878 109.447 98.1913 109.443 98.1948C108.993 98.5858 108.551 98.9893 108.116 99.4036C108.11 99.4099 108.103 99.4153 108.096 99.4216C107.882 99.3611 107.666 99.3088 107.452 99.2518C107.287 99.2081 107.123 99.1641 106.958 99.1223C106.72 99.0618 106.48 99.0033 106.241 98.9471C106.011 98.8925 105.779 98.841 105.548 98.7903C105.352 98.7473 105.156 98.7021 104.959 98.6615C104.549 98.5772 104.137 98.4992 103.723 98.4262C103.564 98.3981 103.404 98.3728 103.245 98.3466C102.936 98.2955 102.627 98.2475 102.316 98.2026C102.159 98.18 102.003 98.1578 101.847 98.1367C101.449 98.0836 101.05 98.0353 100.649 97.9927C100.593 97.9869 100.537 97.9791 100.481 97.9736C100.025 97.9268 99.5659 97.8889 99.1067 97.8562C98.9736 97.8468 98.8402 97.839 98.7071 97.8308C98.3603 97.8089 98.0126 97.791 97.6634 97.7773C97.5272 97.7719 97.3911 97.766 97.2545 97.7617C96.7894 97.7473 96.3227 97.7379 95.8541 97.7379C95.3918 97.7379 94.9321 97.7469 94.4733 97.761C94.3391 97.7649 94.2052 97.7711 94.0714 97.7766C93.7304 97.7898 93.3901 97.807 93.0511 97.8277C92.9161 97.8359 92.7818 97.8437 92.6468 97.8534C92.218 97.8835 91.7912 97.9186 91.3659 97.9607C91.3366 97.9639 91.3074 97.9658 91.2781 97.9685C90.8223 98.015 90.369 98.0692 89.9171 98.1293C89.7872 98.1465 89.6577 98.1656 89.5277 98.1839C89.1988 98.2303 88.8714 98.2803 88.5452 98.3334C88.3982 98.3575 88.2511 98.381 88.1043 98.4067C87.7364 98.4707 87.37 98.539 87.0052 98.612C86.8667 98.6393 86.7282 98.6677 86.59 98.6966C86.2358 98.7707 85.8826 98.8492 85.5315 98.9319C85.3301 98.9791 85.13 99.0291 84.9294 99.079C84.7098 99.134 84.4913 99.1902 84.2731 99.2483C84.1292 99.2866 83.9844 99.3201 83.8408 99.3599C83.8319 99.3513 83.8225 99.3435 83.8139 99.3354C83.3859 98.9292 82.9504 98.5343 82.5076 98.1504C82.4986 98.1426 82.4892 98.134 82.4803 98.1262C82.0409 97.7461 81.5934 97.3786 81.1392 97.0208C81.1138 97.0005 81.0885 96.9798 81.0631 96.9595C80.621 96.613 80.1715 96.2783 79.7166 95.9529C79.6776 95.9248 79.639 95.8959 79.5995 95.8682C79.1528 95.5514 78.6994 95.2462 78.2417 94.9501C78.1918 94.9181 78.1426 94.8853 78.093 94.8533C77.6412 94.5646 77.1835 94.2868 76.7208 94.0179C76.6619 93.9836 76.6033 93.9489 76.5444 93.9149C76.0863 93.652 75.6228 93.3999 75.1542 93.1572C75.089 93.1233 75.0239 93.0889 74.9583 93.0554C74.4932 92.8174 74.0227 92.5895 73.5478 92.3714C73.4776 92.339 73.4077 92.3066 73.3371 92.2746C72.8634 92.0604 72.3855 91.8563 71.9032 91.662C71.8298 91.6324 71.7565 91.6031 71.6831 91.5738C71.2005 91.3827 70.7139 91.2016 70.2231 91.0307C70.1489 91.005 70.074 90.9792 69.9999 90.9538C69.5067 90.7853 69.0108 90.6273 68.511 90.4794C68.4372 90.4575 68.3635 90.4365 68.2901 90.415C67.786 90.2695 67.2792 90.1337 66.7688 90.0092C66.6982 89.9921 66.6279 89.9761 66.5573 89.9593C66.0407 89.8364 65.5214 89.7232 64.9985 89.6218C64.9342 89.6093 64.8698 89.598 64.8054 89.5859C64.2986 89.4903 63.7894 89.4029 63.2775 89.328L78.0064 65.2678C78.4848 64.487 78.239 63.4659 77.4578 62.9879C76.6771 62.5092 75.656 62.7554 75.1776 63.5361L59.9246 88.452C59.8228 88.6182 59.7603 88.7965 59.7221 88.9772C59.6651 88.9741 59.6078 88.9702 59.5508 88.9678C59.5262 88.9666 59.5017 88.9663 59.4771 88.9651C58.8859 88.9382 58.2929 88.9233 57.6975 88.9233C57.253 88.9233 56.8113 88.9339 56.3704 88.9491C56.2444 88.9534 56.1184 88.9581 55.992 88.9635C55.585 88.9815 55.1796 89.0037 54.7762 89.0345C54.6068 89.0474 54.439 89.0646 54.2701 89.0798C54.0368 89.1009 53.8038 89.1231 53.5717 89.1485C53.3383 89.1734 53.1054 89.1992 52.8729 89.2289C52.8537 89.2312 52.835 89.2343 52.8159 89.2366C52.2127 89.3135 51.613 89.4068 51.0164 89.5125C50.9953 89.516 50.9746 89.5199 50.9539 89.5234C49.2235 89.8328 47.5199 90.255 45.8511 90.804ZM54.1573 92.419L54.1628 92.4186C54.4394 92.3905 54.7172 92.3659 54.9958 92.3445C55.0571 92.3398 55.1183 92.3363 55.18 92.3316C55.409 92.3152 55.6389 92.3 55.8694 92.2879C56.0021 92.2809 56.1356 92.2766 56.2682 92.2715C56.4348 92.2645 56.6014 92.2567 56.7684 92.2524C57.0771 92.2446 57.3865 92.2399 57.6967 92.2399C58.2484 92.2399 58.7978 92.2547 59.3456 92.2797C59.5255 92.2879 59.7042 92.3043 59.8836 92.3152C60.2504 92.3378 60.6172 92.3616 60.9812 92.396C61.1931 92.4159 61.4034 92.4424 61.6145 92.4658C61.945 92.5029 62.2751 92.5411 62.6036 92.5871C62.8252 92.6184 63.0457 92.6547 63.2665 92.6902C63.5822 92.7409 63.8971 92.7943 64.2108 92.8532C64.4339 92.8954 64.6567 92.941 64.8788 92.9875C65.1882 93.0526 65.4964 93.1213 65.8035 93.1947C66.0232 93.2473 66.2424 93.3008 66.4609 93.3578C66.77 93.4377 67.0767 93.5236 67.3826 93.6122C67.5936 93.6734 67.8055 93.7339 68.015 93.7991C68.3311 93.897 68.6436 94.0027 68.9562 94.1096C69.152 94.1764 69.3483 94.2411 69.5426 94.3114C69.8824 94.4347 70.2188 94.5677 70.5543 94.7019C70.7167 94.7663 70.8805 94.8268 71.0417 94.8943C71.5087 95.089 71.9719 95.2946 72.4303 95.51C72.4565 95.5225 72.4842 95.5334 72.5103 95.5459C72.9965 95.7761 73.4768 96.0192 73.9524 96.2724C74.0941 96.3481 74.233 96.43 74.3738 96.5077C74.7031 96.6891 75.0317 96.8721 75.3559 97.0649C75.5307 97.1687 75.7024 97.2787 75.8753 97.386C76.1609 97.5624 76.4453 97.7403 76.7258 97.9252C76.9088 98.0458 77.0895 98.1714 77.2702 98.2955C77.5359 98.4781 77.8 98.6631 78.0611 98.8535C78.244 98.9869 78.4247 99.1231 78.6054 99.2604C78.859 99.4536 79.1106 99.6498 79.36 99.8504C79.5383 99.994 79.7158 100.139 79.8914 100.286C79.9909 100.369 80.0877 100.456 80.1864 100.54C80.0088 100.606 79.834 100.68 79.6573 100.748C79.4762 100.818 79.2952 100.888 79.1153 100.96C78.8859 101.052 78.6569 101.145 78.429 101.241C78.1356 101.364 77.8441 101.492 77.5542 101.621C77.3318 101.721 77.1106 101.822 76.8901 101.925C76.6041 102.058 76.3193 102.193 76.0364 102.332C75.885 102.407 75.7344 102.481 75.5838 102.557C75.1905 102.756 74.7995 102.959 74.4132 103.168C74.3746 103.19 74.3372 103.21 74.2989 103.231C73.906 103.446 73.5178 103.668 73.1323 103.893C73.0242 103.957 72.9157 104.021 72.8076 104.086C72.437 104.307 72.0686 104.533 71.7054 104.764C71.6648 104.79 71.623 104.815 71.5825 104.841C71.2005 105.086 70.8236 105.338 70.449 105.594C70.312 105.688 70.1767 105.782 70.0409 105.878C69.7904 106.053 69.5422 106.231 69.2956 106.412C69.0467 106.593 68.8001 106.778 68.5554 106.964C68.36 107.113 68.1645 107.262 67.9717 107.414C67.7345 107.601 67.4996 107.791 67.2659 107.983C67.2035 108.034 67.1418 108.086 67.0794 108.137C64.3977 110.358 61.9625 112.882 59.8556 115.669C54.9151 122.204 51.915 129.787 51.0343 137.835C51.0011 138.135 50.9711 138.436 50.9438 138.737C50.9266 138.928 50.9075 139.119 50.8927 139.31C50.8544 139.803 50.826 140.298 50.8041 140.795C50.7979 140.935 50.7928 141.076 50.7881 141.217C50.769 141.755 50.7557 142.294 50.7557 142.837C50.7557 143.237 50.7616 143.635 50.7717 144.032C50.7725 144.056 50.7737 144.08 50.7745 144.104C50.8864 148.149 51.5361 152.063 52.6508 155.776C52.6586 155.802 52.6661 155.828 52.6739 155.854C52.7671 156.163 52.8639 156.471 52.9638 156.777C52.9958 156.875 53.0274 156.974 53.0597 157.072C53.1296 157.281 53.2014 157.488 53.2743 157.696C53.3411 157.888 53.4078 158.08 53.4772 158.271C53.503 158.342 53.5303 158.413 53.5565 158.484C53.9201 159.469 54.3146 160.442 54.7461 161.399C54.6209 161.388 54.4944 161.379 54.3692 161.367C54.0719 161.338 53.7757 161.306 53.4811 161.27C53.2533 161.242 53.0258 161.213 52.7995 161.181C52.4585 161.132 52.119 161.078 51.7811 161.02C51.6075 160.99 51.4339 160.96 51.2614 160.927C50.863 160.852 50.4674 160.77 50.0741 160.681C49.9668 160.657 49.8595 160.633 49.7526 160.608C49.2859 160.498 48.8216 160.379 48.3623 160.25C48.3319 160.241 48.3011 160.233 48.2707 160.224C36.3498 156.838 27.012 147.199 24.0446 135.12C24.0329 135.072 24.0228 135.023 24.0111 134.975C23.9026 134.524 23.8027 134.07 23.7118 133.612C23.681 133.456 23.6545 133.297 23.6256 133.139C23.5604 132.786 23.4984 132.433 23.4445 132.076C23.4083 131.837 23.3786 131.595 23.3474 131.354C23.3107 131.073 23.2744 130.792 23.2448 130.509C23.2139 130.211 23.1898 129.912 23.1667 129.612C23.0957 128.712 23.0505 127.805 23.0505 126.888C23.0485 108.978 36.708 94.1974 54.1573 92.419ZM20.4507 134.26C21.2658 138.398 22.7551 142.295 24.7973 145.832L15.2808 161.377C15.2632 161.405 15.2535 161.436 15.2382 161.466H4.54881L20.4507 134.26ZM19.1155 161.466L26.7911 148.927C30.6559 154.335 35.9023 158.688 42.0153 161.466H19.1155ZM95.8541 184.621C78.2187 184.621 63.1003 173.638 56.978 158.153C56.9756 158.148 56.9737 158.143 56.9713 158.137C56.8718 157.885 56.7762 157.631 56.6818 157.376C56.6268 157.229 56.573 157.081 56.5199 156.933C56.4578 156.76 56.3962 156.586 56.3361 156.412C56.2245 156.086 56.1149 155.759 56.0111 155.43C56.0056 155.412 55.9998 155.395 55.9943 155.377C55.1109 152.562 54.5253 149.65 54.251 146.703C54.2479 146.669 54.2447 146.636 54.242 146.602C54.2096 146.245 54.1831 145.888 54.1597 145.53C54.1542 145.448 54.1491 145.367 54.1441 145.285C54.1253 144.964 54.1113 144.644 54.1 144.323C54.0965 144.229 54.0918 144.136 54.0894 144.042C54.0777 143.64 54.0707 143.239 54.0707 142.837C54.0707 142.308 54.0832 141.78 54.1039 141.254C54.1066 141.18 54.1089 141.107 54.1121 141.034C54.7336 126.88 62.6329 114.039 74.5315 106.917C74.5779 106.89 74.6247 106.862 74.6712 106.835C75.1 106.58 75.5338 106.333 75.9724 106.094C76.0778 106.037 76.1854 105.982 76.2912 105.926C76.5889 105.767 76.8893 105.612 77.1917 105.46C77.3739 105.369 77.5558 105.277 77.7392 105.188C78.0735 105.026 78.4114 104.87 78.7513 104.716C78.9873 104.61 79.2254 104.506 79.4641 104.404C79.6456 104.326 79.829 104.251 80.012 104.176C80.4014 104.016 80.7935 103.861 81.1888 103.712C81.3702 103.644 81.552 103.577 81.7342 103.511C82.0066 103.413 82.2797 103.316 82.5552 103.224C82.886 103.113 83.2181 103.005 83.5529 102.902C83.7803 102.832 84.0086 102.765 84.2376 102.698C84.439 102.64 84.6399 102.584 84.842 102.529C85.082 102.464 85.3223 102.399 85.5646 102.337C85.9029 102.251 86.2416 102.169 86.5818 102.092C86.7481 102.054 86.9151 102.019 87.0817 101.983C87.388 101.917 87.6943 101.855 88.0017 101.797C88.1281 101.772 88.2538 101.747 88.381 101.724C88.8055 101.647 89.2312 101.577 89.6577 101.513C89.7724 101.496 89.8879 101.481 90.003 101.465C90.3592 101.415 90.7158 101.369 91.0732 101.328C91.1821 101.316 91.2906 101.302 91.3998 101.291C91.8466 101.243 92.2937 101.202 92.742 101.168C92.8201 101.163 92.8989 101.159 92.9769 101.154C93.3585 101.127 93.7405 101.107 94.1237 101.091C94.245 101.086 94.3664 101.081 94.4881 101.078C94.9427 101.063 95.398 101.053 95.8538 101.053C96.3173 101.053 96.7793 101.063 97.2412 101.078C97.3638 101.082 97.4863 101.087 97.6084 101.092C98.0087 101.109 98.409 101.131 98.8082 101.159C98.8753 101.163 98.9424 101.166 99.0088 101.171C99.4567 101.205 99.9038 101.247 100.35 101.295C100.481 101.309 100.611 101.325 100.742 101.34C101.09 101.381 101.438 101.426 101.786 101.476C101.905 101.493 102.025 101.508 102.144 101.526C102.557 101.589 102.97 101.659 103.382 101.734C103.554 101.765 103.727 101.799 103.899 101.833C104.164 101.885 104.428 101.94 104.692 101.997C104.882 102.038 105.073 102.078 105.261 102.121C105.618 102.203 105.974 102.291 106.328 102.383C106.577 102.447 106.824 102.515 107.071 102.584C107.216 102.625 107.36 102.666 107.505 102.708C108.062 102.87 108.615 103.042 109.163 103.227C109.191 103.236 109.219 103.245 109.247 103.254C124.337 108.374 135.579 121.898 137.38 138.224C137.408 138.478 137.434 138.733 137.457 138.989C137.475 139.18 137.494 139.37 137.508 139.561C137.543 140.017 137.57 140.475 137.591 140.935C137.597 141.064 137.601 141.193 137.606 141.321C137.624 141.825 137.636 142.329 137.636 142.836C137.636 143.238 137.629 143.639 137.617 144.04C137.615 144.135 137.61 144.229 137.607 144.323C137.595 144.644 137.581 144.964 137.563 145.285C137.558 145.367 137.553 145.448 137.547 145.53C137.524 145.887 137.497 146.244 137.465 146.601C137.462 146.635 137.458 146.669 137.456 146.704C137.181 149.652 136.595 152.564 135.712 155.38C135.707 155.395 135.702 155.41 135.697 155.426C135.592 155.757 135.482 156.087 135.369 156.415C135.311 156.587 135.25 156.758 135.188 156.929C135.134 157.08 135.079 157.231 135.023 157.382C134.929 157.634 134.835 157.885 134.737 158.135C134.733 158.143 134.73 158.151 134.727 158.16C128.604 173.641 113.488 184.621 95.8541 184.621ZM163.986 150.548L170.632 161.466H149.986C155.475 158.97 160.267 155.206 163.986 150.548ZM174.515 161.466L166.094 147.631C167.792 145.035 169.179 142.218 170.207 139.233C170.236 139.146 170.267 139.06 170.296 138.973C170.365 138.769 170.432 138.563 170.497 138.357C170.539 138.222 170.581 138.088 170.622 137.952C170.678 137.77 170.733 137.588 170.786 137.405C170.838 137.224 170.888 137.042 170.937 136.86C170.977 136.714 171.018 136.568 171.056 136.422C171.143 136.089 171.225 135.755 171.302 135.419C171.315 135.364 171.326 135.309 171.338 135.254C171.406 134.953 171.471 134.651 171.532 134.348C171.537 134.318 171.544 134.289 171.55 134.259L187.453 161.466H174.515Z" fill="#06324F"/>
</svg>
