<svg width="16" height="16" viewBox="0 0 16 16" fill="none" xmlns="http://www.w3.org/2000/svg">
<g clip-path="url(#clip0_140_121)">
<path d="M15.974 10.7807C15.9987 10.7147 16.0073 10.6421 15.9847 10.5687L14.6667 6.28537V2.3334C14.6667 1.41475 13.9193 0.666748 13 0.666748H3C2.08066 0.666748 1.33334 1.41475 1.33334 2.3334V6.2854L0.0153437 10.5687C-0.0073125 10.6414 0.00134375 10.7141 0.026 10.7807C0.01 10.8514 0 10.9241 0 11.0001V13.6667V15.0001C0 15.1841 0.149344 15.3334 0.333344 15.3334H1.66669C1.85066 15.3334 2 15.1841 2 15.0001V14.0001H14V15.0001C14 15.1841 14.1493 15.3334 14.3333 15.3334H15.6667C15.8507 15.3334 16 15.1841 16 15.0001V13.6667V11.0001C16 10.9241 15.99 10.8514 15.974 10.7807ZM2 2.3334C2 1.78206 2.44866 1.3334 3 1.3334H13C13.5513 1.3334 14 1.78206 14 2.3334V6.00006H13.094L12.7833 4.7574C12.6713 4.3114 12.272 4.00006 11.8127 4.00006H9.66666C9.11531 4.00006 8.66666 4.44872 8.66666 5.00006V6.00006H7.33331V5.00072C7.33331 4.44937 6.88466 4.00072 6.33331 4.00072H4.18731C3.72797 4.00072 3.32866 4.31272 3.21666 4.75806L2.906 6.00006H2V2.3334ZM12.4093 6.53872C12.3453 6.62006 12.2493 6.66672 12.146 6.66672H9.66666C9.48331 6.66672 9.33331 6.51737 9.33331 6.33337V5.00006C9.33331 4.81606 9.48331 4.66672 9.66666 4.66672H11.8133C11.9667 4.66672 12.0993 4.77006 12.1367 4.91872L12.47 6.25206C12.4953 6.35272 12.4733 6.45672 12.4093 6.53872ZM6.66734 5.00006V6.33006C6.66734 6.3314 6.66669 6.33206 6.66669 6.3334C6.66669 6.33406 6.66669 6.33475 6.66669 6.33475C6.66603 6.51809 6.51669 6.66675 6.33403 6.66675H3.85469C3.75069 6.66675 3.65534 6.62009 3.59134 6.53875C3.52734 6.45675 3.50534 6.35209 3.53069 6.25209L3.86403 4.91875C3.90138 4.77075 4.03403 4.66675 4.18803 4.66675H6.33403C6.51734 4.66672 6.66734 4.81606 6.66734 5.00006ZM1.91266 6.66672H2.916C2.95134 6.76672 2.99734 6.86272 3.06466 6.94937C3.25666 7.19337 3.544 7.33337 3.854 7.33337H6.33334C6.76734 7.33337 7.134 7.05337 7.272 6.66672H8.728C8.866 7.05406 9.23266 7.33337 9.66666 7.33337H12.146C12.456 7.33337 12.7427 7.19337 12.9347 6.94937C13.002 6.86337 13.048 6.76672 13.0833 6.66672H14.0873L15.1167 10.0121C15.078 10.0074 15.04 10.0001 15 10.0001H1C0.96 10.0001 0.922 10.0074 0.884 10.0121L1.91266 6.66672ZM1.33334 14.6667H0.666656V14.0001H1.33331V14.6667H1.33334ZM15.3333 14.6667H14.6667V14.0001H15.3333V14.6667ZM15.3333 13.3334H0.666656V11.0001C0.666656 10.8161 0.816656 10.6667 1 10.6667H15C15.1833 10.6667 15.3333 10.8161 15.3333 11.0001V13.3334Z" fill="black"/>
</g>
<defs>
<clipPath id="clip0_140_121">
<rect width="16" height="16" fill="white"/>
</clipPath>
</defs>
</svg>
