<svg width="192" height="140" viewBox="0 0 192 140" fill="none" xmlns="http://www.w3.org/2000/svg">
<path d="M175.142 20.2817H121.272L115.484 1.60209L113.61 0.222168H48.4662L46.5917 1.6045L40.8043 20.2817H37.7983V12.1397L36.4256 10.767H12.7957L11.423 12.1397V21.1816C4.79113 23.4083 0 29.5721 0 36.8263V118.454C0 127.578 7.56546 134.999 16.8631 134.999H55.0956C55.472 134.999 55.8049 134.864 56.104 134.68C63.7491 137.952 72.1782 139.778 81.0392 139.778C90.0256 139.778 98.5681 137.896 106.298 134.536C106.635 134.811 107.05 134.999 107.521 134.999H175.142C184.437 134.999 192 127.578 192 118.454V36.8263C192 27.7048 184.437 20.2817 175.142 20.2817ZM49.9113 4.14723H112.165L117.117 20.1346H101.065C100.792 20.1346 100.534 20.1901 100.3 20.2914C94.2281 18.359 87.7579 17.3048 81.0392 17.3048C74.3277 17.3048 67.8672 18.3566 61.8023 20.2841L44.9537 20.1563L49.9113 4.14723ZM32.1821 13.5124H35.0505V20.2817H32.1821V13.5124ZM25.9845 13.5124H29.4344V20.2817H25.9845V13.5124ZM20.1271 20.2311V13.5124H23.2368V20.2817H20.1175C20.1175 20.2648 20.1271 20.248 20.1271 20.2311ZM14.1659 13.5124H14.1683H17.3793V20.2311C17.3793 20.248 17.389 20.2648 17.389 20.2817H16.8606C15.9415 20.2817 15.0465 20.3734 14.1659 20.5109V13.5124ZM16.8631 131.074C9.72943 131.074 3.92748 125.414 3.92748 118.454V105.654H18.7568C19.524 105.654 20.1416 105.034 20.1416 104.269C20.1416 103.504 19.5216 102.884 18.7568 102.884H3.92748V56.0705H18.7568C19.524 56.0705 20.1416 55.4505 20.1416 54.6857C20.1416 53.921 19.5216 53.301 18.7568 53.301H3.92748V36.8263C3.92748 29.8664 9.72943 24.2044 16.8631 24.2044H52.2562C32.2328 34.4235 18.5228 54.9366 18.5228 78.5377C18.5228 100.824 30.7395 120.36 48.9559 131.074H16.8631ZM81.0392 135.853C48.7316 135.853 22.4503 110.138 22.4503 78.5377C22.4503 46.9345 48.7316 21.2226 81.0392 21.2226C113.347 21.2226 139.628 46.9345 139.628 78.5377C139.628 110.138 113.347 135.853 81.0392 135.853ZM188.075 53.301H144.764C143.999 53.301 143.379 53.921 143.379 54.6857C143.379 55.4505 143.999 56.0705 144.764 56.0705H188.075V102.887H150.474C149.707 102.887 149.09 103.507 149.09 104.271C149.09 105.036 149.71 105.656 150.474 105.656H188.073V118.457C188.075 125.414 182.275 131.074 175.142 131.074H113.12C131.334 120.36 143.553 100.824 143.553 78.5377C143.553 54.9366 129.843 34.4235 109.822 24.2044H175.142C182.275 24.2044 188.075 29.8664 188.075 36.8263V53.301Z" fill="#EDF1F3"/>
<path d="M81.0392 24.6193C72.0166 24.6193 63.0833 26.8388 55.2091 31.0365C54.2513 31.5455 53.8894 32.7348 54.4009 33.6926C54.9075 34.6479 56.0993 35.0146 57.0546 34.5007C64.3643 30.6046 72.6583 28.5444 81.0392 28.5444C108.717 28.5444 131.235 50.5701 131.235 77.6426C131.235 104.715 108.717 126.739 81.0392 126.739C53.3587 126.739 30.8433 104.715 30.8433 77.6426C30.8433 70.2099 32.4982 63.069 35.7623 56.4179C36.2399 55.4457 35.8419 54.2684 34.8672 53.7907C33.8926 53.3131 32.7202 53.7183 32.2425 54.6881C28.7107 61.8797 26.9182 69.6043 26.9182 77.6426C26.9182 106.879 51.1971 130.666 81.0416 130.666C110.886 130.666 135.163 106.879 135.163 77.6426C135.163 48.4061 110.884 24.6193 81.0392 24.6193Z" fill="#EDF1F3"/>
<path d="M112.729 91.8568C113.438 92.1367 114.244 91.7821 114.522 91.0704C116.082 87.0681 116.874 82.8511 116.874 78.5377C116.874 59.1777 100.8 43.4268 81.0392 43.4268C61.2787 43.4268 45.2021 59.1777 45.2021 78.5377C45.2021 97.8952 61.2787 113.646 81.0392 113.646C90.3126 113.646 99.1157 110.184 105.815 103.905C106.372 103.381 106.401 102.505 105.88 101.948C105.354 101.381 104.479 101.362 103.921 101.883C97.7357 107.685 89.6058 110.879 81.0392 110.879C62.8034 110.879 47.9716 96.3705 47.9716 78.5401C47.9716 60.7072 62.8034 46.1987 81.0392 46.1987C99.2701 46.1987 114.104 60.7072 114.104 78.5401C114.104 82.5086 113.376 86.3854 111.94 90.0668C111.665 90.7785 112.017 91.5794 112.729 91.8568Z" fill="#EDF1F3"/>
<path d="M53.4985 7.81171V15.1046C53.4985 16.8874 56.268 16.8898 56.268 15.1046V7.81171C56.2656 6.03132 53.4985 6.0265 53.4985 7.81171Z" fill="#EDF1F3"/>
<path d="M66.5451 15.1046V7.81172C66.5451 6.03133 63.7756 6.02892 63.7756 7.81172V15.1046C63.7756 16.885 66.5451 16.8898 66.5451 15.1046Z" fill="#EDF1F3"/>
<path d="M76.8247 15.1046V7.81172C76.8247 6.03133 74.0552 6.02892 74.0552 7.81172V15.1046C74.0552 16.885 76.8247 16.8898 76.8247 15.1046Z" fill="##EDF1F3"/>
<path d="M87.104 15.1046V7.81172C87.104 6.03133 84.3345 6.02892 84.3345 7.81172V15.1046C84.3345 16.885 87.104 16.8898 87.104 15.1046Z" fill="#EDF1F3"/>
<path d="M97.3835 15.1046V7.81172C97.3835 6.03133 94.614 6.02892 94.614 7.81172V15.1046C94.614 16.885 97.3835 16.8898 97.3835 15.1046Z" fill="#EDF1F3"/>
<path d="M107.663 15.1046V7.81172C107.663 6.03133 104.894 6.02892 104.894 7.81172V15.1046C104.894 16.885 107.663 16.8898 107.663 15.1046Z" fill="#EDF1F3"/>
<path d="M153.394 30.8989L152.009 32.2837V45.7524L153.394 47.1372H178.905L180.29 45.7524V32.2837L178.905 30.8989H153.394ZM177.521 44.3677H154.776V33.6684H177.521V44.3677Z" fill="#EDF1F3"/>
<path d="M86.6384 61.6867C86.0715 61.1777 85.2054 61.2259 84.6988 61.788L78.7328 68.403C78.2238 68.9675 78.2672 69.8336 78.8317 70.3426C79.0947 70.579 79.4252 70.6948 79.7509 70.6948C80.1272 70.6948 80.5011 70.5428 80.7713 70.2413L86.7373 63.6239C87.2488 63.0642 87.2029 62.1933 86.6384 61.6867Z" fill="#EDF1F3"/>
<path d="M76.8173 72.5789C76.2504 72.0651 75.3843 72.1133 74.8777 72.6778L61.684 87.3094C61.175 87.8739 61.2232 88.74 61.7853 89.249C62.0459 89.4854 62.3764 89.6012 62.7045 89.6012C63.0808 89.6012 63.4524 89.4492 63.7225 89.1477L76.9163 74.5161C77.4277 73.954 77.3843 73.0831 76.8173 72.5789Z" fill="#EDF1F3"/>
<path d="M87.0124 82.8246C87.3887 82.8246 87.7602 82.6726 88.0304 82.3711L101.227 67.7395C101.736 67.175 101.687 66.309 101.125 65.7999C100.561 65.2885 99.6922 65.3343 99.188 65.9013L85.9943 80.5328C85.4853 81.0949 85.5287 81.9634 86.0932 82.47C86.3562 82.7088 86.6867 82.8246 87.0124 82.8246Z" fill="#EDF1F3"/>
<path d="M77.1913 93.7144C77.5676 93.7144 77.9392 93.5624 78.2094 93.2609L84.1778 86.6459C84.6868 86.0838 84.6434 85.2153 84.0789 84.7063C83.5119 84.1924 82.6434 84.2407 82.1392 84.8052L76.1733 91.4226C75.6642 91.9847 75.7076 92.8532 76.2722 93.3598C76.5351 93.5986 76.8656 93.7144 77.1913 93.7144Z" fill="#EDF1F3"/>
<path d="M185.132 78.7499V61.4936C185.132 59.7108 182.362 59.7084 182.362 61.4936V78.7499C182.362 80.5303 185.132 80.5351 185.132 78.7499Z" fill="#EDF1F3"/>
<path d="M182.611 85.3119V94.7904C182.611 96.5732 185.38 96.5756 185.38 94.7904V85.3119C185.38 83.5291 182.611 83.5267 182.611 85.3119Z" fill="#EDF1F3"/>
<path d="M180.367 126.333C184.463 122.411 185.057 116.913 185.358 111.53C185.457 109.75 182.685 109.755 182.589 111.53C182.331 116.174 181.964 120.97 178.411 124.374C177.12 125.609 179.081 127.566 180.367 126.333Z" fill="#EDF1F3"/>
</svg>
