<svg width="58" height="64" viewBox="0 0 58 64" fill="none" xmlns="http://www.w3.org/2000/svg">
<path d="M6.51347 27.474L36.5214 22.6871C36.7798 22.6446 36.956 22.4025 36.9144 22.1441C36.8729 21.8857 36.6289 21.7113 36.3723 21.751L5.89636 26.612C5.77167 26.6319 5.66144 26.7006 5.58735 26.8027C5.51326 26.9048 5.48344 27.0303 5.50332 27.155L8.02687 42.9758C8.06392 43.2089 8.2645 43.3752 8.494 43.3752C8.51839 43.3752 8.54369 43.3733 8.56899 43.3688C8.8274 43.3273 9.00359 43.0851 8.96202 42.8267L6.51347 27.474Z" fill="#06324F"/>
<path d="M57.8311 35.0777C57.4336 32.5858 55.229 30.8429 52.7714 30.9188L51.0077 19.8641C50.7502 18.2486 49.6189 16.9864 48.1381 16.4C47.5011 15.7748 47.2978 14.9155 47.2806 14.0075C47.2662 13.2512 47.2228 12.0035 47.8011 11.3927L48.9422 11.2111C49.3108 11.1514 49.5629 10.8045 49.5042 10.4358C49.4455 10.0663 49.1012 9.81782 48.729 9.87384L43.0458 10.781L43.418 1.26232C43.4289 1.00121 43.2247 0.780745 42.9636 0.769903L23.3082 9.73335e-05C23.0471 -0.012552 22.8267 0.192549 22.8167 0.455475L22.7544 2.03665L13.1878 1.66168C12.9186 1.65446 12.7062 1.85594 12.6963 2.11706L12.1596 15.8191C12.0476 15.773 11.9274 15.745 11.7991 15.7666L6.72851 16.5916C6.57852 16.6033 3.02856 16.9024 1.18085 19.3094C0.216788 20.5653 -0.10035 22.1392 0.237569 23.9878C0.238473 23.9942 0.235762 23.9996 0.236666 24.005L6.52522 63.4286C6.55322 63.6057 6.65081 63.7656 6.79627 63.8713C6.91283 63.9554 7.05197 63.9996 7.19383 63.9996C7.22906 63.9996 7.2652 63.9969 7.30044 63.9915L51.988 56.8618C53.2575 56.6594 54.3823 56.0016 55.1531 55.0086C55.9364 54.0039 56.2599 52.7805 56.0656 51.5671L54.3164 40.6055C55.3654 40.2992 56.2879 39.6758 56.9438 38.7714C57.7245 37.6943 58.0398 36.3824 57.8311 35.0777ZM42.9925 12.1607L46.5858 11.5869C46.3166 12.3332 46.3166 13.2259 46.3274 14.0075C46.3364 14.7628 46.4756 15.4622 46.7755 16.0802C46.3545 16.0395 45.9253 16.0314 45.4853 16.1L42.8217 16.5247L42.9925 12.1607ZM23.7446 0.965064L42.4531 1.69963L41.8667 16.6774L40.4518 16.9033L40.8367 7.08285C40.8457 6.86239 40.7011 6.66542 40.4897 6.60759C39.0667 6.21456 38.0421 5.00925 37.8794 3.5365C37.8541 3.30339 37.6617 3.12359 37.4277 3.11456L33.2958 2.95282L33.2976 2.92391C33.3076 2.66279 33.1034 2.44233 32.8432 2.43149L23.7022 2.07369L23.7446 0.965064ZM32.8784 13.6126L33.2588 3.89972L37.0003 4.04609C37.3111 5.59654 38.3935 6.86058 39.8753 7.4045L39.4967 17.0551L38.3529 17.2376C38.0818 15.3321 35.8176 13.8096 32.8784 13.6126ZM37.396 17.3912L32.7013 18.1402L32.8414 14.5677C35.2447 14.7411 37.1954 15.9663 37.396 17.3912ZM13.6233 2.62665L23.1908 3.00161L32.3318 3.35941L31.7481 18.2911L30.3323 18.517L30.7154 8.74263C30.7244 8.52307 30.5798 8.3261 30.3675 8.26737C28.9444 7.87524 27.9198 6.66994 27.7572 5.19628C27.731 4.96317 27.5395 4.78427 27.3054 4.77524L18.796 4.44274C18.5503 4.42738 18.3551 4.59815 18.3117 4.82764C18.019 6.36635 16.7793 7.52829 15.228 7.71983C14.9976 7.74784 14.8214 7.93939 14.8124 8.1716L14.3073 21.0749L12.8915 21.3008L13.6233 2.62665ZM26.5573 16.494C25.4812 15.7558 24.0401 15.3167 22.4969 15.2553C19.1746 15.1441 16.5119 16.7407 16.4261 18.929C16.4026 19.5253 16.6032 20.1099 16.9637 20.6502L15.2605 20.9222L15.743 8.59264C17.382 8.24207 18.6876 7.0196 19.1466 5.405L26.8781 5.70768C27.1898 7.25813 28.2713 8.52307 29.754 9.06699L29.3772 18.6706L28.2225 18.8549C28.0807 17.9704 27.5087 17.1472 26.5573 16.494ZM27.2729 19.0058L18.009 20.4831C17.6558 20.1009 17.3486 19.5868 17.3721 18.966C17.4353 17.3623 19.7727 16.0838 22.4598 16.2031C23.826 16.2564 25.09 16.6367 26.0206 17.2755C26.7507 17.7761 27.1708 18.3806 27.2729 19.0058ZM2.24882 20.1388C3.72428 18.2107 6.80079 17.9432 6.88753 17.9342L12.0141 17.1021C12.0494 17.0966 12.0774 17.0768 12.1099 17.0659L11.9382 21.4525L1.48082 23.1205C1.37872 21.9404 1.63623 20.9393 2.24882 20.1388ZM54.7284 51.7794C54.8621 52.6197 54.6335 53.4708 54.0842 54.1783C53.5231 54.8993 52.7036 55.3773 51.7739 55.5246L7.75492 62.5477L1.6787 24.4604L4.82207 23.9598C4.82297 23.9598 4.82387 23.9589 4.82568 23.9589L45.6976 17.4382C47.6059 17.1292 49.3904 18.3164 49.6723 20.0774L51.4251 31.0697L48.3152 31.5657L47.0701 23.762C47.0114 23.3933 46.6662 23.1421 46.2949 23.2C45.9262 23.2596 45.6741 23.6066 45.7338 23.9752L46.9788 31.7799L42.4323 32.5054C41.1267 32.7132 39.9774 33.4216 39.1977 34.4986C38.417 35.5747 38.1026 36.8875 38.3104 38.1931C38.6998 40.6335 40.8159 42.3773 43.2129 42.3773C43.4713 42.3773 43.7343 42.3584 43.9972 42.3159L48.7443 41.5578L49.9749 49.2694C50.2117 50.7521 49.0976 52.1679 47.492 52.4227L11.4124 58.1782L10.8992 54.9608C10.8576 54.7023 10.6146 54.5289 10.3571 54.5668C10.0987 54.6093 9.92248 54.8514 9.96404 55.1089L10.5522 58.7944C10.5893 59.0275 10.7908 59.1938 11.0194 59.1938C11.0438 59.1938 11.0691 59.192 11.0944 59.1884L47.642 53.3579C49.7635 53.02 51.2299 51.118 50.911 49.1185L49.6804 41.4069L52.9909 40.8793L54.7284 51.7794ZM55.8479 37.9772C55.2795 38.7614 54.4438 39.2764 53.496 39.4273H53.4951L43.7831 40.9769C41.8098 41.2913 39.9593 39.9459 39.6458 37.979C39.4949 37.0294 39.7244 36.0752 40.2927 35.2919C40.8611 34.5085 41.6959 33.9935 42.6446 33.8426L47.8544 33.0114C47.8562 33.0114 47.8571 33.0114 47.8589 33.0105C47.8589 33.0105 47.8598 33.0096 47.8607 33.0096L52.3033 32.3003C52.3042 32.3003 52.3051 32.3003 52.3051 32.3003C52.306 32.3003 52.3069 32.2994 52.3069 32.2994L52.3566 32.2913C52.5482 32.2605 52.7388 32.2461 52.9277 32.2461C54.6715 32.2461 56.2111 33.5155 56.4939 35.2901C56.6457 36.2388 56.4162 37.1929 55.8479 37.9772Z" fill="#06324F"/>
<path d="M44.9115 35.1305C44.4037 34.7619 43.7848 34.6155 43.1641 34.7131C42.5443 34.8116 42.0003 35.1468 41.6317 35.6545C41.264 36.1614 41.1158 36.7831 41.2143 37.402C41.3986 38.5549 42.3988 39.3798 43.5318 39.3798C43.6547 39.3798 43.7794 39.3708 43.9041 39.3509C45.1826 39.1467 46.0572 37.9414 45.853 36.662C45.7536 36.0431 45.4202 35.4991 44.9115 35.1305ZM43.755 38.4148C42.9933 38.5377 42.2732 38.0155 42.1503 37.2529C42.0916 36.8833 42.1792 36.5129 42.3988 36.2102C42.6193 35.9075 42.9436 35.7079 43.3123 35.6491C43.3873 35.6365 43.4623 35.6311 43.5363 35.6311C43.8291 35.6311 44.1137 35.7223 44.3558 35.8976C44.6585 36.1172 44.8582 36.4406 44.9169 36.8111C45.0389 37.5745 44.5167 38.2938 43.755 38.4148Z" fill="#06324F"/>
<path d="M10.2144 29.1619L8.56634 29.4248C8.30793 29.4672 8.13175 29.7094 8.17331 29.9678C8.21035 30.2009 8.41184 30.3672 8.64043 30.3672C8.66483 30.3672 8.69013 30.3654 8.71542 30.3617L10.3635 30.0988C10.6219 30.0573 10.7981 29.8151 10.7565 29.5567C10.7149 29.2974 10.4746 29.1257 10.2144 29.1619Z" fill="#06324F"/>
<path d="M16.5334 28.6351C16.491 28.3758 16.2515 28.2014 15.9904 28.2411L12.801 28.7507C12.5426 28.7923 12.3664 29.0344 12.4079 29.2928C12.4459 29.526 12.6465 29.6922 12.876 29.6922C12.9004 29.6922 12.9256 29.6904 12.9509 29.6868L16.1404 29.1772C16.3988 29.1356 16.575 28.8935 16.5334 28.6351Z" fill="#06324F"/>
<path d="M28.0879 26.7918C28.0463 26.5334 27.8042 26.359 27.5449 26.3979L24.3554 26.9066C24.097 26.949 23.9208 27.1912 23.9624 27.4496C23.9994 27.6827 24.2009 27.849 24.4304 27.849C24.4548 27.849 24.4801 27.8472 24.5054 27.8426L27.6948 27.334C27.9533 27.2924 28.1294 27.0502 28.0879 26.7918Z" fill="#06324F"/>
<path d="M33.865 25.8702C33.8234 25.6118 33.5813 25.4402 33.322 25.4763L30.1325 25.985C29.8741 26.0266 29.6979 26.2696 29.7395 26.528C29.7765 26.7611 29.978 26.9274 30.2075 26.9274C30.2319 26.9274 30.2572 26.9256 30.2825 26.921L33.4719 26.4124C33.7304 26.3708 33.9065 26.1287 33.865 25.8702Z" fill="#06324F"/>
<path d="M35.5158 25.6065C35.5529 25.8396 35.7544 26.0058 35.983 26.0058C36.0074 26.0058 36.0327 26.004 36.058 26.0004L39.2474 25.4908C39.5058 25.4483 39.682 25.2062 39.6404 24.9478C39.5998 24.6894 39.3576 24.5159 39.0983 24.5548L35.9089 25.0634C35.6505 25.1059 35.4743 25.348 35.5158 25.6065Z" fill="#06324F"/>
<path d="M22.311 27.7135C22.2686 27.4551 22.0282 27.2834 21.768 27.3196L18.5786 27.8292C18.3201 27.8707 18.144 28.1129 18.1855 28.3713C18.2235 28.6044 18.424 28.7706 18.6535 28.7706C18.6779 28.7706 18.7032 28.7688 18.7285 28.7652L21.918 28.2556C22.1764 28.2141 22.3526 27.9719 22.311 27.7135Z" fill="#06324F"/>
<path d="M41.76 25.0833C41.7844 25.0833 41.8097 25.0815 41.835 25.0779L43.4831 24.8149C43.7415 24.7734 43.9177 24.5312 43.8761 24.2728C43.8354 24.0144 43.5933 23.8427 43.334 23.8789L41.6859 24.1418C41.4284 24.1843 41.2514 24.4264 41.2929 24.6848C41.33 24.917 41.5305 25.0833 41.76 25.0833Z" fill="#06324F"/>
<path d="M14.2857 54.6828L12.6376 54.9458C12.3792 54.9882 12.203 55.2304 12.2446 55.4888C12.2816 55.7219 12.4831 55.8881 12.7117 55.8881C12.7361 55.8881 12.7614 55.8863 12.7867 55.8827L14.4347 55.6198C14.6932 55.5782 14.8693 55.3361 14.8278 55.0777C14.7862 54.8184 14.5432 54.644 14.2857 54.6828Z" fill="#06324F"/>
<path d="M37.3933 50.9965L34.2038 51.5052C33.9454 51.5467 33.7692 51.7898 33.8108 52.0482C33.8478 52.2813 34.0493 52.4475 34.2788 52.4475C34.3032 52.4475 34.3285 52.4457 34.3538 52.4412L37.5432 51.9325C37.8016 51.891 37.9778 51.6488 37.9363 51.3904C37.8947 51.132 37.6544 50.9585 37.3933 50.9965Z" fill="#06324F"/>
<path d="M40.054 51.5259C40.0784 51.5259 40.1037 51.5241 40.129 51.5205L43.3184 51.0109C43.5768 50.9684 43.753 50.7263 43.7115 50.4679C43.6699 50.2095 43.4296 50.0351 43.1693 50.0748L39.9799 50.5835C39.7224 50.626 39.5453 50.8681 39.5869 51.1265C39.6239 51.3597 39.8254 51.5259 40.054 51.5259Z" fill="#06324F"/>
<path d="M20.0619 53.7612L16.8725 54.2708C16.6141 54.3124 16.4379 54.5545 16.4795 54.8129C16.5174 55.0461 16.718 55.2123 16.9475 55.2123C16.9719 55.2123 16.9972 55.2105 17.0225 55.2069L20.2119 54.6973C20.4703 54.6557 20.6465 54.4136 20.605 54.1552C20.5634 53.8968 20.3195 53.7251 20.0619 53.7612Z" fill="#06324F"/>
<path d="M25.8388 52.8396L22.6494 53.3492C22.3909 53.3908 22.2148 53.6329 22.2563 53.8913C22.2943 54.1244 22.4948 54.2907 22.7243 54.2907C22.7487 54.2907 22.774 54.2889 22.7993 54.2853L25.9888 53.7757C26.2472 53.7341 26.4234 53.492 26.3818 53.2336C26.3403 52.9752 26.1008 52.8017 25.8388 52.8396Z" fill="#06324F"/>
<path d="M31.6161 51.9181L28.4267 52.4268C28.1683 52.4692 27.9921 52.7114 28.0337 52.9698C28.0707 53.2029 28.2722 53.3691 28.5017 53.3691C28.5261 53.3691 28.5514 53.3673 28.5767 53.3628L31.7661 52.8541C32.0245 52.8126 32.2007 52.5704 32.1592 52.312C32.1176 52.0536 31.8773 51.8828 31.6161 51.9181Z" fill="#06324F"/>
<path d="M45.8316 50.6043C45.856 50.6043 45.8813 50.6025 45.9066 50.5989L47.5546 50.3359C47.813 50.2944 47.9892 50.0522 47.9476 49.7938C47.9061 49.5354 47.6666 49.361 47.4055 49.3999L45.7575 49.6628C45.5 49.7053 45.3229 49.9474 45.3644 50.2058C45.4015 50.438 45.603 50.6043 45.8316 50.6043Z" fill="#06324F"/>
<path d="M53.0535 33.0569C52.5168 32.7687 52.038 33.5864 52.5756 33.8755C53.7212 34.4908 54.3962 35.7585 54.1766 37.0568C54.0754 37.6532 54.988 37.9098 55.0901 37.3089C55.3801 35.5958 54.5995 33.8864 53.0535 33.0569Z" fill="#06324F"/>
<path d="M51.6436 43.4285C51.902 45.0477 52.1604 46.6659 52.4179 48.285C52.5137 48.8858 53.4272 48.6301 53.3314 48.0329C53.073 46.4138 52.8146 44.7956 52.5562 43.1764C52.4613 42.5765 51.5488 42.8313 51.6436 43.4285Z" fill="#06324F"/>
<path d="M52.6121 50.1607C52.7169 50.8148 52.8208 51.469 52.9257 52.124C53.0214 52.7249 53.934 52.4701 53.8391 51.8719C53.7352 51.2178 53.6304 50.5636 53.5256 49.9086C53.4298 49.3086 52.5173 49.5634 52.6121 50.1607Z" fill="#06324F"/>
</svg>
