<svg width="42" height="64" viewBox="0 0 42 64" fill="none" xmlns="http://www.w3.org/2000/svg">
<path d="M15.9222 8.41526C15.7292 8.38867 15.5705 8.52421 15.5482 8.70778L14.8328 14.5745C14.8105 14.7589 14.9409 14.9262 15.1253 14.9485C15.1391 14.9502 15.1528 14.9511 15.1656 14.9511C15.3338 14.9511 15.4788 14.8258 15.4993 14.6551L16.2148 8.78842C16.2371 8.60484 16.1067 8.43757 15.9222 8.41526Z" fill="#06324F"/>
<path d="M18.5484 6.51694C18.3434 6.4852 18.2036 6.64647 18.1915 6.8309L17.7763 13.4173C17.7643 13.6026 17.905 13.763 18.0903 13.7742C18.098 13.775 18.1049 13.775 18.1118 13.775C18.2876 13.775 18.436 13.6378 18.4472 13.4602L18.8624 6.8738C18.8744 6.6885 18.7337 6.52809 18.5484 6.51694Z" fill="#06324F"/>
<path d="M21.0565 10.3291H21.0522C20.8686 10.3291 20.7185 10.4775 20.7159 10.6611L20.5984 19.7515C20.5967 19.9376 20.7451 20.0894 20.9304 20.0929H20.9347C21.1182 20.0929 21.2684 19.9453 21.2709 19.7609L21.3885 10.6705C21.3902 10.4835 21.2426 10.3325 21.0565 10.3291Z" fill="#06324F"/>
<path d="M33.8629 5.88981C33.6828 5.93356 33.5713 6.11456 33.6142 6.29556L35.7459 15.1149C35.7828 15.2693 35.9209 15.3731 36.0736 15.3731C36.0993 15.3731 36.1259 15.3705 36.1525 15.3637C36.3326 15.3199 36.4442 15.1389 36.4004 14.9579L34.2687 6.13858C34.2249 5.95758 34.0379 5.84263 33.8629 5.88981Z" fill="#06324F"/>
<path d="M41.9507 23.399L36.0531 0.504403C35.9759 0.207594 35.7083 0 35.4011 0H6.59785C6.2916 0 6.02396 0.207594 5.94676 0.504403L0.0491856 23.399C-0.00228405 23.6006 0.0414651 23.8142 0.168424 23.9789C0.29624 24.1427 0.492683 24.2388 0.700277 24.2388H13.4888L13.5565 27.7568C13.0539 27.9498 12.6944 28.4344 12.6944 29.004V30.9153C12.6944 31.6539 13.2958 32.2543 14.0344 32.2543C14.773 32.2543 15.3734 31.653 15.3734 30.9153V29.004C15.3734 28.4293 15.0071 27.942 14.4976 27.7516L14.4298 24.2388H18.8922V27.8108H18.2514C18.0044 27.8108 17.7762 27.9472 17.6595 28.1651C17.542 28.383 17.554 28.6489 17.6913 28.8539C18.2291 29.668 18.5019 30.5207 18.5019 31.3871C18.5019 34.8476 14.0489 37.868 8.36326 38.2634C8.06645 38.284 7.81939 38.4959 7.7542 38.785C7.44967 40.1266 7.2944 41.5086 7.2944 42.8931C7.2944 50.7294 12.1643 57.2532 18.5594 58.6008C18.0044 59.0203 17.6621 59.5839 17.6621 60.217C17.6621 60.7514 17.91 61.2344 18.3192 61.6255H14.1665C13.5128 61.6255 12.9801 62.1582 12.9801 62.8119C12.9801 63.4673 13.5128 64 14.1665 64H27.7202C28.3755 64 28.9074 63.4673 28.9074 62.8119C28.9074 62.1582 28.3747 61.6255 27.7202 61.6255H25.1775C24.9176 61.6255 24.7066 61.8357 24.7066 62.0965C24.7066 62.3564 24.9168 62.5674 25.1775 62.5674H27.7202C27.8531 62.5674 27.9664 62.6798 27.9664 62.8128C27.9664 62.9492 27.8565 63.059 27.7202 63.059H14.1665C14.0335 63.059 13.9211 62.9466 13.9211 62.8128C13.9211 62.6798 14.0335 62.5674 14.1665 62.5674H19.1462C19.316 62.5674 19.4584 62.4731 19.5408 62.3384C19.9808 62.4868 20.4706 62.5769 20.9999 62.5769C22.8717 62.5769 24.3377 61.5397 24.3377 60.2178C24.3377 59.7297 24.1353 59.2622 23.751 58.8685C23.5683 58.6832 23.2723 58.6806 23.0853 58.8607C22.9 59.0426 22.8957 59.3403 23.0767 59.5264C23.2234 59.6757 23.3967 59.9159 23.3967 60.2178C23.3967 60.9864 22.2987 61.6358 20.9999 61.6358C19.7012 61.6358 18.6032 60.9864 18.6032 60.2178C18.6032 59.5564 19.4155 58.9868 20.4689 58.8384C20.6465 58.8462 20.8206 58.8693 21.0008 58.8693C28.5574 58.8693 34.7055 51.7022 34.7055 42.8931C34.7055 41.3387 34.5124 39.7981 34.1316 38.3132C34.0604 38.0335 33.8185 37.8311 33.5311 37.8088C31.4843 37.6544 29.5388 37.1603 27.9037 36.3814C27.5666 36.2218 27.166 36.3651 27.0082 36.6996C26.8477 37.035 26.9901 37.4365 27.3256 37.596C28.976 38.3827 30.9078 38.9025 32.94 39.1075C33.2197 40.3411 33.3604 41.6124 33.3604 42.894C33.3604 43.3752 33.3381 43.8513 33.2995 44.3214C32.2624 43.7278 30.8238 43.7166 29.5499 43.7166C28.8774 43.7166 28.1568 43.7192 27.4731 43.8067C26.7894 43.7192 26.0697 43.7166 25.3963 43.7166C24.7229 43.7166 24.0032 43.7192 23.3195 43.8067C22.6358 43.7192 21.9161 43.7166 21.2427 43.7166C20.5702 43.7166 19.8496 43.7192 19.1667 43.8067C18.4831 43.7192 17.7633 43.7166 17.0899 43.7166C16.4165 43.7166 15.6968 43.7192 15.0131 43.8067C14.3295 43.7192 13.6097 43.7166 12.9363 43.7166C11.4643 43.7166 9.77524 43.7347 8.7407 44.6525C8.68151 44.0744 8.64291 43.4893 8.64291 42.894C8.64291 41.7745 8.75185 40.6568 8.96717 39.5639C15.207 38.9686 19.8504 35.5098 19.8504 31.3879C19.8504 30.6262 19.6935 29.879 19.3829 29.1567H19.5691H22.4368H22.4531C22.2549 29.74 22.1554 30.338 22.1554 30.941C22.1554 32.5632 22.8691 34.1278 24.2194 35.4669C24.4827 35.7303 24.9082 35.7268 25.1698 35.4635C25.4315 35.2001 25.4298 34.7746 25.1664 34.513C24.077 33.4321 23.5005 32.196 23.5005 30.941C23.5005 30.2187 23.6918 29.5007 24.0718 28.8059C24.1859 28.5974 24.1816 28.3444 24.0598 28.1411C23.9397 27.936 23.7192 27.8117 23.4816 27.8117H23.1093V24.2397H41.303C41.5106 24.2397 41.707 24.1427 41.8349 23.9797C41.9575 23.8142 42.003 23.6006 41.9507 23.399ZM21.0008 57.5243C18.2669 57.5243 15.7457 56.4554 13.6972 54.6703C14.0361 54.31 14.5002 53.8021 15.0114 53.1862C15.9559 54.3237 16.7717 55.1352 16.8532 55.215C16.9184 55.2793 17.0033 55.3111 17.0891 55.3111C17.174 55.3111 17.2598 55.2785 17.3241 55.215C17.4056 55.1352 18.2214 54.3237 19.1659 53.1862C20.1095 54.3246 20.9253 55.1352 21.0068 55.215C21.072 55.2793 21.1569 55.3111 21.2418 55.3111C21.3268 55.3111 21.4125 55.2785 21.4777 55.215C21.5592 55.1352 22.375 54.3237 23.3195 53.1862C24.264 54.3237 25.0798 55.1352 25.1613 55.215C25.2264 55.2793 25.3114 55.3111 25.3972 55.3111C25.4829 55.3111 25.5679 55.2785 25.6322 55.215C25.7137 55.1352 26.5303 54.3237 27.474 53.1862C27.8814 53.6769 28.2597 54.0998 28.5694 54.4361C26.4737 56.3645 23.8522 57.5243 21.0008 57.5243ZM15.4446 52.6501C16.0228 51.9166 16.6096 51.0905 17.0882 50.2464C17.566 51.0905 18.1537 51.9166 18.7318 52.6501C18.0456 53.4839 17.4151 54.1581 17.0882 54.4961C16.7605 54.1581 16.1309 53.4847 15.4446 52.6501ZM19.5982 52.6501C20.1773 51.9166 20.764 51.0905 21.2418 50.2464C21.7196 51.0905 22.3073 51.9166 22.8854 52.6501C22.1992 53.4839 21.5687 54.1581 21.2418 54.4961C20.9141 54.1581 20.2845 53.4847 19.5982 52.6501ZM23.751 52.6501C24.33 51.9166 24.9168 51.0905 25.3954 50.2464C25.8732 51.0897 26.4609 51.9166 27.039 52.6501C26.3528 53.4839 25.7223 54.1581 25.3954 54.4961C25.0686 54.1581 24.4381 53.4847 23.751 52.6501ZM29.549 44.3892C31.1952 44.3892 32.4468 44.469 33.2085 45.0609C32.7616 48.6028 31.2458 51.7313 29.0532 53.9686C28.7315 53.6186 28.3326 53.1699 27.9054 52.6501C29.199 51.0099 30.5604 48.8902 30.5604 47.214C30.5604 45.7325 30.044 44.8824 29.2763 44.39C29.3672 44.39 29.4564 44.3892 29.549 44.3892ZM25.8415 45.0815C26.2438 44.752 26.7937 44.5762 27.4722 44.4861C29.006 44.6903 29.8887 45.3182 29.8887 47.214C29.8887 48.662 28.6715 50.5741 27.4722 52.1088C26.8486 51.3119 26.2275 50.4154 25.7677 49.531C26.1529 48.7255 26.4077 47.9286 26.4077 47.2132C26.4068 46.2687 26.1932 45.585 25.8415 45.0815ZM25.3954 44.3892C25.4889 44.3892 25.5773 44.39 25.6682 44.3909C25.5739 44.4518 25.4821 44.5144 25.3954 44.5865C25.3088 44.5144 25.217 44.4518 25.1226 44.3909C25.2136 44.39 25.3019 44.3892 25.3954 44.3892ZM25.3954 45.6133C25.6159 46.0079 25.7343 46.526 25.7343 47.2149C25.7343 47.6824 25.6065 48.1979 25.3946 48.7341C25.1827 48.1979 25.0557 47.6824 25.0557 47.2149C25.0566 46.526 25.175 46.0079 25.3954 45.6133ZM21.6879 45.0815C22.0902 44.752 22.6401 44.5762 23.3186 44.4861C23.9972 44.5762 24.547 44.752 24.9494 45.0815C24.5985 45.585 24.3841 46.2687 24.3841 47.214C24.3841 47.9286 24.6388 48.7255 25.0231 49.531C24.5633 50.4154 23.9414 51.311 23.3186 52.1088C22.695 51.3119 22.0731 50.4154 21.6141 49.531C21.9993 48.7255 22.2541 47.9286 22.2541 47.2132C22.2532 46.2687 22.0388 45.585 21.6879 45.0815ZM21.241 44.3892C21.3345 44.3892 21.4228 44.39 21.5138 44.3909C21.4194 44.4518 21.3276 44.5144 21.2418 44.5865C21.1552 44.5144 21.0634 44.4518 20.969 44.3909C21.06 44.39 21.1483 44.3892 21.241 44.3892ZM21.241 45.6133C21.4614 46.0079 21.5798 46.526 21.5798 47.2149C21.5798 47.6824 21.452 48.1979 21.241 48.7341C21.0291 48.1979 20.9021 47.6824 20.9021 47.2149C20.9021 46.526 21.0205 46.0079 21.241 45.6133ZM17.5343 45.0815C17.9366 44.752 18.4865 44.5762 19.165 44.4861C19.8427 44.5762 20.3926 44.752 20.7949 45.0815C20.4441 45.585 20.2296 46.2687 20.2296 47.214C20.2296 47.9286 20.4844 48.7255 20.8695 49.5319C20.4106 50.4154 19.7878 51.3119 19.165 52.1096C18.5414 51.3119 17.9203 50.4154 17.4605 49.5319C17.8457 48.7264 18.1005 47.9286 18.1005 47.214C18.0996 46.2687 17.8852 45.585 17.5343 45.0815ZM17.0882 44.3892C17.1817 44.3892 17.2701 44.39 17.3602 44.3909C17.2658 44.4518 17.174 44.5144 17.0882 44.5865C17.0016 44.5144 16.9098 44.4518 16.8154 44.3909C16.9064 44.39 16.9947 44.3892 17.0882 44.3892ZM17.0882 45.6133C17.3087 46.0079 17.4271 46.526 17.4271 47.2149C17.4271 47.6824 17.2993 48.1979 17.0882 48.7341C16.8763 48.1988 16.7494 47.6824 16.7494 47.2149C16.7494 46.526 16.8678 46.0079 17.0882 45.6133ZM15.0114 44.4861C15.69 44.5762 16.2398 44.752 16.6422 45.0815C16.2913 45.585 16.0769 46.2687 16.0769 47.214C16.0769 47.9286 16.3316 48.7255 16.7159 49.531C16.257 50.4154 15.6342 51.3119 15.0114 52.1088C13.8122 50.5741 12.5958 48.6629 12.5958 47.214C12.5949 45.3182 13.4776 44.6903 15.0114 44.4861ZM12.9338 44.3892C13.0273 44.3892 13.1156 44.39 13.2074 44.3909C12.4397 44.8833 11.9224 45.7334 11.9224 47.2149C11.9224 48.8902 13.2846 51.0108 14.5774 52.6509C14.0352 53.3097 13.5411 53.8527 13.192 54.2242C10.9633 52.0676 9.3875 49.0086 8.8505 45.5232C9.50588 44.4998 10.9333 44.3892 12.9338 44.3892ZM14.4341 29.0049V30.9161C14.4341 31.1349 14.2557 31.3142 14.0361 31.3142C13.8165 31.3142 13.6372 31.1349 13.6372 30.9161V29.0049C13.6372 28.7853 13.8165 28.6069 14.0361 28.6069C14.2557 28.6069 14.4341 28.7853 14.4341 29.0049ZM21.7608 27.8117H20.2382V24.4481H21.7608V27.8117ZM38.3186 22.8911V22.8946L36.9521 17.2423C36.9084 17.0613 36.7222 16.9464 36.5464 16.9936C36.3662 17.0373 36.2547 17.2183 36.2984 17.3993L37.6264 22.8937H34.9602L32.9478 12.9712C32.9109 12.7894 32.7324 12.6693 32.5514 12.7079C32.3696 12.7448 32.2521 12.9232 32.2889 13.1042L34.274 22.8937H31.5752L30.8572 18.6072C30.8272 18.4253 30.6574 18.3043 30.4704 18.3318C30.2868 18.3618 30.1641 18.536 30.1941 18.7187L30.8941 22.8937H28.1817L26.1332 6.08715C26.1109 5.90357 25.9505 5.7689 25.7592 5.79377C25.5747 5.81608 25.4443 5.98335 25.4666 6.16779L27.5048 22.8937H24.8198L24.6543 20.255C24.6431 20.0698 24.487 19.9145 24.2991 19.9402C24.1138 19.9514 23.9714 20.1109 23.9835 20.2954L24.1464 22.8929H1.56754L7.11855 1.34336H16.4457L15.8667 6.0983C15.8444 6.28188 15.9748 6.45001 16.1592 6.47231C16.1729 6.47403 16.1867 6.47489 16.1995 6.47489C16.3668 6.47489 16.5126 6.34965 16.5332 6.17894L17.1225 1.3425H18.5362L18.3158 4.85359C18.3038 5.03888 18.4445 5.19844 18.6297 5.21045C18.6375 5.21131 18.6443 5.21131 18.6512 5.21131C18.827 5.21131 18.9755 5.07405 18.9866 4.89648L19.2096 1.3425H20.8369L20.7666 6.76312C20.7649 6.94927 20.9133 7.1011 21.0986 7.10453H21.1029C21.2864 7.10453 21.4366 6.95613 21.4391 6.77255L21.5103 1.3425H22.7911L23.8934 18.8636C23.9045 19.0412 24.0529 19.1785 24.2288 19.1785C24.2357 19.1785 24.2425 19.1785 24.2502 19.1776C24.4355 19.1665 24.5762 19.006 24.5642 18.8208L23.4645 1.34164H24.879L25.2822 4.65458C25.3028 4.82528 25.4478 4.95053 25.6159 4.95053C25.6288 4.95053 25.6425 4.94967 25.6562 4.94795C25.8407 4.92565 25.971 4.75837 25.9487 4.57394L25.5559 1.3425H27.2861L29.9256 17.1068C29.9531 17.2707 30.0963 17.3873 30.2576 17.3873C30.2748 17.3873 30.2945 17.3856 30.3134 17.3822C30.4969 17.3522 30.6196 17.178 30.5896 16.9953L27.9681 1.3425H29.9068L31.6739 10.0606C31.7065 10.2202 31.8472 10.33 32.0033 10.33C32.0256 10.33 32.0479 10.3283 32.0702 10.3231C32.2529 10.2862 32.3696 10.1078 32.3327 9.92679L30.593 1.34164H32.4185L33.1897 4.52848C33.2274 4.68203 33.3647 4.78582 33.5165 4.78582C33.5431 4.78582 33.5697 4.78325 33.5954 4.77639C33.7756 4.7335 33.8871 4.55078 33.8442 4.37064L33.1116 1.34164H34.883L40.434 22.8911H38.3186Z" fill="#06324F"/>
</svg>
