<svg width="16" height="16" viewBox="0 0 16 16" fill="none" xmlns="http://www.w3.org/2000/svg">
<path d="M14.75 1H1.25C1.05116 1.00023 0.860528 1.07932 0.719926 1.21993C0.579324 1.36053 0.500232 1.55116 0.5 1.75V5.25C0.500232 5.44884 0.579324 5.63947 0.719926 5.78007C0.860528 5.92068 1.05116 5.99977 1.25 6H14.75C14.9488 5.99977 15.1395 5.92068 15.2801 5.78007C15.4207 5.63947 15.4998 5.44884 15.5 5.25V1.75C15.4998 1.55116 15.4207 1.36053 15.2801 1.21993C15.1395 1.07932 14.9488 1.00023 14.75 1V1ZM13.5 4.5H2.5V4H13.5V4.5ZM2.5 5.5V5H13.5V5.5H2.5ZM15 5.25C14.9999 5.31628 14.9736 5.37983 14.9267 5.42669C14.8798 5.47356 14.8163 5.49993 14.75 5.5H14V4C13.9998 3.86744 13.9471 3.74035 13.8534 3.64662C13.7596 3.55289 13.6326 3.50016 13.5 3.5H2.5C2.36744 3.50016 2.24035 3.55289 2.14662 3.64662C2.05289 3.74035 2.00016 3.86744 2 4V5.5H1.25C1.18372 5.49993 1.12017 5.47356 1.07331 5.42669C1.02644 5.37983 1.00007 5.31628 1 5.25V1.75C1.00007 1.68372 1.02644 1.62017 1.07331 1.57331C1.12017 1.52644 1.18372 1.50007 1.25 1.5H14.75C14.8163 1.50007 14.8798 1.52644 14.9267 1.57331C14.9736 1.62017 14.9999 1.68372 15 1.75V5.25Z" fill="black"/>
<path d="M6.02585 13.1957C6.06238 13.251 6.1194 13.2896 6.18436 13.3028C6.24932 13.3161 6.31689 13.3031 6.37222 13.2666L6.70973 13.0436L6.96932 13.1936V13.8061L6.70973 13.9561L6.37222 13.7332C6.31689 13.6969 6.24943 13.6841 6.18461 13.6974C6.1198 13.7108 6.06293 13.7493 6.02647 13.8045C5.99 13.8597 5.97692 13.9272 5.99009 13.992C6.00326 14.0569 6.04161 14.1139 6.09672 14.1505L6.45891 14.3896L6.48494 14.8229C6.48876 14.8864 6.51667 14.9462 6.56299 14.9898C6.60932 15.0335 6.67056 15.0579 6.73423 15.0579C6.73929 15.0579 6.74435 15.0578 6.74944 15.0575C6.81563 15.0535 6.87752 15.0234 6.92151 14.9738C6.9655 14.9242 6.98798 14.8591 6.98401 14.7929L6.95976 14.3891L7.21938 14.2391L7.75001 14.5454V14.8452L7.3882 15.0261C7.32943 15.056 7.28488 15.108 7.26427 15.1707C7.24366 15.2333 7.24865 15.3016 7.27815 15.3606C7.30766 15.4196 7.35928 15.4646 7.42178 15.4857C7.48429 15.5068 7.55259 15.5023 7.61182 15.4733L8.00001 15.2794L8.3882 15.4735C8.44743 15.5025 8.51573 15.507 8.57824 15.4859C8.64074 15.4648 8.69236 15.4198 8.72187 15.3608C8.75137 15.3018 8.75636 15.2336 8.73575 15.1709C8.71514 15.1082 8.67059 15.0563 8.61182 15.0263L8.25001 14.8454V14.5456L8.78064 14.2394L9.04026 14.3894L9.01601 14.7931C9.01204 14.8593 9.03452 14.9244 9.07851 14.974C9.1225 15.0236 9.18439 15.0537 9.25058 15.0577C9.25567 15.058 9.26073 15.0581 9.26579 15.0581C9.32946 15.0581 9.3907 15.0337 9.43703 14.99C9.48335 14.9464 9.51126 14.8867 9.51508 14.8231L9.54111 14.3899L9.9033 14.1507C9.9308 14.1327 9.95447 14.1094 9.97295 14.0822C9.99144 14.055 10.0044 14.0244 10.011 13.9922C10.0177 13.9599 10.0179 13.9267 10.0117 13.8944C10.0054 13.8621 9.99291 13.8314 9.97479 13.8039C9.95666 13.7765 9.9333 13.7529 9.90604 13.7345C9.87878 13.7161 9.84815 13.7032 9.81592 13.6967C9.78368 13.6901 9.75047 13.69 9.71819 13.6963C9.68591 13.7026 9.65519 13.7153 9.62779 13.7335L9.29029 13.9564L9.0307 13.8064V13.1936L9.29029 13.0436L9.62779 13.2666C9.65519 13.2848 9.68591 13.2974 9.71819 13.3037C9.75047 13.31 9.78368 13.3099 9.81592 13.3033C9.84815 13.2968 9.87878 13.2839 9.90604 13.2655C9.9333 13.2471 9.95666 13.2235 9.97479 13.1961C9.99291 13.1686 10.0054 13.1379 10.0117 13.1056C10.0179 13.0733 10.0177 13.0401 10.011 13.0079C10.0044 12.9756 9.99144 12.9451 9.97295 12.9178C9.95447 12.8906 9.9308 12.8673 9.9033 12.8493L9.54111 12.6101L9.51508 12.1769C9.5135 12.1438 9.50538 12.1114 9.49119 12.0815C9.47699 12.0516 9.457 12.0249 9.43238 12.0028C9.40776 11.9807 9.37899 11.9637 9.34774 11.9527C9.3165 11.9418 9.2834 11.9372 9.25037 11.9392C9.21734 11.9412 9.18503 11.9497 9.15532 11.9643C9.1256 11.9789 9.09908 11.9992 9.07728 12.0241C9.05548 12.049 9.03884 12.078 9.02832 12.1093C9.0178 12.1407 9.01362 12.1739 9.01601 12.2069L9.04026 12.6106L8.78064 12.7606L8.25001 12.4544V12.1546L8.61182 11.9737C8.64145 11.9592 8.6679 11.9389 8.68967 11.9141C8.71143 11.8893 8.72807 11.8605 8.73862 11.8292C8.74917 11.7979 8.75344 11.7649 8.75116 11.732C8.74888 11.6991 8.74011 11.6669 8.72536 11.6374C8.7106 11.6079 8.69015 11.5816 8.66518 11.56C8.64021 11.5385 8.61122 11.5221 8.57987 11.5118C8.54853 11.5015 8.51546 11.4974 8.48256 11.5C8.44966 11.5025 8.41759 11.5115 8.3882 11.5265L8.00001 11.7204L7.61182 11.5263C7.58243 11.5113 7.55036 11.5023 7.51746 11.4998C7.48456 11.4972 7.45149 11.5012 7.42015 11.5115C7.3888 11.5219 7.35981 11.5383 7.33484 11.5598C7.30987 11.5814 7.28942 11.6077 7.27466 11.6372C7.25991 11.6667 7.25114 11.6989 7.24886 11.7318C7.24658 11.7647 7.25085 11.7977 7.2614 11.829C7.27195 11.8603 7.28859 11.8891 7.31035 11.9139C7.33212 11.9387 7.35857 11.959 7.3882 11.9735L7.75001 12.1544V12.4542L7.21938 12.7604L6.95976 12.6104L6.98401 12.2066C6.9864 12.1736 6.98222 12.1405 6.9717 12.1091C6.96118 12.0777 6.94454 12.0488 6.92274 12.0239C6.90094 11.999 6.87442 11.9787 6.8447 11.9641C6.81499 11.9495 6.78268 11.941 6.74965 11.939C6.71662 11.937 6.68352 11.9416 6.65227 11.9525C6.62103 11.9634 6.59226 11.9804 6.56764 12.0025C6.54302 12.0246 6.52303 12.0514 6.50883 12.0813C6.49464 12.1112 6.48652 12.1436 6.48494 12.1767L6.45891 12.6099L6.09672 12.8491C6.0693 12.8672 6.04571 12.8905 6.0273 12.9177C6.00889 12.9449 5.99603 12.9755 5.98944 13.0077C5.98286 13.0399 5.98269 13.073 5.98894 13.1053C5.99518 13.1376 6.00773 13.1683 6.02585 13.1957ZM7.46938 13.1936L8.00001 12.8873L8.53064 13.1936V13.8061L8.00001 14.1124L7.46938 13.8061V13.1936Z" fill="black"/>
<path d="M2.99278 11.3348L2.84425 11.4205L2.60675 11.2637C2.55142 11.2274 2.48395 11.2145 2.41914 11.2278C2.35432 11.2412 2.29745 11.2797 2.26099 11.3349C2.22453 11.3902 2.21145 11.4576 2.22462 11.5224C2.23779 11.5873 2.27613 11.6443 2.33125 11.6809L2.59347 11.854L2.61222 12.1677C2.61602 12.2313 2.64393 12.291 2.69026 12.3346C2.73658 12.3783 2.79783 12.4027 2.8615 12.4028C2.86653 12.4028 2.87166 12.4028 2.87675 12.4023C2.94293 12.3983 3.00483 12.3682 3.04882 12.3186C3.0928 12.269 3.11528 12.2039 3.11131 12.1378L3.09425 11.8534L3.24278 11.7676L3.60613 11.9774V12.1489L3.35144 12.2763C3.29267 12.3062 3.24812 12.3582 3.22751 12.4209C3.2069 12.4835 3.21189 12.5518 3.24139 12.6108C3.2709 12.6698 3.32252 12.7147 3.38503 12.7358C3.44753 12.7569 3.51583 12.7525 3.57506 12.7234L3.85613 12.5828L4.13722 12.7234C4.19653 12.7531 4.26519 12.758 4.32809 12.737C4.35923 12.7266 4.38803 12.7102 4.41283 12.6887C4.43763 12.6672 4.45795 12.641 4.47263 12.6116C4.48731 12.5822 4.49606 12.5503 4.49838 12.5175C4.5007 12.4848 4.49655 12.4519 4.48617 12.4207C4.47578 12.3896 4.45937 12.3608 4.43785 12.336C4.41634 12.3112 4.39015 12.2909 4.36078 12.2762L4.10625 12.1491V11.9776L4.46959 11.7678L4.61813 11.8535L4.60106 12.1379C4.59709 12.2041 4.61957 12.2691 4.66356 12.3188C4.70755 12.3684 4.76944 12.3985 4.83563 12.4024C4.84072 12.4028 4.84581 12.4029 4.85088 12.4029C4.91455 12.4028 4.97579 12.3785 5.02212 12.3348C5.06844 12.2911 5.09635 12.2314 5.10016 12.1679L5.11891 11.8542L5.38113 11.6811C5.40863 11.663 5.4323 11.6397 5.45079 11.6125C5.46927 11.5853 5.4822 11.5547 5.48885 11.5225C5.49549 11.4903 5.49571 11.4571 5.48949 11.4248C5.48327 11.3925 5.47074 11.3617 5.45262 11.3343C5.4345 11.3068 5.41113 11.2832 5.38387 11.2648C5.35661 11.2464 5.32598 11.2336 5.29375 11.227C5.26151 11.2205 5.2283 11.2204 5.19602 11.2267C5.16374 11.233 5.13302 11.2456 5.10563 11.2638L4.86813 11.4207L4.7196 11.3349V10.9152L4.86813 10.8295L5.10563 10.9863C5.13302 11.0046 5.16374 11.0172 5.19602 11.0235C5.2283 11.0298 5.26151 11.0297 5.29375 11.0231C5.32598 11.0166 5.35661 11.0037 5.38387 10.9853C5.41113 10.9669 5.4345 10.9433 5.45262 10.9159C5.47074 10.8884 5.48327 10.8577 5.48949 10.8254C5.49571 10.7931 5.49549 10.7599 5.48885 10.7277C5.4822 10.6954 5.46927 10.6649 5.45079 10.6376C5.4323 10.6104 5.40863 10.5871 5.38113 10.5691L5.11891 10.396L5.10016 10.0823C5.09838 10.0494 5.09012 10.0172 5.07584 9.98747C5.06156 9.95776 5.04155 9.93118 5.01696 9.90923C4.99237 9.88729 4.96368 9.87043 4.93255 9.85962C4.90141 9.8488 4.86845 9.84425 4.83555 9.84622C4.80265 9.8482 4.77047 9.85666 4.74085 9.87111C4.71123 9.88557 4.68477 9.90574 4.66297 9.93047C4.64118 9.95519 4.62449 9.98398 4.61387 10.0152C4.60324 10.0464 4.59889 10.0794 4.60106 10.1123L4.61813 10.3966L4.46959 10.4824L4.10625 10.2724V10.1009L4.36091 9.97363C4.39027 9.95895 4.41646 9.93863 4.43798 9.91383C4.45949 9.88903 4.47591 9.86024 4.48629 9.82909C4.49668 9.79795 4.50083 9.76506 4.49851 9.73231C4.49618 9.69956 4.48743 9.66759 4.47275 9.63823C4.45807 9.60886 4.43775 9.58267 4.41295 9.56116C4.38815 9.53964 4.35936 9.52322 4.32821 9.51284C4.29707 9.50245 4.26418 9.4983 4.23143 9.50063C4.19868 9.50295 4.16671 9.5117 4.13734 9.52638L3.85625 9.66701L3.57519 9.52638C3.51596 9.49734 3.44765 9.49288 3.38515 9.51398C3.32265 9.53508 3.27102 9.58003 3.24152 9.63903C3.21201 9.69803 3.20702 9.7663 3.22764 9.82897C3.24825 9.89163 3.29279 9.9436 3.35156 9.97357L3.60625 10.1009V10.2724L3.24291 10.4822L3.09437 10.3964L3.11144 10.1121C3.11361 10.0792 3.10926 10.0462 3.09863 10.015C3.08801 9.98379 3.07132 9.955 3.04953 9.93028C3.02773 9.90556 3.00127 9.88539 2.97165 9.87093C2.94203 9.85647 2.90985 9.84801 2.87695 9.84604C2.84405 9.84406 2.81109 9.84861 2.77995 9.85943C2.74882 9.87024 2.72013 9.88711 2.69554 9.90905C2.67095 9.93099 2.65094 9.95758 2.63666 9.98728C2.62238 10.017 2.61412 10.0492 2.61234 10.0821L2.59359 10.3958L2.33137 10.5689C2.30387 10.587 2.2802 10.6102 2.26171 10.6375C2.24323 10.6647 2.2303 10.6953 2.22366 10.7275C2.21701 10.7597 2.21679 10.7929 2.22301 10.8252C2.22923 10.8575 2.24176 10.8882 2.25988 10.9157C2.278 10.9431 2.30137 10.9667 2.32863 10.9852C2.35589 11.0036 2.38652 11.0164 2.41875 11.0229C2.45099 11.0295 2.4842 11.0296 2.51648 11.0233C2.54876 11.017 2.57948 11.0044 2.60687 10.9862L2.84437 10.8293L2.99291 10.915L2.99278 11.3348ZM3.49278 10.9152L3.85613 10.7054L4.21947 10.9152V11.3348L3.85625 11.5446L3.49291 11.3348L3.49278 10.9152Z" fill="black"/>
<path d="M11.1579 10.0976C11.1251 10.0956 11.0923 10.1002 11.0612 10.1109C11.0302 10.1216 11.0016 10.1383 10.977 10.1601C10.9525 10.1819 10.9324 10.2083 10.9181 10.2378C10.9037 10.2674 10.8953 10.2994 10.8933 10.3322L10.8746 10.6459L10.6124 10.819C10.5849 10.837 10.5612 10.8603 10.5427 10.8875C10.5242 10.9147 10.5113 10.9453 10.5047 10.9775C10.498 11.0098 10.4978 11.043 10.504 11.0753C10.5102 11.1076 10.5228 11.1383 10.5409 11.1658C10.559 11.1932 10.5824 11.2168 10.6096 11.2352C10.6369 11.2536 10.6675 11.2665 10.6998 11.273C10.732 11.2796 10.7652 11.2797 10.7975 11.2734C10.8298 11.2671 10.8605 11.2544 10.8879 11.2362L11.1254 11.0794L11.2739 11.1651V11.5847L11.1254 11.6704L10.8879 11.5136C10.8325 11.4773 10.7651 11.4644 10.7003 11.4777C10.6355 11.4911 10.5786 11.5296 10.5421 11.5848C10.5057 11.6401 10.4926 11.7075 10.5057 11.7723C10.5189 11.8372 10.5573 11.8942 10.6124 11.9308L10.8746 12.1039L10.8933 12.4176C10.8972 12.4811 10.9251 12.5409 10.9714 12.5845C11.0177 12.6282 11.079 12.6526 11.1426 12.6526C11.1477 12.6526 11.1528 12.6526 11.1579 12.6522C11.2241 12.6482 11.286 12.6181 11.3299 12.5685C11.3739 12.5189 11.3964 12.4538 11.3924 12.3876L11.3754 12.1033L11.5239 12.0175L11.8873 12.2273V12.3988L11.6326 12.5261C11.5738 12.5561 11.5293 12.6081 11.5086 12.6707C11.488 12.7334 11.493 12.8017 11.5225 12.8607C11.552 12.9197 11.6037 12.9646 11.6662 12.9857C11.7287 13.0068 11.797 13.0024 11.8562 12.9733L12.1373 12.8327L12.4183 12.9733C12.4775 13.0024 12.5458 13.0068 12.6083 12.9857C12.6708 12.9646 12.7225 12.9197 12.752 12.8607C12.7815 12.8017 12.7865 12.7334 12.7658 12.6707C12.7452 12.6081 12.7007 12.5561 12.6419 12.5261L12.3873 12.3988V12.2273L12.7506 12.0175L12.8991 12.1033L12.8821 12.3876C12.8781 12.4538 12.9006 12.5188 12.9445 12.5684C12.9885 12.618 13.0503 12.6482 13.1164 12.6522C13.1216 12.6525 13.1266 12.6526 13.1317 12.6526C13.1954 12.6526 13.2566 12.6282 13.3029 12.5845C13.3493 12.5409 13.3772 12.4812 13.381 12.4176L13.3997 12.1039L13.6619 11.9308C13.6894 11.9128 13.7131 11.8895 13.7316 11.8623C13.7501 11.8351 13.763 11.8045 13.7696 11.7722C13.7763 11.74 13.7765 11.7068 13.7703 11.6745C13.7641 11.6422 13.7515 11.6115 13.7334 11.584C13.7153 11.5566 13.6919 11.533 13.6647 11.5146C13.6374 11.4962 13.6068 11.4833 13.5745 11.4768C13.5423 11.4702 13.5091 11.4701 13.4768 11.4764C13.4445 11.4827 13.4138 11.4953 13.3864 11.5136L13.1489 11.6704L13.0004 11.5847V11.1651L13.1489 11.0794L13.3864 11.2362C13.4138 11.2544 13.4445 11.2671 13.4768 11.2734C13.5091 11.2797 13.5423 11.2796 13.5745 11.273C13.6068 11.2665 13.6374 11.2536 13.6647 11.2352C13.6919 11.2168 13.7153 11.1932 13.7334 11.1658C13.7515 11.1383 13.7641 11.1076 13.7703 11.0753C13.7765 11.043 13.7763 11.0098 13.7696 10.9775C13.763 10.9453 13.7501 10.9147 13.7316 10.8875C13.7131 10.8603 13.6894 10.837 13.6619 10.819L13.3997 10.6459L13.381 10.3322C13.3794 10.2991 13.3713 10.2667 13.3571 10.2368C13.3429 10.2069 13.3229 10.1801 13.2983 10.158C13.2737 10.1359 13.2449 10.1189 13.2137 10.108C13.1824 10.0971 13.1493 10.0925 13.1163 10.0945C13.0832 10.0965 13.0509 10.105 13.0212 10.1196C12.9915 10.1341 12.965 10.1545 12.9432 10.1794C12.9214 10.2043 12.9047 10.2332 12.8942 10.2646C12.8837 10.296 12.8795 10.3291 12.8819 10.3621L12.899 10.6465L12.7504 10.7323L12.3871 10.5225V10.3508L12.6418 10.2235C12.6714 10.209 12.6978 10.1887 12.7196 10.1639C12.7414 10.1391 12.758 10.1103 12.7686 10.079C12.7791 10.0477 12.7834 10.0147 12.7811 9.98177C12.7788 9.94886 12.77 9.91672 12.7553 9.88721C12.7405 9.8577 12.7201 9.8314 12.6951 9.80983C12.6701 9.78826 12.6412 9.77185 12.6098 9.76154C12.5785 9.75123 12.5454 9.74723 12.5125 9.74976C12.4796 9.75229 12.4475 9.76131 12.4181 9.7763L12.1371 9.91693L11.856 9.7763C11.7968 9.74726 11.7285 9.7428 11.666 9.7639C11.6035 9.785 11.5519 9.82995 11.5224 9.88895C11.4929 9.94795 11.4879 10.0162 11.5085 10.0789C11.5291 10.1415 11.5736 10.1935 11.6324 10.2235L11.8871 10.3508V10.5223L11.5238 10.7321L11.3752 10.6464L11.3923 10.362C11.3962 10.2959 11.3737 10.2309 11.3298 10.1813C11.2858 10.1317 11.224 10.1016 11.1579 10.0976ZM11.7739 11.1651L12.1373 10.9553L12.5006 11.1651V11.5847L12.1373 11.7945L11.7739 11.5847V11.1651Z" fill="black"/>
<path d="M11.3252 3C11.4633 3 11.5752 2.88807 11.5752 2.75C11.5752 2.61193 11.4633 2.5 11.3252 2.5C11.1871 2.5 11.0752 2.61193 11.0752 2.75C11.0752 2.88807 11.1871 3 11.3252 3Z" fill="black"/>
<path d="M12.25 3C12.3881 3 12.5 2.88807 12.5 2.75C12.5 2.61193 12.3881 2.5 12.25 2.5C12.1119 2.5 12 2.61193 12 2.75C12 2.88807 12.1119 3 12.25 3Z" fill="black"/>
<path d="M13.25 3C13.3881 3 13.5 2.88807 13.5 2.75C13.5 2.61193 13.3881 2.5 13.25 2.5C13.1119 2.5 13 2.61193 13 2.75C13 2.88807 13.1119 3 13.25 3Z" fill="black"/>
<path d="M8 7.25C8.0663 7.25 8.12989 7.22366 8.17678 7.17678C8.22366 7.12989 8.25 7.0663 8.25 7V6.75C8.25 6.6837 8.22366 6.62011 8.17678 6.57322C8.12989 6.52634 8.0663 6.5 8 6.5C7.9337 6.5 7.87011 6.52634 7.82322 6.57322C7.77634 6.62011 7.75 6.6837 7.75 6.75V7C7.75 7.0663 7.77634 7.12989 7.82322 7.17678C7.87011 7.22366 7.9337 7.25 8 7.25Z" fill="black"/>
<path d="M7.75 9.25C7.75 9.3163 7.77634 9.37989 7.82322 9.42678C7.87011 9.47366 7.9337 9.5 8 9.5C8.0663 9.5 8.12989 9.47366 8.17678 9.42678C8.22366 9.37989 8.25 9.3163 8.25 9.25V7.75C8.25 7.6837 8.22366 7.62011 8.17678 7.57322C8.12989 7.52634 8.0663 7.5 8 7.5C7.9337 7.5 7.87011 7.52634 7.82322 7.57322C7.77634 7.62011 7.75 7.6837 7.75 7.75V9.25Z" fill="black"/>
<path d="M5.60688 8.32508C5.52705 8.40645 5.44118 8.48166 5.35 8.55008C5.29696 8.58986 5.26189 8.64908 5.25251 8.71472C5.24314 8.78036 5.26022 8.84703 5.3 8.90008C5.33978 8.95312 5.39901 8.98819 5.46465 8.99756C5.53029 9.00694 5.59696 8.98986 5.65 8.95008C5.76143 8.86644 5.86637 8.77452 5.96394 8.67508C6.00996 8.62765 6.03534 8.56393 6.03451 8.49785C6.03368 8.43177 6.00673 8.3687 5.95953 8.32244C5.91234 8.27618 5.84875 8.25049 5.78266 8.25098C5.71658 8.25148 5.65338 8.27812 5.60688 8.32508V8.32508Z" fill="black"/>
<path d="M6.19125 7.97913C6.22134 7.99229 6.25372 7.99939 6.28656 8.00002C6.31939 8.00065 6.35202 7.9948 6.38259 7.98281C6.41316 7.97082 6.44107 7.95291 6.46471 7.93012C6.48835 7.90734 6.50727 7.88011 6.52038 7.85C6.67226 7.50319 6.75044 7.12861 6.74997 6.75C6.74997 6.6837 6.72363 6.62011 6.67675 6.57322C6.62987 6.52634 6.56628 6.5 6.49997 6.5C6.43367 6.5 6.37008 6.52634 6.3232 6.57322C6.27631 6.62011 6.24997 6.6837 6.24997 6.75C6.25037 7.05977 6.1864 7.36625 6.06213 7.65C6.03561 7.71077 6.03431 7.77958 6.05853 7.84131C6.08275 7.90303 6.13049 7.9526 6.19125 7.97913Z" fill="black"/>
<path d="M10.6499 8.55003C10.4066 8.368 10.203 8.13834 10.0514 7.87503C10.018 7.81808 9.96342 7.77664 9.8996 7.75977C9.83577 7.7429 9.76786 7.75195 9.71069 7.78496C9.65352 7.81797 9.61172 7.87225 9.59443 7.93596C9.57713 7.99967 9.58574 8.06764 9.61836 8.12503C9.80368 8.44685 10.0526 8.72755 10.3499 8.95003C10.403 8.98981 10.4696 9.00689 10.5353 8.99752C10.6009 8.98814 10.6601 8.95307 10.6999 8.90003C10.7397 8.84699 10.7568 8.78031 10.7474 8.71467C10.738 8.64904 10.703 8.58981 10.6499 8.55003V8.55003Z" fill="black"/>
<path d="M9.75 6.75C9.75 6.6837 9.72366 6.62011 9.67678 6.57322C9.62989 6.52634 9.5663 6.5 9.5 6.5C9.4337 6.5 9.37011 6.52634 9.32322 6.57322C9.27634 6.62011 9.25 6.6837 9.25 6.75C9.25004 6.93473 9.26864 7.11899 9.3055 7.3C9.31876 7.36497 9.35729 7.42201 9.4126 7.45857C9.46792 7.49514 9.5355 7.50823 9.60047 7.49497C9.66544 7.48171 9.72248 7.44318 9.75904 7.38786C9.7956 7.33255 9.8087 7.26497 9.79544 7.2C9.76525 7.0519 9.75003 6.90114 9.75 6.75V6.75Z" fill="black"/>
</svg>
