<svg width="496" height="336" viewBox="0 0 496 336" fill="none" xmlns="http://www.w3.org/2000/svg">
<g clip-path="url(#clip0_421_2035)">
<g style="mix-blend-mode:multiply" opacity="0.5">
<g style="mix-blend-mode:multiply" opacity="0.5">
<g style="mix-blend-mode:multiply" opacity="0.5">
<path d="M3.05176e-05 279.4H378.411V336H3.05176e-05V279.4Z" fill="white"/>
</g>
<g style="mix-blend-mode:multiply" opacity="0.5">
<path d="M189.557 332.045C96 331.513 20.214 320.732 20.2842 307.964C20.3543 295.196 96.2539 285.276 189.811 285.807C283.368 286.339 359.154 297.12 359.083 309.888C359.013 322.656 283.114 332.576 189.557 332.045Z" fill="white"/>
</g>
<g style="mix-blend-mode:multiply" opacity="0.5">
<path d="M190.127 331.97C96.9355 331.44 21.4457 320.696 21.5156 307.971C21.5855 295.246 97.1886 285.36 190.38 285.889C283.571 286.418 359.061 297.163 358.991 309.888C358.921 322.612 283.318 332.499 190.127 331.97Z" fill="white"/>
</g>
<g style="mix-blend-mode:multiply" opacity="0.5">
<path d="M190.712 331.879C97.8866 331.352 22.6928 320.651 22.7625 307.978C22.8321 295.305 98.1386 285.459 190.964 285.986C283.79 286.513 358.984 297.214 358.914 309.887C358.845 322.56 283.538 332.406 190.712 331.879Z" fill="white"/>
</g>
<g style="mix-blend-mode:multiply" opacity="0.5">
<path d="M188.89 329.275C96.4283 328.335 21.574 317.341 21.6981 304.72C21.8223 292.099 96.8778 282.629 189.339 283.57C281.801 284.51 356.655 295.504 356.531 308.125C356.407 320.746 281.352 330.216 188.89 329.275Z" fill="white"/>
</g>
<g style="mix-blend-mode:multiply" opacity="0.5">
<path d="M191.883 331.698C99.7887 331.175 25.1872 320.561 25.2562 307.992C25.3253 295.423 100.039 285.657 192.133 286.18C284.228 286.703 358.829 297.317 358.76 309.886C358.691 322.455 283.978 332.221 191.883 331.698Z" fill="white"/>
</g>
<g style="mix-blend-mode:multiply" opacity="0.5">
<path d="M192.453 331.623C100.733 331.102 26.4342 320.525 26.503 307.999C26.5718 295.473 100.982 285.741 192.702 286.262C284.423 286.783 358.721 297.359 358.653 309.885C358.584 322.411 284.174 332.143 192.453 331.623Z" fill="#FEFFFF"/>
</g>
<g style="mix-blend-mode:multiply" opacity="0.5">
<path d="M193.039 331.532C101.684 331.013 27.6814 320.481 27.7499 308.006C27.8185 295.532 101.932 285.841 193.287 286.359C284.642 286.878 358.644 297.411 358.576 309.885C358.507 322.359 284.394 332.051 193.039 331.532Z" fill="#FEFFFF"/>
</g>
<g style="mix-blend-mode:multiply" opacity="0.5">
<path d="M193.624 331.441C102.635 330.925 28.9284 320.436 28.9966 308.013C29.0649 295.591 102.882 285.94 193.871 286.456C284.861 286.973 358.567 297.462 358.499 309.885C358.43 322.307 284.613 331.958 193.624 331.441Z" fill="#FEFEFF"/>
</g>
<g style="mix-blend-mode:multiply" opacity="0.5">
<path d="M194.194 331.335C103.57 330.82 30.1602 320.375 30.2282 308.005C30.2961 295.634 103.816 286.023 194.44 286.538C285.064 287.052 358.474 297.498 358.406 309.868C358.338 322.239 284.818 331.85 194.194 331.335Z" fill="#FEFEFF"/>
</g>
<g style="mix-blend-mode:multiply" opacity="0.5">
<path d="M192.374 328.763C102.115 327.845 29.0428 317.115 29.1639 304.796C29.2851 292.478 102.553 283.235 192.813 284.153C283.073 285.071 356.144 295.801 356.023 308.12C355.902 320.439 282.634 329.681 192.374 328.763Z" fill="#FEFEFF"/>
</g>
<g style="mix-blend-mode:multiply" opacity="0.5">
<path d="M195.365 331.185C105.472 330.675 32.6542 320.31 32.7216 308.034C32.789 295.759 105.716 286.222 195.609 286.732C285.502 287.243 358.32 297.608 358.252 309.883C358.185 322.158 285.258 331.696 195.365 331.185Z" fill="#FDFEFF"/>
</g>
<g style="mix-blend-mode:multiply" opacity="0.5">
<path d="M195.935 331.094C106.408 330.586 33.8861 320.265 33.9533 308.041C34.0204 295.818 106.651 286.321 196.178 286.829C285.705 287.338 358.227 297.659 358.16 309.882C358.093 322.106 285.462 331.603 195.935 331.094Z" fill="#FDFEFE"/>
</g>
<g style="mix-blend-mode:multiply" opacity="0.5">
<path d="M196.52 330.989C107.367 330.482 35.1484 320.205 35.2153 308.033C35.2821 295.862 107.609 286.405 196.762 286.911C285.916 287.418 358.134 297.695 358.067 309.867C358.001 322.038 285.673 331.495 196.52 330.989Z" fill="#FDFEFE"/>
</g>
<g style="mix-blend-mode:multiply" opacity="0.5">
<path d="M197.106 330.898C108.318 330.393 36.3955 320.16 36.462 308.04C36.5286 295.92 108.559 286.504 197.347 287.008C286.134 287.513 358.057 297.746 357.99 309.866C357.924 321.986 285.893 331.402 197.106 330.898Z" fill="#FDFEFE"/>
</g>
<g style="mix-blend-mode:multiply" opacity="0.5">
<path d="M197.676 330.807C109.254 330.305 37.6273 320.115 37.6936 308.047C37.7598 295.979 109.494 286.603 197.916 287.105C286.338 287.608 357.964 297.798 357.898 309.865C357.832 321.933 286.098 331.309 197.676 330.807Z" fill="#FCFDFE"/>
</g>
<g style="mix-blend-mode:multiply" opacity="0.5">
<path d="M198.261 330.748C110.205 330.248 38.8743 320.095 38.9403 308.07C39.0064 296.045 110.444 286.703 198.5 287.203C286.557 287.703 357.887 297.856 357.821 309.881C357.755 321.906 286.318 331.248 198.261 330.748Z" fill="#FCFDFE"/>
</g>
<g style="mix-blend-mode:multiply" opacity="0.5">
<path d="M198.847 330.657C111.156 330.159 40.1215 320.05 40.1872 308.077C40.253 296.104 111.394 286.802 199.085 287.3C286.776 287.798 357.81 297.908 357.744 309.88C357.678 321.853 286.538 331.155 198.847 330.657Z" fill="#FCFDFE"/>
</g>
<g style="mix-blend-mode:multiply" opacity="0.5">
<path d="M199.417 330.551C112.091 330.055 41.353 319.989 41.4185 308.068C41.484 296.147 112.328 286.885 199.654 287.381C286.979 287.877 357.717 297.943 357.652 309.864C357.586 321.785 286.742 331.047 199.417 330.551Z" fill="#FBFDFE"/>
</g>
<g style="mix-blend-mode:multiply" opacity="0.5">
<path d="M200.002 330.46C113.051 329.967 42.6156 319.945 42.6808 308.076C42.746 296.207 113.287 286.985 200.238 287.479C287.189 287.973 357.625 297.995 357.559 309.864C357.494 321.733 286.953 330.954 200.002 330.46Z" fill="#FBFDFE"/>
</g>
<g style="mix-blend-mode:multiply" opacity="0.5">
<path d="M200.587 330.37C114.002 329.878 43.8626 319.9 43.9275 308.082C43.9924 296.265 114.237 287.084 200.822 287.576C287.408 288.068 357.547 298.046 357.482 309.863C357.417 321.68 287.173 330.861 200.587 330.37Z" fill="#FBFCFE"/>
</g>
<g style="mix-blend-mode:multiply" opacity="0.5">
<path d="M201.157 330.311C114.937 329.821 45.0944 319.879 45.159 308.105C45.2237 296.332 115.171 287.184 201.392 287.673C287.612 288.163 357.455 298.105 357.39 309.879C357.325 321.653 287.378 330.8 201.157 330.311Z" fill="#FAFCFE"/>
</g>
<g style="mix-blend-mode:multiply" opacity="0.5">
<path d="M201.743 330.22C115.888 329.732 46.3416 319.834 46.406 308.112C46.4704 296.39 116.122 287.283 201.976 287.77C287.831 288.258 357.377 298.156 357.313 309.878C357.249 321.6 287.598 330.707 201.743 330.22Z" fill="#FAFCFD"/>
</g>
<g style="mix-blend-mode:multiply" opacity="0.5">
<path d="M202.328 330.114C116.839 329.628 47.5885 319.774 47.6526 308.104C47.7167 296.434 117.071 287.367 202.56 287.852C288.049 288.338 357.3 298.192 357.236 309.862C357.172 321.532 287.817 330.599 202.328 330.114Z" fill="#FAFCFD"/>
</g>
<g style="mix-blend-mode:multiply" opacity="0.5">
<path d="M202.914 330.023C117.79 329.54 48.8357 319.729 48.8995 308.111C48.9633 296.493 118.021 287.466 203.145 287.949C288.268 288.433 357.223 298.243 357.159 309.862C357.095 321.48 288.037 330.506 202.914 330.023Z" fill="#F9FCFD"/>
</g>
<g style="mix-blend-mode:multiply" opacity="0.5">
<path d="M201.084 327.49C116.333 326.628 47.7215 316.553 47.8352 304.986C47.949 293.419 116.745 284.741 201.496 285.603C286.247 286.465 354.859 296.54 354.745 308.107C354.631 319.673 285.835 328.351 201.084 327.49Z" fill="#F9FBFD"/>
</g>
<g style="mix-blend-mode:multiply" opacity="0.5">
<path d="M204.069 329.873C119.685 329.394 51.3298 319.664 51.3931 308.14C51.4563 296.617 119.914 287.664 204.298 288.143C288.682 288.623 357.038 298.353 356.974 309.876C356.911 321.399 288.453 330.352 204.069 329.873Z" fill="#F8FBFD"/>
</g>
<g style="mix-blend-mode:multiply" opacity="0.5">
<path d="M204.654 329.783C120.636 329.305 52.5768 319.619 52.6398 308.148C52.7028 296.676 120.864 287.764 204.883 288.241C288.901 288.718 356.96 298.404 356.897 309.876C356.834 321.347 288.673 330.26 204.654 329.783Z" fill="#F8FBFD"/>
</g>
<g style="mix-blend-mode:multiply" opacity="0.5">
<path d="M205.224 329.676C121.572 329.201 53.8085 319.559 53.8712 308.139C53.9339 296.72 121.799 287.847 205.452 288.322C289.104 288.797 356.868 298.44 356.805 309.859C356.742 321.279 288.877 330.151 205.224 329.676Z" fill="#F8FAFD"/>
</g>
<g style="mix-blend-mode:multiply" opacity="0.5">
<path d="M205.81 329.585C122.523 329.112 55.0558 319.513 55.1182 308.146C55.1806 296.778 122.749 287.946 206.036 288.419C289.323 288.892 356.79 298.491 356.728 309.859C356.666 321.226 289.097 330.058 205.81 329.585Z" fill="#F7FAFC"/>
</g>
<g style="mix-blend-mode:multiply" opacity="0.5">
<path d="M206.396 329.495C123.474 329.024 56.3029 319.469 56.365 308.153C56.4272 296.837 123.699 288.046 206.621 288.517C289.542 288.988 356.713 298.543 356.651 309.859C356.589 321.174 289.317 329.966 206.396 329.495Z" fill="#F7FAFC"/>
</g>
<g style="mix-blend-mode:multiply" opacity="0.5">
<path d="M57.5862 308.122C57.5862 319.392 124.393 328.909 206.9 329.379C289.408 329.848 356.43 321.098 356.491 309.829C356.553 298.559 289.685 289.042 207.177 288.572C124.67 288.103 57.6477 296.853 57.5862 308.122Z" fill="#F6FAFC"/>
</g>
<g style="mix-blend-mode:multiply" opacity="0.5">
<path d="M207.551 329.329C125.369 328.862 58.797 319.388 58.8587 308.167C58.9203 296.947 125.592 288.229 207.774 288.695C289.956 289.162 356.528 298.637 356.466 309.857C356.405 321.078 289.733 329.796 207.551 329.329Z" fill="#F6F9FC"/>
</g>
<g style="mix-blend-mode:multiply" opacity="0.5">
<path d="M208.136 329.239C126.32 328.774 60.0441 319.343 60.1054 308.175C60.1668 297.006 126.542 288.328 208.358 288.793C290.175 289.258 356.451 298.688 356.389 309.857C356.328 321.026 289.953 329.703 208.136 329.239Z" fill="#F5F9FC"/>
</g>
<g style="mix-blend-mode:multiply" opacity="0.5">
<path d="M206.31 326.729C124.858 325.9 58.9165 316.217 59.0258 305.1C59.1352 293.983 125.254 285.642 206.706 286.47C288.158 287.298 354.1 296.982 353.991 308.099C353.881 319.216 287.762 327.557 206.31 326.729Z" fill="#F5F9FC"/>
</g>
<g style="mix-blend-mode:multiply" opacity="0.5">
<path d="M209.292 329.058C128.206 328.597 62.523 319.254 62.5838 308.189C62.6446 297.124 128.427 288.527 209.512 288.987C290.597 289.448 356.281 298.791 356.22 309.856C356.159 320.921 290.377 329.518 209.292 329.058Z" fill="#F4F9FC"/>
</g>
<g style="mix-blend-mode:multiply" opacity="0.5">
<path d="M209.877 328.982C129.157 328.524 63.7698 319.217 63.8303 308.196C63.8909 297.174 129.376 288.61 210.096 289.069C290.816 289.527 356.203 298.834 356.143 309.856C356.082 320.878 290.597 329.441 209.877 328.982Z" fill="#F4F8FB"/>
</g>
<g style="mix-blend-mode:multiply" opacity="0.5">
<path d="M210.447 328.892C130.093 328.435 65.0016 319.173 65.0619 308.203C65.1221 297.233 130.311 288.71 210.665 289.166C291.02 289.622 356.111 298.885 356.051 309.855C355.99 320.825 290.801 329.348 210.447 328.892Z" fill="#F3F8FB"/>
</g>
<g style="mix-blend-mode:multiply" opacity="0.5">
<path d="M211.032 328.801C131.052 328.347 66.264 319.128 66.324 308.21C66.3839 297.291 131.269 288.809 211.25 289.263C291.23 289.717 356.018 298.936 355.958 309.854C355.898 320.773 291.013 329.255 211.032 328.801Z" fill="#F3F8FB"/>
</g>
<g style="mix-blend-mode:multiply" opacity="0.5">
<path d="M209.224 326.304C129.608 325.495 65.1532 316.03 65.2601 305.163C65.367 294.297 129.995 286.144 209.611 286.954C289.227 287.763 353.682 297.228 353.575 308.095C353.468 318.961 288.84 327.114 209.224 326.304Z" fill="#F2F7FB"/>
</g>
<g style="mix-blend-mode:multiply" opacity="0.5">
<path d="M212.188 328.636C132.939 328.185 68.7429 319.047 68.8023 308.224C68.8618 297.401 133.154 288.992 212.403 289.442C291.652 289.892 355.848 299.031 355.789 309.854C355.729 320.677 291.437 329.086 212.188 328.636Z" fill="#F2F7FB"/>
</g>
<g style="mix-blend-mode:multiply" opacity="0.5">
<path d="M212.774 328.545C133.89 328.097 69.9902 319.002 70.0493 308.231C70.1085 297.46 134.104 289.091 212.988 289.539C291.871 289.987 355.771 299.082 355.712 309.853C355.653 320.624 291.657 328.993 212.774 328.545Z" fill="#F1F7FB"/>
</g>
<g style="mix-blend-mode:multiply" opacity="0.5">
<path d="M213.359 328.454C134.841 328.009 71.237 318.957 71.2959 308.238C71.3548 297.519 135.054 289.191 213.572 289.636C292.09 290.082 355.694 299.134 355.635 309.853C355.576 320.572 291.877 328.9 213.359 328.454Z" fill="#F1F6FA"/>
</g>
<g style="mix-blend-mode:multiply" opacity="0.5">
<path d="M211.552 325.968C133.398 325.173 70.127 315.881 70.2319 305.214C70.3368 294.546 133.778 286.543 211.932 287.337C290.085 288.132 353.356 297.424 353.251 308.092C353.147 318.759 289.705 326.763 211.552 325.968Z" fill="#F0F6FA"/>
</g>
<g style="mix-blend-mode:multiply" opacity="0.5">
<path d="M214.514 328.273C136.736 327.831 73.7312 318.867 73.7895 308.252C73.8478 297.636 136.947 289.389 214.725 289.831C292.504 290.272 355.508 299.236 355.45 309.852C355.392 320.467 292.293 328.715 214.514 328.273Z" fill="#F0F6FA"/>
</g>
<g style="mix-blend-mode:multiply" opacity="0.5">
<path d="M215.1 328.198C137.687 327.759 74.9784 318.832 75.0365 308.259C75.0945 297.687 137.897 289.473 215.31 289.912C292.723 290.352 355.431 299.279 355.373 309.851C355.315 320.424 292.512 328.638 215.1 328.198Z" fill="#EFF5FA"/>
</g>
<g style="mix-blend-mode:multiply" opacity="0.5">
<path d="M215.685 328.092C138.638 327.654 76.2255 318.771 76.2833 308.251C76.3411 297.73 138.847 289.556 215.894 289.994C292.942 290.431 355.354 299.315 355.296 309.835C355.238 320.356 292.732 328.529 215.685 328.092Z" fill="#EEF5FA"/>
</g>
<g style="mix-blend-mode:multiply" opacity="0.5">
<path d="M216.255 328.017C139.573 327.581 77.4571 318.742 77.5146 308.273C77.5721 297.804 139.782 289.671 216.463 290.106C293.145 290.542 355.261 299.381 355.204 309.85C355.146 320.319 292.937 328.452 216.255 328.017Z" fill="#EEF5FA"/>
</g>
<g style="mix-blend-mode:multiply" opacity="0.5">
<path d="M216.841 327.926C140.524 327.493 78.7043 318.697 78.7615 308.28C78.8187 297.864 140.732 289.771 217.048 290.204C293.364 290.637 355.184 299.433 355.127 309.85C355.07 320.267 293.157 328.36 216.841 327.926Z" fill="#EDF4F9"/>
</g>
<g style="mix-blend-mode:multiply" opacity="0.5">
<path d="M217.426 327.835C141.475 327.404 79.9512 318.652 80.0081 308.287C80.065 297.922 141.681 289.87 217.632 290.301C293.583 290.732 355.107 299.484 355.05 309.849C354.993 320.214 293.376 328.267 217.426 327.835Z" fill="#EDF4F9"/>
</g>
<g style="mix-blend-mode:multiply" opacity="0.5">
<path d="M217.996 327.761C142.411 327.332 81.1829 318.616 81.2396 308.295C81.2963 297.973 142.616 289.954 218.201 290.383C293.786 290.812 355.014 299.527 354.957 309.849C354.901 320.171 293.581 328.19 217.996 327.761Z" fill="#ECF3F9"/>
</g>
<g style="mix-blend-mode:multiply" opacity="0.5">
<path d="M218.581 327.655C143.37 327.227 82.4456 318.556 82.502 308.286C82.5584 298.016 143.575 290.037 218.786 290.464C293.997 290.892 354.922 299.563 354.865 309.833C354.809 320.103 293.792 328.082 218.581 327.655Z" fill="#EBF3F9"/>
</g>
<g style="mix-blend-mode:multiply" opacity="0.5">
<path d="M219.167 327.579C144.321 327.154 83.6925 318.526 83.7486 308.309C83.8047 298.091 144.524 290.152 219.37 290.577C294.215 291.002 354.844 299.63 354.788 309.848C354.732 320.066 294.012 328.004 219.167 327.579Z" fill="#EBF3F9"/>
</g>
<g style="mix-blend-mode:multiply" opacity="0.5">
<path d="M219.737 327.488C145.257 327.066 84.9243 318.481 84.9801 308.315C85.036 298.149 145.459 290.251 219.939 290.674C294.419 291.097 354.752 299.681 354.696 309.847C354.64 320.013 294.217 327.911 219.737 327.488Z" fill="#EAF2F8"/>
</g>
<g style="mix-blend-mode:multiply" opacity="0.5">
<path d="M217.934 325.031C143.818 324.278 83.8166 315.467 83.9161 305.353C84.0155 295.239 144.179 287.65 218.294 288.404C292.41 289.158 352.412 297.968 352.312 308.082C352.213 318.197 292.049 325.785 217.934 325.031Z" fill="#EAF2F8"/>
</g>
<g style="mix-blend-mode:multiply" opacity="0.5">
<path d="M218.52 324.959C144.77 324.209 85.0637 315.437 85.1627 305.366C85.2618 295.295 145.128 287.738 218.878 288.488C292.628 289.238 352.334 298.01 352.235 308.082C352.136 318.153 292.269 325.709 218.52 324.959Z" fill="#E9F2F8"/>
</g>
<g style="mix-blend-mode:multiply" opacity="0.5">
<path d="M221.478 327.217C148.094 326.8 88.6502 318.34 88.7052 308.321C88.7603 298.302 148.294 290.518 221.677 290.935C295.06 291.352 354.504 299.812 354.449 309.831C354.394 319.85 294.861 327.634 221.478 327.217Z" fill="#E8F1F8"/>
</g>
<g style="mix-blend-mode:multiply" opacity="0.5">
<path d="M222.063 327.126C149.054 326.712 89.9125 318.296 89.9673 308.328C90.022 298.361 149.252 290.617 222.261 291.032C295.27 291.447 354.412 299.863 354.357 309.83C354.302 319.797 295.072 327.541 222.063 327.126Z" fill="#E8F1F7"/>
</g>
<g style="mix-blend-mode:multiply" opacity="0.5">
<path d="M222.648 327.051C150.005 326.639 91.1597 318.266 91.2141 308.351C91.2686 298.436 150.202 290.732 222.846 291.145C295.489 291.557 354.335 299.93 354.28 309.845C354.226 319.76 295.292 327.464 222.648 327.051Z" fill="#E7F0F7"/>
</g>
<g style="mix-blend-mode:multiply" opacity="0.5">
<path d="M223.218 326.961C150.94 326.55 92.3913 318.222 92.4455 308.358C92.4996 298.495 151.137 290.832 223.415 291.242C295.693 291.653 354.242 299.981 354.188 309.845C354.133 319.708 295.496 327.371 223.218 326.961Z" fill="#E6F0F7"/>
</g>
<g style="mix-blend-mode:multiply" opacity="0.5">
<path d="M223.804 326.87C151.891 326.462 93.6384 318.17 93.6923 308.349C93.7463 298.529 152.087 290.899 223.999 291.308C295.912 291.716 354.165 300.008 354.111 309.828C354.057 319.649 295.716 327.279 223.804 326.87Z" fill="#E6EFF7"/>
</g>
<g style="mix-blend-mode:multiply" opacity="0.5">
<path d="M94.9147 308.326C94.9147 318.093 152.824 326.342 224.356 326.749C295.888 327.156 353.952 319.58 353.952 309.813C353.952 300.046 296.058 291.797 224.51 291.374C152.963 290.952 94.9763 298.559 94.9147 308.326Z" fill="#E5EFF7"/>
</g>
<g style="mix-blend-mode:multiply" opacity="0.5">
<path d="M224.959 326.689C153.778 326.285 96.1174 318.08 96.1708 308.364C96.2241 298.647 153.971 291.098 225.153 291.502C296.334 291.907 353.995 300.111 353.941 309.828C353.888 319.544 296.141 327.093 224.959 326.689Z" fill="#E4EFF6"/>
</g>
<g style="mix-blend-mode:multiply" opacity="0.5">
<path d="M225.545 326.614C154.737 326.212 97.3797 318.051 97.4328 308.386C97.4859 298.722 154.93 291.213 225.737 291.615C296.544 292.017 353.902 300.178 353.849 309.843C353.796 319.507 296.352 327.016 225.545 326.614Z" fill="#E4EEF6"/>
</g>
<g style="mix-blend-mode:multiply" opacity="0.5">
<path d="M226.13 326.524C155.688 326.124 98.6267 318.007 98.6795 308.394C98.7323 298.781 155.88 291.313 226.321 291.713C296.763 292.113 353.825 300.23 353.772 309.842C353.719 319.455 296.572 326.924 226.13 326.524Z" fill="#E3EEF6"/>
</g>
<g style="mix-blend-mode:multiply" opacity="0.5">
<path d="M226.716 326.433C156.639 326.035 99.874 317.955 99.9265 308.385C99.9791 298.815 156.83 291.38 226.906 291.778C296.982 292.176 353.748 300.257 353.695 309.826C353.643 319.396 296.792 326.831 226.716 326.433Z" fill="#E2EDF6"/>
</g>
<g style="mix-blend-mode:multiply" opacity="0.5">
<path d="M227.286 326.342C157.575 325.946 101.106 317.91 101.158 308.392C101.21 298.874 157.764 291.48 227.475 291.875C297.186 292.271 353.655 300.308 353.603 309.826C353.55 319.343 296.996 326.738 227.286 326.342Z" fill="#E1EDF6"/>
</g>
<g style="mix-blend-mode:multiply" opacity="0.5">
<path d="M227.871 326.251C158.526 325.857 102.353 317.865 102.405 308.399C102.457 298.933 158.714 291.579 228.059 291.972C297.405 292.366 353.578 300.359 353.526 309.825C353.474 319.291 297.216 326.645 227.871 326.251Z" fill="#E1ECF5"/>
</g>
<g style="mix-blend-mode:multiply" opacity="0.5">
<path d="M228.456 326.176C159.477 325.785 103.6 317.836 103.651 308.422C103.703 299.008 159.664 291.694 228.644 292.086C297.623 292.477 353.5 300.426 353.449 309.84C353.397 319.254 297.436 326.568 228.456 326.176Z" fill="#E0ECF5"/>
</g>
<g style="mix-blend-mode:multiply" opacity="0.5">
<path d="M104.874 308.373C104.874 317.765 160.397 325.591 229.005 326.045C297.612 326.499 353.274 319.205 353.336 309.813C353.397 300.421 297.813 292.595 229.19 292.141C160.567 291.687 104.92 299.013 104.874 308.373Z" fill="#DFECF5"/>
</g>
<g style="mix-blend-mode:multiply" opacity="0.5">
<path d="M227.23 323.67C158.989 322.976 103.743 314.859 103.834 305.54C103.926 296.221 159.321 289.229 227.562 289.923C295.803 290.617 351.049 298.734 350.957 308.053C350.865 317.372 295.471 324.364 227.23 323.67Z" fill="#DFEBF5"/>
</g>
<g style="mix-blend-mode:multiply" opacity="0.5">
<path d="M230.197 325.905C162.323 325.519 107.341 317.694 107.392 308.427C107.443 299.16 162.507 291.961 230.382 292.346C298.256 292.731 353.238 300.556 353.187 309.823C353.136 319.09 298.072 326.29 230.197 325.905Z" fill="#DEEBF4"/>
</g>
<g style="mix-blend-mode:multiply" opacity="0.5">
<path d="M230.767 325.814C163.259 325.431 108.573 317.649 108.623 308.434C108.674 299.219 163.442 292.06 230.951 292.443C298.46 292.826 353.145 300.608 353.095 309.823C353.044 319.038 298.276 326.197 230.767 325.814Z" fill="#DDEAF4"/>
</g>
<g style="mix-blend-mode:multiply" opacity="0.5">
<path d="M231.353 325.739C164.209 325.358 109.82 317.62 109.87 308.457C109.921 299.294 164.392 292.175 231.535 292.556C298.678 292.937 353.068 300.675 353.018 309.838C352.967 319.001 298.496 326.121 231.353 325.739Z" fill="#DCEAF4"/>
</g>
<g style="mix-blend-mode:multiply" opacity="0.5">
<path d="M231.938 325.664C165.16 325.285 111.067 317.584 111.117 308.464C111.167 299.344 165.342 292.258 232.119 292.638C298.897 293.017 352.991 300.717 352.941 309.838C352.89 318.958 298.716 326.043 231.938 325.664Z" fill="#DCE9F4"/>
</g>
<g style="mix-blend-mode:multiply" opacity="0.5">
<path d="M230.128 323.246C163.715 322.57 109.949 314.671 110.038 305.603C110.127 296.535 164.038 289.731 230.451 290.406C296.864 291.081 350.63 298.98 350.541 308.049C350.452 317.117 296.541 323.921 230.128 323.246Z" fill="#DBE9F3"/>
</g>
<g style="mix-blend-mode:multiply" opacity="0.5">
<path d="M233.094 325.467C167.055 325.092 113.561 317.479 113.611 308.462C113.66 299.446 167.235 292.441 233.273 292.816C299.311 293.191 352.805 300.804 352.756 309.821C352.706 318.837 299.132 325.842 233.094 325.467Z" fill="#DAE8F3"/>
</g>
<g style="mix-blend-mode:multiply" opacity="0.5">
<path d="M114.834 308.436C114.834 317.405 167.971 324.965 233.654 325.341C299.337 325.716 352.612 318.766 352.659 309.797C352.705 300.828 299.506 293.252 233.838 292.877C168.171 292.501 114.88 299.467 114.834 308.436Z" fill="#D9E8F3"/>
</g>
<g style="mix-blend-mode:multiply" opacity="0.5">
<path d="M234.249 325.301C168.942 324.931 116.04 317.405 116.089 308.492C116.138 299.58 169.119 292.655 234.426 293.026C299.733 293.397 352.635 300.923 352.586 309.835C352.537 318.748 299.556 325.672 234.249 325.301Z" fill="#D8E7F3"/>
</g>
<g style="mix-blend-mode:multiply" opacity="0.5">
<path d="M117.312 308.451C117.312 317.31 169.88 324.792 234.808 325.168C299.737 325.544 352.412 318.657 352.412 309.813C352.412 300.969 299.86 293.456 234.916 293.08C169.972 292.704 117.358 299.576 117.312 308.451Z" fill="#D8E7F2"/>
</g>
<g style="mix-blend-mode:multiply" opacity="0.5">
<path d="M235.42 325.12C170.844 324.754 118.534 317.308 118.583 308.491C118.631 299.673 171.019 292.823 235.595 293.189C300.171 293.556 352.481 301.002 352.433 309.819C352.384 318.637 299.996 325.487 235.42 325.12Z" fill="#D7E6F2"/>
</g>
<g style="mix-blend-mode:multiply" opacity="0.5">
<path d="M235.99 325.03C171.779 324.665 119.766 317.263 119.814 308.498C119.862 299.732 171.954 292.922 236.164 293.286C300.374 293.651 352.388 301.053 352.34 309.818C352.292 318.584 300.2 325.394 235.99 325.03Z" fill="#D6E6F2"/>
</g>
<g style="mix-blend-mode:multiply" opacity="0.5">
<path d="M236.575 324.939C172.739 324.577 121.028 317.219 121.076 308.505C121.124 299.792 172.912 293.022 236.749 293.384C300.585 293.747 352.296 301.104 352.248 309.818C352.2 318.532 300.412 325.302 236.575 324.939Z" fill="#D5E5F2"/>
</g>
<g style="mix-blend-mode:multiply" opacity="0.5">
<path d="M237.161 324.849C173.69 324.488 122.275 317.174 122.323 308.512C122.37 299.85 173.862 293.121 237.333 293.481C300.804 293.842 352.218 301.156 352.171 309.818C352.123 318.479 300.631 325.209 237.161 324.849Z" fill="#D4E5F1"/>
</g>
<g style="mix-blend-mode:multiply" opacity="0.5">
<path d="M237.746 324.773C174.641 324.415 123.522 317.138 123.57 308.519C123.617 299.9 174.812 293.204 237.917 293.563C301.023 293.921 352.141 301.198 352.094 309.817C352.046 318.436 300.851 325.132 237.746 324.773Z" fill="#D4E4F1"/>
</g>
<g style="mix-blend-mode:multiply" opacity="0.5">
<path d="M124.777 308.483C124.777 317.045 175.575 324.292 238.302 324.652C301.03 325.012 351.935 318.391 351.981 309.782C352.027 301.173 301.184 293.988 238.472 293.628C175.76 293.268 124.824 299.921 124.777 308.483Z" fill="#D3E4F1"/>
</g>
<g style="mix-blend-mode:multiply" opacity="0.5">
<path d="M126.024 308.498C126.024 317.013 176.499 324.151 238.872 324.558C301.245 324.965 351.858 318.297 351.904 309.782C351.95 301.267 301.415 294.129 239.041 293.722C176.668 293.315 126.132 299.983 126.024 308.498Z" fill="#D2E3F0"/>
</g>
<g style="mix-blend-mode:multiply" opacity="0.5">
<path d="M239.487 324.502C177.478 324.15 127.248 317.004 127.295 308.541C127.341 300.078 177.647 293.502 239.655 293.855C301.664 294.207 351.894 301.353 351.847 309.816C351.801 318.279 301.495 324.854 239.487 324.502Z" fill="#D1E3F0"/>
</g>
<g style="mix-blend-mode:multiply" opacity="0.5">
<path d="M240.057 324.411C178.414 324.061 128.48 316.959 128.526 308.548C128.572 300.136 178.581 293.601 240.224 293.952C301.867 294.302 351.801 301.404 351.755 309.815C351.709 318.226 301.7 324.761 240.057 324.411Z" fill="#D0E2F0"/>
</g>
<g style="mix-blend-mode:multiply" opacity="0.5">
<path d="M240.642 324.336C179.373 323.988 129.742 316.923 129.788 308.555C129.834 300.187 179.54 293.685 240.809 294.033C302.078 294.381 351.709 301.447 351.663 309.815C351.617 318.183 301.911 324.684 240.642 324.336Z" fill="#CFE2F0"/>
</g>
<g style="mix-blend-mode:multiply" opacity="0.5">
<path d="M241.228 324.245C180.324 323.899 130.99 316.877 131.035 308.561C131.081 300.245 180.49 293.784 241.393 294.13C302.297 294.476 351.631 301.498 351.586 309.814C351.54 318.13 302.131 324.591 241.228 324.245Z" fill="#CEE1EF"/>
</g>
<g style="mix-blend-mode:multiply" opacity="0.5">
<path d="M239.424 321.884C178.885 321.268 129.875 314.07 129.956 305.805C130.037 297.541 179.179 291.341 239.718 291.956C300.257 292.572 349.267 299.77 349.186 308.035C349.105 316.299 299.963 322.5 239.424 321.884Z" fill="#CEE1EF"/>
</g>
<g style="mix-blend-mode:multiply" opacity="0.5">
<path d="M240.01 321.796C179.837 321.184 131.122 314.031 131.203 305.818C131.284 297.606 180.129 291.444 240.302 292.056C300.475 292.668 349.19 299.822 349.109 308.034C349.028 316.247 300.183 322.408 240.01 321.796Z" fill="#CDE0EF"/>
</g>
<g style="mix-blend-mode:multiply" opacity="0.5">
<path d="M242.969 323.958C183.162 323.618 134.716 316.727 134.76 308.567C134.805 300.406 183.324 294.066 243.131 294.406C302.938 294.746 351.384 301.636 351.339 309.797C351.295 317.957 302.775 324.297 242.969 323.958Z" fill="#CCE0EF"/>
</g>
<g style="mix-blend-mode:multiply" opacity="0.5">
<path d="M243.539 323.899C184.097 323.561 135.947 316.707 135.992 308.59C136.036 300.473 184.259 294.166 243.7 294.504C303.141 294.841 351.291 301.695 351.247 309.812C351.202 317.93 302.98 324.236 243.539 323.899Z" fill="#CBDFEE"/>
</g>
<g style="mix-blend-mode:multiply" opacity="0.5">
<path d="M244.124 323.808C185.057 323.473 137.21 316.662 137.254 308.597C137.298 300.531 185.217 294.265 244.284 294.601C303.352 294.936 351.199 301.746 351.155 309.812C351.11 317.877 303.191 324.144 244.124 323.808Z" fill="#CADFEE"/>
</g>
<g style="mix-blend-mode:multiply" opacity="0.5">
<path d="M244.709 323.717C186.008 323.384 138.457 316.617 138.501 308.604C138.545 300.59 186.167 294.364 244.869 294.698C303.57 295.031 351.122 301.797 351.078 309.811C351.034 317.825 303.411 324.051 244.709 323.717Z" fill="#C9DEEE"/>
</g>
<g style="mix-blend-mode:multiply" opacity="0.5">
<path d="M242.908 321.371C184.571 320.778 137.343 313.843 137.422 305.881C137.5 297.919 184.855 291.946 243.192 292.539C301.528 293.132 348.756 300.068 348.678 308.029C348.6 315.991 301.245 321.965 242.908 321.371Z" fill="#C8DEED"/>
</g>
<g style="mix-blend-mode:multiply" opacity="0.5">
<path d="M245.865 323.52C187.895 323.191 140.936 316.512 140.979 308.602C141.023 300.693 188.052 294.547 246.022 294.877C303.993 295.206 350.952 301.885 350.908 309.795C350.865 317.704 303.835 323.85 245.865 323.52Z" fill="#C7DDED"/>
</g>
<g style="mix-blend-mode:multiply" opacity="0.5">
<path d="M246.45 323.461C188.845 323.134 142.182 316.491 142.226 308.625C142.269 300.758 189.002 294.646 246.607 294.974C304.212 295.301 350.874 301.943 350.831 309.81C350.788 317.676 304.055 323.788 246.45 323.461Z" fill="#C6DCED"/>
</g>
<g style="mix-blend-mode:multiply" opacity="0.5">
<path d="M244.65 321.123C187.41 320.541 141.07 313.734 141.147 305.919C141.224 298.104 187.688 292.241 244.928 292.823C302.169 293.405 348.508 300.212 348.432 308.027C348.355 315.842 301.89 321.705 244.65 321.123Z" fill="#C6DCED"/>
</g>
<g style="mix-blend-mode:multiply" opacity="0.5">
<path d="M144.696 308.592C144.696 316.419 190.722 322.914 247.585 323.243C304.447 323.572 350.596 317.546 350.719 309.782C350.842 302.018 304.693 295.46 247.815 295.131C190.937 294.802 144.743 300.829 144.696 308.592Z" fill="#C5DBEC"/>
</g>
<g style="mix-blend-mode:multiply" opacity="0.5">
<path d="M248.191 323.19C191.692 322.869 145.924 316.358 145.966 308.647C146.009 300.936 191.845 294.945 248.345 295.266C304.844 295.587 350.612 302.098 350.57 309.809C350.527 317.52 304.691 323.51 248.191 323.19Z" fill="#C4DBEC"/>
</g>
<g style="mix-blend-mode:multiply" opacity="0.5">
<path d="M147.175 308.608C147.175 316.277 192.615 322.695 248.77 323.071C304.924 323.446 350.365 317.436 350.488 309.782C350.611 302.127 305.047 295.694 248.893 295.318C192.738 294.943 147.221 300.938 147.175 308.608Z" fill="#C3DAEC"/>
</g>
<g style="mix-blend-mode:multiply" opacity="0.5">
<path d="M249.347 323.008C193.578 322.691 148.403 316.261 148.445 308.645C148.486 301.029 193.73 295.112 249.498 295.428C305.267 295.745 350.442 302.176 350.4 309.792C350.359 317.408 305.115 323.325 249.347 323.008Z" fill="#C2DAEB"/>
</g>
<g style="mix-blend-mode:multiply" opacity="0.5">
<path d="M247.563 320.699C192.16 320.135 147.306 313.547 147.381 305.983C147.455 298.418 192.429 292.743 247.833 293.307C303.237 293.87 348.09 300.459 348.016 308.023C347.941 315.587 302.967 321.262 247.563 320.699Z" fill="#C1D9EB"/>
</g>
<g style="mix-blend-mode:multiply" opacity="0.5">
<path d="M150.915 308.623C150.915 316.137 195.448 322.492 250.494 322.805C305.54 323.118 350.165 317.279 350.211 309.766C350.257 302.253 305.678 295.913 250.632 295.6C195.586 295.287 150.961 301.11 150.915 308.623Z" fill="#C0D8EB"/>
</g>
<g style="mix-blend-mode:multiply" opacity="0.5">
<path d="M251.087 322.752C196.416 322.441 152.129 316.142 152.17 308.681C152.21 301.221 196.564 295.425 251.236 295.736C305.908 296.046 350.195 302.346 350.154 309.806C350.113 317.266 305.759 323.062 251.087 322.752Z" fill="#BFD8EA"/>
</g>
<g style="mix-blend-mode:multiply" opacity="0.5">
<path d="M251.673 322.661C197.375 322.353 153.391 316.09 153.432 308.673C153.472 301.256 197.523 295.493 251.82 295.802C306.118 296.11 350.102 302.373 350.061 309.79C350.021 317.207 305.971 322.969 251.673 322.661Z" fill="#BED7EA"/>
</g>
<g style="mix-blend-mode:multiply" opacity="0.5">
<path d="M252.258 322.571C198.326 322.264 154.638 316.045 154.679 308.68C154.719 301.315 198.473 295.593 252.405 295.899C306.337 296.205 350.025 302.424 349.985 309.789C349.944 317.155 306.191 322.877 252.258 322.571Z" fill="#BDD7EA"/>
</g>
<g style="mix-blend-mode:multiply" opacity="0.5">
<path d="M155.887 308.655C155.887 315.964 199.25 322.147 252.864 322.46C306.479 322.773 349.842 317.076 349.919 309.766C349.996 302.456 306.571 296.273 252.941 295.976C199.311 295.679 155.933 301.345 155.887 308.655Z" fill="#BCD6E9"/>
</g>
<g style="mix-blend-mode:multiply" opacity="0.5">
<path d="M253.414 322.405C200.213 322.103 157.117 315.972 157.157 308.71C157.197 301.449 200.357 295.807 253.558 296.109C306.759 296.411 349.855 302.543 349.815 309.804C349.775 317.066 306.615 322.707 253.414 322.405Z" fill="#BBD5E9"/>
</g>
<g style="mix-blend-mode:multiply" opacity="0.5">
<path d="M253.999 322.299C201.163 321.999 158.364 315.911 158.403 308.701C158.443 301.492 201.307 295.891 254.142 296.191C306.978 296.491 349.778 302.578 349.738 309.788C349.699 316.998 306.835 322.599 253.999 322.299Z" fill="#BAD5E9"/>
</g>
<g style="mix-blend-mode:multiply" opacity="0.5">
<path d="M254.569 322.224C202.099 321.926 159.596 315.875 159.635 308.708C159.674 301.542 202.242 295.974 254.712 296.272C307.182 296.57 349.685 302.621 349.646 309.787C349.606 316.954 307.039 322.522 254.569 322.224Z" fill="#B9D4E9"/>
</g>
<g style="mix-blend-mode:multiply" opacity="0.5">
<path d="M255.155 322.133C203.059 321.837 160.858 315.83 160.897 308.715C160.936 301.601 203.2 296.073 255.296 296.369C307.392 296.665 349.593 302.672 349.554 309.787C349.514 316.901 307.251 322.429 255.155 322.133Z" fill="#B8D4E8"/>
</g>
<g style="mix-blend-mode:multiply" opacity="0.5">
<path d="M255.74 322.058C204.01 321.764 162.105 315.801 162.144 308.738C162.183 301.676 204.15 296.188 255.88 296.482C307.611 296.776 349.515 302.74 349.476 309.802C349.438 316.865 307.47 322.352 255.74 322.058Z" fill="#B7D3E8"/>
</g>
<g style="mix-blend-mode:multiply" opacity="0.5">
<path d="M256.31 321.967C204.945 321.676 163.337 315.756 163.376 308.745C163.414 301.734 205.085 296.288 256.45 296.579C307.814 296.871 349.423 302.791 349.384 309.802C349.346 316.812 307.675 322.259 256.31 321.967Z" fill="#B6D2E8"/>
</g>
<g style="mix-blend-mode:multiply" opacity="0.5">
<path d="M256.895 321.862C205.896 321.572 164.584 315.696 164.622 308.737C164.66 301.778 206.034 296.371 257.034 296.661C308.033 296.951 349.345 302.827 349.307 309.786C349.269 316.745 307.895 322.151 256.895 321.862Z" fill="#B5D2E7"/>
</g>
<g style="mix-blend-mode:multiply" opacity="0.5">
<path d="M257.481 321.786C206.847 321.499 165.831 315.659 165.869 308.744C165.907 301.828 206.985 296.455 257.618 296.743C308.252 297.03 349.268 302.869 349.23 309.785C349.192 316.701 308.114 322.074 257.481 321.786Z" fill="#B4D1E7"/>
</g>
<g style="mix-blend-mode:multiply" opacity="0.5">
<path d="M258.051 321.696C207.783 321.41 167.063 315.614 167.101 308.751C167.138 301.887 207.919 296.554 258.187 296.84C308.456 297.125 349.175 302.921 349.138 309.784C349.1 316.648 308.319 321.981 258.051 321.696Z" fill="#B3D1E7"/>
</g>
<g style="mix-blend-mode:multiply" opacity="0.5">
<path d="M258.636 321.621C208.742 321.338 168.325 315.586 168.363 308.774C168.4 301.962 208.878 296.669 258.772 296.953C308.666 297.236 349.083 302.988 349.045 309.8C349.008 316.612 308.53 321.904 258.636 321.621Z" fill="#B2D0E6"/>
</g>
<g style="mix-blend-mode:multiply" opacity="0.5">
<path d="M169.587 308.733C169.587 315.495 209.609 321.255 259.191 321.49C308.772 321.725 348.918 316.528 348.949 309.766C348.979 303.004 308.926 297.244 259.329 297.009C209.733 296.774 169.618 301.987 169.587 308.733Z" fill="#B1CFE6"/>
</g>
<g style="mix-blend-mode:multiply" opacity="0.5">
<path d="M170.772 308.733C170.772 315.448 210.564 321.114 259.73 321.396C308.896 321.678 348.779 316.466 348.826 309.766C348.872 303.067 309.034 297.385 259.868 297.103C210.702 296.822 170.865 301.987 170.772 308.733Z" fill="#B0CFE6"/>
</g>
<g style="mix-blend-mode:multiply" opacity="0.5">
<path d="M260.377 321.349C211.58 321.072 172.051 315.444 172.088 308.779C172.125 302.114 211.712 296.936 260.51 297.213C309.307 297.49 348.836 303.118 348.799 309.783C348.763 316.448 309.175 321.626 260.377 321.349Z" fill="#AFCEE5"/>
</g>
<g style="mix-blend-mode:multiply" opacity="0.5">
<path d="M173.312 308.749C173.312 315.37 212.503 320.942 260.946 321.271C309.388 321.6 348.687 316.419 348.687 309.798C348.687 303.177 309.481 297.604 261.053 297.276C212.626 296.947 173.358 302.144 173.312 308.749Z" fill="#AECDE5"/>
</g>
<g style="mix-blend-mode:multiply" opacity="0.5">
<path d="M261.548 321.183C213.481 320.911 174.545 315.37 174.581 308.809C174.617 302.248 213.612 297.15 261.678 297.423C309.745 297.696 348.681 303.236 348.645 309.798C348.609 316.359 309.614 321.456 261.548 321.183Z" fill="#ADCDE5"/>
</g>
<g style="mix-blend-mode:multiply" opacity="0.5">
<path d="M262.118 321.077C214.417 320.806 175.777 315.31 175.813 308.8C175.849 302.291 214.547 297.234 262.247 297.505C309.948 297.776 348.588 303.272 348.553 309.781C348.517 316.291 309.819 321.348 262.118 321.077Z" fill="#ACCCE4"/>
</g>
<g style="mix-blend-mode:multiply" opacity="0.5">
<path d="M262.704 320.986C215.377 320.718 177.04 315.265 177.075 308.807C177.111 302.35 215.505 297.333 262.832 297.602C310.159 297.87 348.496 303.323 348.46 309.781C348.425 316.238 310.03 321.255 262.704 320.986Z" fill="#ABCCE4"/>
</g>
<g style="mix-blend-mode:multiply" opacity="0.5">
<path d="M178.284 308.78C178.284 315.198 216.305 320.613 263.255 320.88C310.204 321.146 348.318 316.184 348.364 309.75C348.41 303.317 310.358 297.933 263.393 297.651C216.429 297.369 178.33 302.362 178.284 308.78Z" fill="#AACBE4"/>
</g>
<g style="mix-blend-mode:multiply" opacity="0.5">
<path d="M179.531 308.78C179.531 315.151 217.244 320.519 263.84 320.786C310.435 321.052 348.241 316.09 348.271 309.75C348.302 303.411 310.574 298.027 263.963 297.745C217.352 297.463 179.577 302.425 179.531 308.78Z" fill="#A9CAE3"/>
</g>
<g style="mix-blend-mode:multiply" opacity="0.5">
<path d="M180.778 308.796C180.778 315.057 218.199 320.441 264.425 320.707C310.65 320.974 348.164 316.012 348.195 309.751C348.225 303.49 310.774 298.105 264.548 297.839C218.322 297.573 180.809 302.488 180.778 308.796Z" fill="#A8CAE3"/>
</g>
<g style="mix-blend-mode:multiply" opacity="0.5">
<path d="M265.03 320.639C219.165 320.379 182.013 315.094 182.047 308.835C182.081 302.577 219.29 297.714 265.154 297.975C311.019 298.235 348.171 303.52 348.137 309.779C348.103 316.037 310.894 320.9 265.03 320.639Z" fill="#A7C9E3"/>
</g>
<g style="mix-blend-mode:multiply" opacity="0.5">
<path d="M265.6 320.549C220.101 320.291 183.244 315.05 183.278 308.843C183.312 302.636 220.224 297.814 265.723 298.072C311.222 298.331 348.079 303.572 348.045 309.778C348.011 315.985 311.099 320.807 265.6 320.549Z" fill="#A6C8E2"/>
</g>
<g style="mix-blend-mode:multiply" opacity="0.5">
<path d="M184.518 308.811C184.518 314.978 221.031 320.175 266.102 320.441C311.174 320.707 347.84 315.917 347.871 309.75C347.902 303.583 311.358 298.386 266.287 298.12C221.216 297.854 184.549 302.66 184.518 308.811Z" fill="#A4C8E2"/>
</g>
<g style="mix-blend-mode:multiply" opacity="0.5">
<path d="M266.77 320.383C222.011 320.129 185.754 314.968 185.787 308.857C185.821 302.745 222.133 297.996 266.892 298.251C311.651 298.505 347.909 303.665 347.875 309.777C347.842 315.889 311.53 320.637 266.77 320.383Z" fill="#A3C7E2"/>
</g>
<g style="mix-blend-mode:multiply" opacity="0.5">
<path d="M267.341 320.293C222.947 320.041 186.985 314.924 187.019 308.864C187.052 302.804 223.067 298.096 267.461 298.348C311.855 298.6 347.816 303.717 347.783 309.777C347.75 315.837 311.734 320.545 267.341 320.293Z" fill="#A2C6E1"/>
</g>
<g style="mix-blend-mode:multiply" opacity="0.5">
<path d="M267.926 320.202C223.898 319.952 188.233 314.879 188.266 308.871C188.299 302.863 224.017 298.195 268.045 298.445C312.074 298.695 347.739 303.768 347.706 309.776C347.673 315.784 311.954 320.452 267.926 320.202Z" fill="#A1C6E1"/>
</g>
<g style="mix-blend-mode:multiply" opacity="0.5">
<path d="M189.491 308.843C189.491 314.806 224.895 319.8 268.489 320.081C312.082 320.363 347.563 315.714 347.594 309.751C347.625 303.787 312.267 298.794 268.612 298.496C224.957 298.199 189.521 302.879 189.491 308.843Z" fill="#A0C5E0"/>
</g>
<g style="mix-blend-mode:multiply" opacity="0.5">
<path d="M190.784 308.843C190.784 314.759 225.819 319.799 269.12 320.003C312.421 320.206 347.533 315.651 347.625 309.75C347.717 303.849 312.59 298.794 269.289 298.59C225.988 298.387 190.784 302.942 190.784 308.843Z" fill="#9FC4E0"/>
</g>
<g style="mix-blend-mode:multiply" opacity="0.5">
<path d="M191.984 308.858C191.984 314.713 226.727 319.659 269.643 319.909C312.559 320.16 347.394 315.605 347.44 309.751C347.487 303.896 312.698 298.935 269.766 298.684C226.835 298.434 192.015 302.989 191.984 308.858Z" fill="#9EC4E0"/>
</g>
<g style="mix-blend-mode:multiply" opacity="0.5">
<path d="M193.231 308.858C193.231 314.665 227.666 319.58 270.197 319.815C312.729 320.05 347.286 315.542 347.317 309.735C347.348 303.928 312.867 299.013 270.351 298.778C227.835 298.543 193.262 303.051 193.231 308.858Z" fill="#9DC3DF"/>
</g>
<g style="mix-blend-mode:multiply" opacity="0.5">
<path d="M270.838 319.765C228.646 319.525 194.468 314.664 194.5 308.906C194.531 303.149 228.76 298.676 270.952 298.916C313.144 299.155 347.322 304.017 347.29 309.774C347.259 315.531 313.03 320.004 270.838 319.765Z" fill="#9CC2DF"/>
</g>
<g style="mix-blend-mode:multiply" opacity="0.5">
<path d="M195.709 308.874C195.709 314.587 229.574 319.408 271.382 319.643C313.19 319.878 347.148 315.448 347.178 309.813C347.209 304.178 313.313 299.279 271.505 299.028C229.697 298.778 195.74 303.161 195.709 308.874Z" fill="#9AC2DF"/>
</g>
<g style="mix-blend-mode:multiply" opacity="0.5">
<path d="M271.993 319.599C230.532 319.363 196.947 314.582 196.978 308.92C197.009 303.258 230.645 298.859 272.106 299.094C313.567 299.33 347.152 304.111 347.121 309.773C347.09 315.435 313.454 319.834 271.993 319.599Z" fill="#99C1DE"/>
</g>
<g style="mix-blend-mode:multiply" opacity="0.5">
<path d="M272.578 319.509C231.483 319.275 198.194 314.538 198.225 308.927C198.255 303.317 231.595 298.958 272.69 299.192C313.785 299.425 347.075 304.162 347.044 309.773C347.013 315.383 313.674 319.742 272.578 319.509Z" fill="#98C0DE"/>
</g>
<g style="mix-blend-mode:multiply" opacity="0.5">
<path d="M199.45 308.889C199.45 314.462 232.407 319.158 273.137 319.377C313.868 319.596 346.902 315.307 346.932 309.735C346.963 304.162 313.976 299.482 273.245 299.247C232.515 299.013 199.481 303.333 199.45 308.889Z" fill="#97BFDE"/>
</g>
<g style="mix-blend-mode:multiply" opacity="0.5">
<path d="M200.697 308.905C200.697 314.415 233.346 319.064 273.707 319.298C314.068 319.533 346.809 315.244 346.84 309.735C346.871 304.225 314.175 299.576 273.83 299.341C233.484 299.106 200.728 303.395 200.697 308.905Z" fill="#96BFDD"/>
</g>
<g style="mix-blend-mode:multiply" opacity="0.5">
<path d="M201.928 308.905C201.928 314.368 234.254 318.985 274.276 319.204C314.299 319.424 346.717 315.197 346.748 309.735C346.778 304.272 314.422 299.67 274.399 299.435C234.377 299.2 201.959 303.442 201.928 308.905Z" fill="#95BEDD"/>
</g>
<g style="mix-blend-mode:multiply" opacity="0.5">
<path d="M274.889 319.162C235.265 318.937 203.167 314.367 203.197 308.956C203.226 303.544 235.373 299.34 274.997 299.565C314.622 299.79 346.72 304.359 346.69 309.771C346.66 315.182 314.514 319.387 274.889 319.162Z" fill="#94BDDC"/>
</g>
<g style="mix-blend-mode:multiply" opacity="0.5">
<path d="M204.422 308.921C204.422 314.274 236.194 318.813 275.446 319.033C314.699 319.252 346.563 315.104 346.594 309.735C346.625 304.366 314.822 299.858 275.554 299.623C236.286 299.388 204.453 303.552 204.422 308.921Z" fill="#92BDDC"/>
</g>
<g style="mix-blend-mode:multiply" opacity="0.5">
<path d="M205.669 308.936C205.669 314.243 237.148 318.719 276.031 318.938C314.914 319.158 346.47 315.041 346.501 309.735C346.532 304.428 315.037 299.936 276.139 299.717C237.24 299.498 205.7 303.552 205.669 308.936Z" fill="#91BCDC"/>
</g>
<g style="mix-blend-mode:multiply" opacity="0.5">
<path d="M206.916 308.937C206.916 314.196 238.087 318.641 276.616 318.86C315.145 319.08 346.394 314.994 346.424 309.735C346.455 304.476 315.238 300.03 276.724 299.811C238.21 299.592 206.946 303.677 206.916 308.937Z" fill="#90BBDB"/>
</g>
<g style="mix-blend-mode:multiply" opacity="0.5">
<path d="M208.162 308.937C208.162 314.149 239.041 318.547 277.201 318.766C315.361 318.986 346.255 314.947 346.255 309.813C346.255 304.679 315.376 300.202 277.216 299.983C239.057 299.764 208.193 303.74 208.162 308.937Z" fill="#8FBADB"/>
</g>
<g style="mix-blend-mode:multiply" opacity="0.5">
<path d="M209.409 308.952C209.409 314.102 239.98 318.469 277.771 318.688C315.561 318.907 346.255 314.9 346.255 309.813C346.255 304.726 315.669 300.296 277.878 300.077C240.088 299.858 209.425 303.787 209.409 308.952Z" fill="#8EBADB"/>
</g>
<g style="mix-blend-mode:multiply" opacity="0.5">
<path d="M278.371 318.633C240.948 318.421 210.634 314.107 210.662 308.998C210.69 303.889 241.05 299.92 278.473 300.132C315.896 300.345 346.21 304.659 346.182 309.768C346.154 314.877 315.794 318.846 278.371 318.633Z" fill="#8DB9DA"/>
</g>
<g style="mix-blend-mode:multiply" opacity="0.5">
<path d="M278.956 318.527C241.899 318.317 211.881 314.047 211.909 308.99C211.937 303.933 242 300.004 279.057 300.214C316.114 300.425 346.133 304.695 346.105 309.752C346.077 314.809 316.014 318.738 278.956 318.527Z" fill="#8BB8DA"/>
</g>
<g style="mix-blend-mode:multiply" opacity="0.5">
<path d="M279.542 318.437C242.85 318.228 213.128 314.002 213.156 308.997C213.183 303.991 242.95 300.103 279.642 300.311C316.333 300.52 346.055 304.746 346.028 309.751C346 314.756 316.234 318.645 279.542 318.437Z" fill="#8AB8D9"/>
</g>
<g style="mix-blend-mode:multiply" opacity="0.5">
<path d="M280.112 318.377C243.786 318.171 214.36 313.981 214.387 309.019C214.414 304.057 243.884 300.202 280.21 300.408C316.537 300.614 345.963 304.804 345.935 309.766C345.908 314.728 316.438 318.584 280.112 318.377Z" fill="#89B7D9"/>
</g>
<g style="mix-blend-mode:multiply" opacity="0.5">
<path d="M215.628 308.983C215.628 313.898 244.721 318.031 280.68 318.25C316.638 318.469 345.809 314.634 345.839 309.735C345.87 304.835 316.731 300.672 280.772 300.468C244.814 300.265 215.644 304.068 215.628 308.983Z" fill="#88B6D9"/>
</g>
<g style="mix-blend-mode:multiply" opacity="0.5">
<path d="M216.875 308.983C216.875 313.851 245.676 317.952 281.265 318.156C316.854 318.359 345.716 314.587 345.747 309.735C345.778 304.882 316.946 300.766 281.357 300.562C245.768 300.359 216.952 304.131 216.875 308.983Z" fill="#87B5D8"/>
</g>
<g style="mix-blend-mode:multiply" opacity="0.5">
<path d="M218.106 308.999C218.106 313.805 246.615 317.874 281.834 318.062C317.054 318.25 345.639 314.509 345.67 309.813C345.701 305.117 317.162 300.938 281.942 300.735C246.722 300.531 218.137 304.194 218.106 308.999Z" fill="#85B5D8"/>
</g>
<g style="mix-blend-mode:multiply" opacity="0.5">
<path d="M219.353 308.999C219.353 313.695 247.569 317.78 282.466 317.984C317.362 318.187 345.578 314.493 345.578 309.735C345.578 304.976 317.377 300.954 282.466 300.75C247.554 300.547 219.384 304.241 219.353 308.999Z" fill="#84B4D8"/>
</g>
<g style="mix-blend-mode:multiply" opacity="0.5">
<path d="M220.6 309.015C220.6 313.711 248.508 317.702 283.004 317.89C317.5 318.078 345.47 314.431 345.501 309.719C345.531 305.008 317.577 301.048 283.097 300.844C248.616 300.641 220.631 304.303 220.6 309.015Z" fill="#83B3D7"/>
</g>
<g style="mix-blend-mode:multiply" opacity="0.5">
<path d="M283.609 317.85C249.485 317.656 221.842 313.721 221.868 309.062C221.893 304.403 249.577 300.782 283.702 300.976C317.826 301.17 345.468 305.104 345.443 309.764C345.417 314.423 317.733 318.043 283.609 317.85Z" fill="#82B2D7"/>
</g>
<g style="mix-blend-mode:multiply" opacity="0.5">
<path d="M284.179 317.743C250.42 317.551 223.074 313.661 223.099 309.053C223.125 304.446 250.512 300.866 284.271 301.058C318.029 301.249 345.376 305.14 345.35 309.748C345.325 314.355 317.938 317.935 284.179 317.743Z" fill="#81B2D6"/>
</g>
<g style="mix-blend-mode:multiply" opacity="0.5">
<path d="M224.341 309.03C224.341 313.585 251.356 317.436 284.744 317.624C318.132 317.812 345.224 314.29 345.239 309.719C345.254 305.149 318.224 301.314 284.836 301.126C251.448 300.938 224.356 304.475 224.341 309.03Z" fill="#7FB1D6"/>
</g>
<g style="mix-blend-mode:multiply" opacity="0.5">
<path d="M225.572 309.03C225.572 313.538 252.31 317.358 285.329 317.545C318.347 317.733 345.131 314.227 345.162 309.719C345.193 305.211 318.439 301.407 285.421 301.22C252.403 301.032 225.603 304.522 225.572 309.03Z" fill="#7EB0D6"/>
</g>
<g style="mix-blend-mode:multiply" opacity="0.5">
<path d="M285.92 317.503C253.266 317.317 226.815 313.551 226.84 309.09C226.864 304.63 253.355 301.164 286.009 301.349C318.662 301.535 345.113 305.301 345.089 309.762C345.064 314.222 318.573 317.688 285.92 317.503Z" fill="#7DAFD5"/>
</g>
<g style="mix-blend-mode:multiply" opacity="0.5">
<path d="M228.066 309.046C228.066 313.46 254.234 317.186 286.483 317.373C318.732 317.561 344.977 314.133 344.977 309.719C344.977 305.305 318.809 301.596 286.56 301.408C254.311 301.22 228.097 304.648 228.066 309.046Z" fill="#7CAFD5"/>
</g>
<g style="mix-blend-mode:multiply" opacity="0.5">
<path d="M229.267 309.062C229.267 313.413 255.096 317.092 287.022 317.28C318.947 317.467 344.839 314.149 344.854 309.719C344.87 305.29 319.024 301.689 287.099 301.502C255.173 301.314 229.267 304.695 229.267 309.062Z" fill="#7AAED4"/>
</g>
<g style="mix-blend-mode:multiply" opacity="0.5">
<path d="M230.56 309.062C230.56 313.366 256.097 317.013 287.653 317.185C319.209 317.357 344.793 314.055 344.823 309.719C344.854 305.383 319.286 301.767 287.73 301.595C256.174 301.423 230.575 304.757 230.56 309.062Z" fill="#79ADD4"/>
</g>
<g style="mix-blend-mode:multiply" opacity="0.5">
<path d="M288.246 317.124C257.063 316.947 231.804 313.356 231.827 309.103C231.85 304.85 257.148 301.545 288.331 301.722C319.514 301.899 344.773 305.491 344.75 309.744C344.727 313.997 319.429 317.301 288.246 317.124Z" fill="#78ACD4"/>
</g>
<g style="mix-blend-mode:multiply" opacity="0.5">
<path d="M286.489 315.005C255.671 314.692 230.722 311.025 230.764 306.815C230.805 302.605 255.821 299.446 286.639 299.76C317.457 300.073 342.406 303.74 342.364 307.95C342.323 312.16 317.307 315.319 286.489 315.005Z" fill="#77ACD3"/>
</g>
<g style="mix-blend-mode:multiply" opacity="0.5">
<path d="M289.401 316.959C258.95 316.786 234.282 313.275 234.305 309.117C234.328 304.959 259.033 301.728 289.484 301.901C319.936 302.074 344.603 305.585 344.58 309.743C344.558 313.901 319.853 317.132 289.401 316.959Z" fill="#75ABD3"/>
</g>
<g style="mix-blend-mode:multiply" opacity="0.5">
<path d="M287.645 314.814C257.559 314.508 233.202 310.931 233.242 306.825C233.282 302.718 257.705 299.638 287.792 299.944C317.878 300.25 342.236 303.826 342.195 307.933C342.155 312.039 317.732 315.12 287.645 314.814Z" fill="#74AAD2"/>
</g>
<g style="mix-blend-mode:multiply" opacity="0.5">
<path d="M290.573 316.778C260.852 316.609 236.777 313.185 236.799 309.131C236.821 305.077 260.933 301.927 290.653 302.096C320.374 302.265 344.449 305.688 344.427 309.742C344.404 313.797 320.293 316.947 290.573 316.778Z" fill="#73A9D2"/>
</g>
<g style="mix-blend-mode:multiply" opacity="0.5">
<path d="M238.025 309.108C238.025 313.115 261.777 316.496 291.132 316.669C320.487 316.841 344.3 313.726 344.315 309.719C344.331 305.712 320.564 302.331 291.209 302.159C261.854 301.986 238.041 305.117 238.025 309.108Z" fill="#72A8D2"/>
</g>
<g style="mix-blend-mode:multiply" opacity="0.5">
<path d="M239.272 309.109C239.272 313.069 262.731 316.419 291.717 316.575C320.702 316.732 344.208 313.679 344.238 309.719C344.269 305.759 320.779 302.409 291.794 302.253C262.808 302.096 239.288 305.117 239.272 309.109Z" fill="#70A8D1"/>
</g>
<g style="mix-blend-mode:multiply" opacity="0.5">
<path d="M292.313 316.521C263.698 316.359 240.518 313.06 240.539 309.152C240.561 305.245 263.775 302.209 292.391 302.372C321.006 302.534 344.186 305.834 344.165 309.741C344.143 313.648 320.929 316.684 292.313 316.521Z" fill="#6FA7D1"/>
</g>
<g style="mix-blend-mode:multiply" opacity="0.5">
<path d="M241.75 309.124C241.75 312.99 264.625 316.246 292.871 316.403C321.118 316.559 344.038 313.569 344.069 309.719C344.1 305.868 321.195 302.597 292.948 302.44C264.702 302.284 241.781 305.274 241.75 309.124Z" fill="#6EA6D0"/>
</g>
<g style="mix-blend-mode:multiply" opacity="0.5">
<path d="M242.997 309.14C242.997 312.943 265.564 316.152 293.456 316.309C321.349 316.465 343.961 313.522 343.977 309.719C343.992 305.915 321.41 302.691 293.533 302.534C265.656 302.378 243.028 305.32 242.997 309.14Z" fill="#6CA5D0"/>
</g>
<g style="mix-blend-mode:multiply" opacity="0.5">
<path d="M294.054 316.265C266.536 316.109 244.244 312.934 244.265 309.174C244.285 305.413 266.61 302.491 294.129 302.648C321.648 302.804 343.939 305.979 343.919 309.739C343.898 313.5 321.573 316.422 294.054 316.265Z" fill="#6BA5CF"/>
</g>
<g style="mix-blend-mode:multiply" opacity="0.5">
<path d="M245.491 309.14C245.491 312.85 267.457 315.98 294.611 316.137C321.764 316.293 343.792 313.413 343.869 309.703C343.946 305.994 321.903 302.879 294.749 302.722C267.596 302.566 245.506 305.446 245.491 309.14Z" fill="#6AA4CF"/>
</g>
<g style="mix-blend-mode:multiply" opacity="0.5">
<path d="M246.738 309.155C246.738 312.802 268.411 315.902 295.196 316.058C321.98 316.215 343.7 313.366 343.73 309.703C343.761 306.041 322.057 302.957 295.273 302.816C268.488 302.675 246.753 305.493 246.738 309.155Z" fill="#68A3CF"/>
</g>
<g style="mix-blend-mode:multiply" opacity="0.5">
<path d="M295.795 315.993C269.381 315.843 247.985 312.8 248.005 309.195C248.025 305.59 269.453 302.789 295.867 302.939C322.28 303.089 343.677 306.133 343.657 309.738C343.637 313.343 322.209 316.143 295.795 315.993Z" fill="#67A2CE"/>
</g>
<g style="mix-blend-mode:multiply" opacity="0.5">
<path d="M249.278 309.171C249.278 312.725 270.366 315.73 296.412 315.871C322.457 316.012 343.592 313.272 343.623 309.704C343.654 306.135 322.534 303.145 296.489 303.004C270.443 302.863 249.278 305.618 249.278 309.171Z" fill="#66A1CE"/>
</g>
<g style="mix-blend-mode:multiply" opacity="0.5">
<path d="M250.463 309.171C250.463 312.677 271.259 315.636 296.935 315.792C322.611 315.949 343.453 313.21 343.469 309.703C343.484 306.197 322.688 303.239 297.012 303.098C271.336 302.957 250.494 305.665 250.463 309.171Z" fill="#65A1CD"/>
</g>
<g style="mix-blend-mode:multiply" opacity="0.5">
<path d="M251.71 309.187C251.71 312.63 272.198 315.557 297.52 315.698C322.842 315.839 343.376 313.163 343.392 309.703C343.407 306.244 322.903 303.333 297.582 303.192C272.26 303.051 251.725 305.728 251.71 309.187Z" fill="#63A0CD"/>
</g>
<g style="mix-blend-mode:multiply" opacity="0.5">
<path d="M252.957 309.187C252.957 312.599 273.153 315.448 298.09 315.62C323.027 315.792 343.284 313.116 343.3 309.704C343.315 306.291 323.119 303.442 298.167 303.286C273.214 303.129 252.972 305.775 252.957 309.187Z" fill="#629FCC"/>
</g>
<g style="mix-blend-mode:multiply" opacity="0.5">
<path d="M298.691 315.556C274.105 315.416 254.19 312.584 254.208 309.23C254.227 305.875 274.172 303.27 298.758 303.409C323.344 303.549 343.259 306.381 343.241 309.735C343.223 313.089 323.277 315.695 298.691 315.556Z" fill="#619ECC"/>
</g>
<g style="mix-blend-mode:multiply" opacity="0.5">
<path d="M255.435 309.202C255.435 312.505 275.031 315.307 299.244 315.463C323.458 315.62 343.176 312.943 343.176 309.703C343.176 306.463 323.581 303.599 299.367 303.442C275.154 303.286 255.435 305.9 255.435 309.202Z" fill="#5F9DCC"/>
</g>
<g style="mix-blend-mode:multiply" opacity="0.5">
<path d="M299.862 315.39C276.016 315.255 256.699 312.503 256.717 309.244C256.735 305.985 276.081 303.453 299.927 303.588C323.773 303.724 343.09 306.475 343.072 309.734C343.054 312.993 323.708 315.526 299.862 315.39Z" fill="#5E9CCB"/>
</g>
<g style="mix-blend-mode:multiply" opacity="0.5">
<path d="M300.432 315.284C276.951 315.15 257.931 312.442 257.949 309.235C257.966 306.028 277.015 303.536 300.496 303.67C323.976 303.803 342.997 306.511 342.979 309.718C342.962 312.925 323.913 315.417 300.432 315.284Z" fill="#5D9CCB"/>
</g>
<g style="mix-blend-mode:multiply" opacity="0.5">
<path d="M259.175 309.218C259.175 312.349 277.878 315.041 300.999 315.182C324.119 315.323 342.868 312.85 342.884 309.704C342.899 306.557 324.181 303.881 301.06 303.756C277.94 303.63 259.191 306.072 259.175 309.218Z" fill="#5B9BCA"/>
</g>
<g style="mix-blend-mode:multiply" opacity="0.5">
<path d="M260.422 309.234C260.422 312.364 278.894 314.963 301.584 315.088C324.273 315.213 342.776 312.803 342.791 309.703C342.807 306.604 324.397 303.975 301.645 303.849C278.894 303.724 260.438 306.119 260.422 309.234Z" fill="#5A9ACA"/>
</g>
<g style="mix-blend-mode:multiply" opacity="0.5">
<path d="M261.592 309.234C261.592 312.286 279.695 314.869 302.076 314.994C324.458 315.119 342.622 312.756 342.637 309.703C342.653 306.651 324.52 304.068 302.138 303.943C279.756 303.818 261.685 306.182 261.592 309.234Z" fill="#5899C9"/>
</g>
<g style="mix-blend-mode:multiply" opacity="0.5">
<path d="M262.916 309.249C262.916 312.255 280.726 314.79 302.738 314.916C324.751 315.041 342.607 312.709 342.638 309.703C342.668 306.698 324.812 304.162 302.8 304.037C280.788 303.912 262.932 306.244 262.916 309.249Z" fill="#5798C9"/>
</g>
<g style="mix-blend-mode:multiply" opacity="0.5">
<path d="M264.163 309.249C264.163 312.208 281.68 314.697 303.323 314.822C324.966 314.947 342.53 312.646 342.545 309.703C342.561 306.761 325.028 304.24 303.385 304.115C281.742 303.99 264.178 306.291 264.163 309.249Z" fill="#5697C9"/>
</g>
<g style="mix-blend-mode:multiply" opacity="0.5">
<path d="M265.394 309.25C265.394 312.161 282.619 314.619 303.878 314.744C325.136 314.869 342.361 312.599 342.437 309.704C342.514 306.808 325.212 304.335 303.954 304.21C282.696 304.084 265.41 306.354 265.394 309.25Z" fill="#5497C8"/>
</g>
<g style="mix-blend-mode:multiply" opacity="0.5">
<path d="M266.641 309.265C266.641 312.114 283.574 314.525 304.478 314.65C325.382 314.775 342.361 312.552 342.376 309.704C342.391 306.855 325.443 304.429 304.539 304.303C283.635 304.178 266.657 306.401 266.641 309.265Z" fill="#5396C8"/>
</g>
<g style="mix-blend-mode:multiply" opacity="0.5">
<path d="M267.888 309.265C267.888 312.067 284.513 314.446 305.063 314.556C325.613 314.665 342.283 312.505 342.299 309.703C342.314 306.902 325.659 304.522 305.124 304.397C284.59 304.272 267.903 306.463 267.888 309.265Z" fill="#5295C7"/>
</g>
<g style="mix-blend-mode:multiply" opacity="0.5">
<path d="M269.135 309.281C269.135 312.036 285.467 314.352 305.648 314.477C325.828 314.603 342.191 312.443 342.207 309.688C342.222 306.933 325.874 304.616 305.694 304.491C285.513 304.366 269.15 306.526 269.135 309.281Z" fill="#5094C7"/>
</g>
<g style="mix-blend-mode:multiply" opacity="0.5">
<path d="M306.24 314.409C286.424 314.297 270.371 312.012 270.386 309.306C270.401 306.6 286.478 304.498 306.294 304.611C326.111 304.723 342.163 307.008 342.148 309.714C342.133 312.419 326.057 314.522 306.24 314.409Z" fill="#4F93C6"/>
</g>
<g style="mix-blend-mode:multiply" opacity="0.5">
<path d="M271.629 309.297C271.629 311.942 287.361 314.18 306.802 314.305C326.244 314.431 342.022 312.349 342.037 309.688C342.053 307.027 326.305 304.804 306.864 304.679C287.422 304.554 271.644 306.683 271.629 309.297Z" fill="#4E92C6"/>
</g>
<g style="mix-blend-mode:multiply" opacity="0.5">
<path d="M272.86 309.296C272.86 311.895 288.253 314.102 307.387 314.211C326.521 314.321 341.945 312.302 341.96 309.688C341.976 307.074 326.567 304.882 307.433 304.773C288.299 304.663 272.875 306.682 272.86 309.296Z" fill="#4C92C5"/>
</g>
<g style="mix-blend-mode:multiply" opacity="0.5">
<path d="M274.107 309.296C274.107 311.863 289.254 313.992 307.972 314.117C326.69 314.243 341.837 312.239 341.837 309.688C341.837 307.136 326.706 304.992 307.972 304.867C289.239 304.741 274.122 306.682 274.107 309.296Z" fill="#4B91C5"/>
</g>
<g style="mix-blend-mode:multiply" opacity="0.5">
<path d="M275.354 309.312C275.354 311.817 290.208 313.93 308.542 314.008C326.875 314.086 341.776 312.161 341.791 309.657C341.806 307.152 326.937 305.039 308.603 304.961C290.27 304.883 275.369 306.808 275.354 309.312Z" fill="#4990C5"/>
</g>
<g style="mix-blend-mode:multiply" opacity="0.5">
<path d="M276.601 309.312C276.601 311.77 291.147 313.851 309.127 314.008C327.106 314.165 341.637 312.145 341.637 309.688C341.637 307.23 327.09 305.164 309.111 304.992C291.132 304.82 276.616 306.87 276.601 309.312Z" fill="#488FC4"/>
</g>
<g style="mix-blend-mode:multiply" opacity="0.5">
<path d="M277.847 309.328C277.847 311.723 292.102 313.758 309.711 313.867C327.321 313.977 341.637 312.098 341.637 309.688C341.637 307.277 327.383 305.258 309.773 305.149C292.163 305.039 277.863 306.917 277.847 309.328Z" fill="#478EC4"/>
</g>
<g style="mix-blend-mode:multiply" opacity="0.5">
<path d="M279.094 309.328C279.094 311.691 293.041 313.679 310.281 313.773C327.521 313.867 341.529 312.036 341.529 309.688C341.529 307.34 327.583 305.352 310.343 305.242C293.102 305.133 279.094 306.98 279.094 309.328Z" fill="#458DC3"/>
</g>
<g style="mix-blend-mode:multiply" opacity="0.5">
<path d="M310.893 313.731C294.018 313.635 280.348 311.687 280.361 309.378C280.373 307.07 294.064 305.277 310.939 305.373C327.814 305.469 341.483 307.417 341.471 309.726C341.458 312.034 327.768 313.827 310.893 313.731Z" fill="#448CC3"/>
</g>
<g style="mix-blend-mode:multiply" opacity="0.5">
<path d="M281.603 309.344C281.603 311.598 294.965 313.507 311.482 313.601C327.999 313.695 341.391 311.942 341.391 309.688C341.391 307.434 328.029 305.524 311.528 305.43C295.026 305.336 281.603 307.09 281.603 309.344Z" fill="#428CC2"/>
</g>
<g style="mix-blend-mode:multiply" opacity="0.5">
<path d="M282.82 309.343C282.82 311.55 295.888 313.413 312.067 313.507C328.245 313.601 341.314 311.942 341.314 309.688C341.314 307.434 328.245 305.618 312.067 305.524C295.888 305.43 282.835 307.152 282.82 309.343Z" fill="#418BC2"/>
</g>
<g style="mix-blend-mode:multiply" opacity="0.5">
<path d="M284.067 309.359C284.067 311.519 296.827 313.335 312.606 313.429C328.384 313.523 341.191 311.863 341.191 309.688C341.191 307.512 328.43 305.712 312.652 305.618C296.874 305.524 284.082 307.199 284.067 309.359Z" fill="#3F8AC1"/>
</g>
<g style="mix-blend-mode:multiply" opacity="0.5">
<path d="M285.313 309.359C285.313 311.472 297.782 313.241 313.19 313.335C328.599 313.429 341.098 311.769 341.114 309.688C341.129 307.606 328.645 305.806 313.236 305.712C297.828 305.618 285.328 307.261 285.313 309.359Z" fill="#3E89C1"/>
</g>
<g style="mix-blend-mode:multiply" opacity="0.5">
<path d="M286.56 309.375C286.56 311.425 298.736 313.163 313.775 313.241C328.814 313.319 341.021 311.676 341.037 309.688C341.052 307.7 328.861 305.9 313.806 305.806C298.752 305.712 286.56 307.324 286.56 309.375Z" fill="#3D88C0"/>
</g>
<g style="mix-blend-mode:multiply" opacity="0.5">
<path d="M287.761 309.375C287.761 311.378 299.644 313.069 314.314 313.163C328.984 313.257 340.898 311.692 340.914 309.688C340.929 307.684 329.03 305.994 314.36 305.9C299.691 305.806 287.761 307.371 287.761 309.375Z" fill="#3B87C0"/>
</g>
<g style="mix-blend-mode:multiply" opacity="0.5">
<path d="M289.038 309.39C289.038 311.331 300.63 312.99 314.93 313.069C329.23 313.147 340.852 311.629 340.867 309.688C340.883 307.747 329.276 306.072 314.976 305.994C300.676 305.915 289.054 307.434 289.038 309.39Z" fill="#3A86C0"/>
</g>
<g style="mix-blend-mode:multiply" opacity="0.5">
<path d="M290.285 309.391C290.27 311.379 301.615 312.944 315.468 312.944C329.322 312.944 340.713 311.535 340.729 309.641C340.744 307.747 329.445 306.119 315.499 306.041C301.553 305.963 290.301 307.497 290.285 309.391Z" fill="#3885BF"/>
</g>
<g style="mix-blend-mode:multiply" opacity="0.5">
<path d="M291.532 309.406C291.532 311.253 302.523 312.818 316.161 312.897C329.8 312.975 340.791 311.535 340.791 309.688C340.791 307.841 329.8 306.26 316.161 306.182C302.523 306.103 291.548 307.544 291.532 309.406Z" fill="#3784BF"/>
</g>
<g style="mix-blend-mode:multiply" opacity="0.5">
<path d="M292.779 309.406C292.779 311.206 303.462 312.724 316.669 312.803C329.877 312.881 340.606 311.488 340.606 309.672C340.606 307.857 329.923 306.354 316.715 306.276C303.508 306.197 292.794 307.606 292.779 309.406Z" fill="#3584BE"/>
</g>
<g style="mix-blend-mode:multiply" opacity="0.5">
<path d="M294.026 309.406C294.026 311.159 304.416 312.646 317.254 312.724C330.092 312.803 340.513 311.425 340.529 309.672C340.544 307.919 330.138 306.448 317.285 306.369C304.431 306.291 294.026 307.653 294.026 309.406Z" fill="#3483BE"/>
</g>
<g style="mix-blend-mode:multiply" opacity="0.5">
<path d="M295.273 309.422C295.273 311.128 305.355 312.552 317.839 312.63C330.323 312.709 340.436 311.378 340.436 309.672C340.436 307.966 330.338 306.542 317.87 306.463C305.401 306.385 295.273 307.715 295.273 309.422Z" fill="#3282BD"/>
</g>
<g style="mix-blend-mode:multiply" opacity="0.5">
<path d="M296.504 309.422C296.504 311.081 306.31 312.474 318.409 312.552C330.508 312.631 340.344 311.331 340.359 309.672C340.375 308.013 330.554 306.636 318.455 306.542C306.356 306.448 296.519 307.778 296.504 309.422Z" fill="#3181BD"/>
</g>
<g style="mix-blend-mode:multiply" opacity="0.5">
<path d="M297.751 309.437C297.751 311.003 307.248 312.396 318.993 312.458C330.738 312.521 340.267 311.284 340.267 309.672C340.267 308.06 330.769 306.714 319.024 306.651C307.279 306.589 297.766 307.825 297.751 309.437Z" fill="#2F80BC"/>
</g>
<g style="mix-blend-mode:multiply" opacity="0.5">
<path d="M298.998 309.437C298.998 311.003 308.234 312.302 319.578 312.364C330.923 312.427 340.175 311.222 340.19 309.672C340.205 308.122 330.954 306.808 319.609 306.745C308.264 306.682 299.013 307.888 298.998 309.437Z" fill="#2E7FBC"/>
</g>
<g style="mix-blend-mode:multiply" opacity="0.5">
<path d="M300.245 309.453C300.245 311.019 309.157 312.224 320.163 312.286C331.17 312.349 340.098 311.175 340.098 309.672C340.098 308.17 331.2 306.902 320.194 306.839C309.188 306.777 300.245 307.951 300.245 309.453Z" fill="#2C7EBB"/>
</g>
<g style="mix-blend-mode:multiply" opacity="0.5">
<path d="M301.492 309.453C301.492 310.908 310.096 312.129 320.733 312.192C331.37 312.255 340.005 311.128 340.021 309.672C340.036 308.216 331.401 306.995 320.764 306.933C310.127 306.87 301.492 307.997 301.492 309.453Z" fill="#2B7DBB"/>
</g>
<g style="mix-blend-mode:multiply" opacity="0.5">
<path d="M302.738 309.453C302.738 310.862 311.051 312.051 321.318 312.114C331.585 312.177 339.928 311.081 339.928 309.672C339.928 308.264 331.616 307.09 321.349 307.027C311.082 306.964 302.738 308.06 302.738 309.453Z" fill="#2A7CBA"/>
</g>
<g style="mix-blend-mode:multiply" opacity="0.5">
<path d="M303.97 309.469C303.97 310.815 311.99 311.958 321.903 312.02C331.816 312.083 339.836 311.018 339.851 309.672C339.867 308.326 331.831 307.183 321.934 307.121C312.036 307.058 303.985 308.107 303.97 309.469Z" fill="#287BBA"/>
</g>
<g style="mix-blend-mode:multiply" opacity="0.5">
<path d="M305.217 309.468C305.217 310.783 312.913 311.879 322.488 311.926C332.062 311.973 339.759 310.971 339.759 309.672C339.759 308.373 332.062 307.277 322.503 307.214C312.944 307.152 305.232 308.248 305.217 309.468Z" fill="#277BB9"/>
</g>
<g style="mix-blend-mode:multiply" opacity="0.5">
<path d="M306.464 309.484C306.464 310.737 313.883 311.785 323.057 311.848C332.232 311.911 339.682 310.925 339.682 309.672C339.682 308.42 332.263 307.356 323.088 307.309C313.914 307.262 306.479 308.248 306.464 309.484Z" fill="#257AB9"/>
</g>
<g style="mix-blend-mode:multiply" opacity="0.5">
<path d="M307.772 309.484C307.772 310.69 314.899 311.707 323.704 311.754C332.509 311.801 339.651 310.878 339.667 309.672C339.682 308.467 332.54 307.45 323.735 307.403C314.93 307.356 307.772 308.248 307.772 309.484Z" fill="#2479B8"/>
</g>
<g style="mix-blend-mode:multiply" opacity="0.5">
<path d="M308.957 309.5C308.957 310.643 315.776 311.613 324.227 311.66C332.678 311.707 339.513 310.815 339.513 309.672C339.513 308.53 332.678 307.543 324.243 307.496C315.807 307.449 308.957 308.342 308.957 309.5Z" fill="#2278B8"/>
</g>
<g style="mix-blend-mode:multiply" opacity="0.5">
<path d="M310.204 309.5C310.204 310.596 316.731 311.535 324.797 311.582C332.863 311.629 339.42 310.768 339.436 309.672C339.451 308.576 332.894 307.637 324.828 307.59C316.762 307.543 310.204 308.404 310.204 309.5Z" fill="#2177B7"/>
</g>
<g style="mix-blend-mode:multiply" opacity="0.5">
<path d="M311.436 309.516C311.436 310.565 317.685 311.441 325.382 311.488C333.078 311.535 339.344 310.721 339.344 309.672C339.344 308.624 333.109 307.732 325.397 307.685C317.685 307.638 311.451 308.451 311.436 309.516Z" fill="#1F76B7"/>
</g>
<g style="mix-blend-mode:multiply" opacity="0.5">
<path d="M312.683 309.516C312.683 310.518 318.624 311.363 325.967 311.41C333.309 311.457 339.251 310.674 339.267 309.672C339.282 308.671 333.325 307.825 325.982 307.778C318.64 307.731 312.698 308.514 312.683 309.516Z" fill="#1E75B6"/>
</g>
<g style="mix-blend-mode:multiply" opacity="0.5">
<path d="M313.929 309.516C313.929 310.47 319.579 311.284 326.552 311.316C333.525 311.347 339.174 310.611 339.174 309.75C339.174 308.889 333.54 307.982 326.567 307.95C319.594 307.919 313.929 308.576 313.929 309.516Z" fill="#1C74B6"/>
</g>
<g style="mix-blend-mode:multiply" opacity="0.5">
<path d="M315.176 309.531C315.176 310.423 320.518 311.19 327.121 311.222C333.725 311.253 339.082 310.564 339.097 309.656C339.113 308.749 333.74 307.982 327.137 307.95C320.533 307.919 315.176 308.623 315.176 309.531Z" fill="#1A73B6"/>
</g>
<g style="mix-blend-mode:multiply" opacity="0.5">
<path d="M316.423 309.531C316.423 310.392 321.472 311.097 327.706 311.097C333.94 311.097 339.005 310.471 339.005 309.625C339.005 308.78 333.956 308.06 327.721 308.06C321.487 308.06 316.423 308.686 316.423 309.531Z" fill="#1972B5"/>
</g>
<g style="mix-blend-mode:multiply" opacity="0.5">
<path d="M317.67 309.547C317.67 310.345 322.411 311.018 328.291 311.112C334.171 311.206 338.912 310.533 338.928 309.719C338.943 308.905 334.171 308.248 328.306 308.154C322.442 308.06 317.67 308.733 317.67 309.547Z" fill="#1771B5"/>
</g>
<g style="mix-blend-mode:multiply" opacity="0.5">
<path d="M318.917 309.547C318.917 310.298 323.365 310.94 328.861 310.971C334.356 311.003 338.835 310.408 338.835 309.657C338.835 308.905 334.387 308.279 328.876 308.248C323.365 308.216 318.917 308.796 318.917 309.547Z" fill="#1670B4"/>
</g>
<g style="mix-blend-mode:multiply" opacity="0.5">
<path d="M320.086 309.563C320.086 310.251 324.243 310.846 329.322 310.877C334.402 310.909 338.635 310.361 338.635 309.656C338.635 308.952 334.479 308.373 329.399 308.342C324.32 308.31 320.086 308.858 320.086 309.563Z" fill="#146FB4"/>
</g>
<g style="mix-blend-mode:multiply" opacity="0.5">
<path d="M321.395 309.562C321.395 310.22 325.259 310.768 330.03 310.783C334.802 310.799 338.666 310.314 338.666 309.656C338.666 308.999 334.818 308.467 330.046 308.435C325.274 308.404 321.395 308.905 321.395 309.562Z" fill="#136EB3"/>
</g>
<g style="mix-blend-mode:multiply" opacity="0.5">
<path d="M322.642 309.563C322.642 310.173 326.213 310.674 330.615 310.705C335.018 310.737 338.589 310.267 338.589 309.657C338.589 309.046 335.018 308.545 330.615 308.53C326.213 308.514 322.642 308.968 322.642 309.563Z" fill="#116EB3"/>
</g>
<g style="mix-blend-mode:multiply" opacity="0.5">
<path d="M323.889 309.578C323.889 310.126 327.152 310.596 331.185 310.611C335.218 310.627 338.497 310.204 338.497 309.657C338.497 309.109 335.233 308.639 331.2 308.623C327.167 308.608 323.889 309.03 323.889 309.578Z" fill="#106DB2"/>
</g>
<g style="mix-blend-mode:multiply" opacity="0.5">
<path d="M325.136 309.578C325.136 310.079 328.106 310.502 331.77 310.533C335.434 310.564 338.42 310.157 338.42 309.656C338.42 309.156 335.449 308.733 331.785 308.717C328.122 308.702 325.136 309.077 325.136 309.578Z" fill="#0E6CB2"/>
</g>
<g style="mix-blend-mode:multiply" opacity="0.5">
<path d="M326.382 309.594C326.382 310.048 329.045 310.423 332.355 310.439C335.664 310.455 338.327 310.11 338.327 309.656C338.327 309.202 335.664 308.827 332.355 308.811C329.045 308.795 326.382 309.14 326.382 309.594Z" fill="#0D6BB1"/>
</g>
<g style="mix-blend-mode:multiply" opacity="0.5">
<path d="M327.614 309.594C327.614 310.001 330 310.33 332.924 310.345C335.849 310.361 338.25 310.064 338.25 309.657C338.25 309.25 335.88 308.921 332.94 308.905C330 308.89 327.629 309.203 327.614 309.594Z" fill="#0B6AB1"/>
</g>
<g style="mix-blend-mode:multiply" opacity="0.5">
<path d="M328.861 309.61C328.861 309.954 330.939 310.251 333.479 310.267C336.019 310.283 338.097 310.001 338.097 309.657C338.097 309.312 336.019 309.015 333.479 308.999C330.939 308.984 328.861 309.25 328.861 309.61Z" fill="#0969B0"/>
</g>
<g style="mix-blend-mode:multiply" opacity="0.5">
<path d="M330.108 309.61C330.108 309.907 331.893 310.157 334.094 310.173C336.296 310.189 338.081 309.954 338.081 309.656C338.081 309.359 336.296 309.109 334.094 309.093C331.893 309.077 330.108 309.312 330.108 309.61Z" fill="#0868B0"/>
</g>
<g style="mix-blend-mode:multiply" opacity="0.5">
<path d="M331.354 309.61C331.354 309.86 332.894 310.079 334.679 310.095C336.465 310.111 337.989 309.907 338.004 309.657C338.02 309.406 336.465 309.187 334.679 309.187C332.894 309.187 331.354 309.359 331.354 309.61Z" fill="#0667AF"/>
</g>
<g style="mix-blend-mode:multiply" opacity="0.5">
<path d="M332.601 309.625C332.601 309.829 333.787 310.001 335.249 310.001C336.711 310.001 337.912 309.86 337.912 309.656C337.912 309.453 336.727 309.281 335.264 309.281C333.802 309.281 332.601 309.422 332.601 309.625Z" fill="#0566AF"/>
</g>
<g style="mix-blend-mode:multiply" opacity="0.5">
<path d="M333.848 309.625C333.848 309.782 334.726 309.907 335.834 309.907C336.511 309.996 337.199 309.909 337.835 309.656C337.835 309.5 336.942 309.375 335.834 309.375C335.162 309.284 334.478 309.371 333.848 309.625Z" fill="#0365AE"/>
</g>
<g style="mix-blend-mode:multiply" opacity="0.5">
<path d="M335.079 309.641C335.503 309.818 335.964 309.882 336.419 309.829C336.867 309.882 337.322 309.823 337.742 309.657C337.742 309.547 337.157 309.469 336.419 309.469C335.68 309.469 335.079 309.531 335.079 309.641Z" fill="#0264AE"/>
</g>
<g style="mix-blend-mode:multiply" opacity="0.5">
<path d="M336.326 309.641C336.536 309.728 336.763 309.76 336.988 309.735C337.217 309.76 337.448 309.734 337.666 309.656C337.666 309.656 337.358 309.562 336.988 309.562C336.765 309.539 336.539 309.566 336.326 309.641Z" fill="#0063AD"/>
</g>
</g>
</g>
<g opacity="0.5">
<path opacity="0.5" d="M493.753 108.191L493.568 107.847L493.43 107.596L493.291 107.346C491.792 104.388 489.395 102.001 486.456 100.537L485.671 100.192L391.157 58.2746L296.643 16.3725L295.858 16.0281C294.695 15.4398 293.4 15.1761 292.104 15.2641C290.809 15.3521 289.559 15.7887 288.484 16.529L288.315 16.6386L288.161 16.7638L277.201 24.9814L284.282 27.1102L274.892 156.135C274.726 159.615 275.561 163.069 277.293 166.074L277.432 166.325L277.571 166.575C279.08 169.526 281.473 171.911 284.405 173.384L472.926 256.969L472.171 265.078L482.547 257.251L482.7 257.142C483.806 256.288 484.709 255.191 485.34 253.934C485.972 252.676 486.317 251.29 486.349 249.879L495.969 117.77C496.126 114.429 495.358 111.111 493.753 108.191Z" fill="white"/>
<path opacity="0.5" d="M464.244 265.985L273.661 181.461C267.888 178.91 263.655 170.755 264.209 163.257L273.676 33.0425C274.23 25.5449 279.341 21.5535 285.098 24.1049L475.696 108.629C481.454 111.181 485.687 119.336 485.148 126.818L475.666 257.048C475.112 264.53 470.001 268.537 464.244 265.985Z" fill="#6F7583"/>
<path opacity="0.5" d="M474.911 108.285L380.397 66.3672L369.252 219.45L463.459 265.641C469.616 268.38 475.081 264.952 475.589 257.987L485.209 125.879C485.335 122.25 484.431 118.662 482.605 115.542C480.779 112.422 478.108 109.903 474.911 108.285Z" fill="#6F7583"/>
<path opacity="0.5" d="M285.883 24.465L380.397 66.3671L369.345 218.495L274.446 181.821C271.251 180.204 268.581 177.687 266.752 174.571C264.924 171.455 264.015 167.87 264.132 164.243L273.753 32.1348C274.261 25.138 279.695 21.7101 285.883 24.465Z" fill="#6F7583"/>
<path opacity="0.5" d="M266.349 173.823C268.11 177.315 270.949 180.125 274.43 181.821L463.459 265.641C464.824 266.362 466.357 266.691 467.892 266.592C469.428 266.493 470.907 265.969 472.171 265.078L376.118 125.284L266.349 173.823Z" fill="#6F7583"/>
<path opacity="0.5" d="M483.008 116.283C481.241 112.789 478.397 109.98 474.911 108.285L285.883 24.4647C284.518 23.7461 282.986 23.4176 281.452 23.514C279.918 23.6105 278.438 24.1284 277.17 25.0126L373.239 164.822L483.008 116.283Z" fill="#6F7583"/>
<path opacity="0.5" d="M442.386 133.313C442.336 133.18 442.279 133.049 442.216 132.922L442.093 132.64L441.955 132.359C440.565 129.074 438.174 126.331 435.135 124.532L434.335 124.094L336.003 71.1722L237.671 18.2506L236.855 17.8123C235.645 17.0961 234.269 16.7188 232.869 16.7188C231.468 16.7188 230.092 17.0961 228.882 17.8123L228.697 17.9219L228.512 18.0315L216.075 25.9674L223.51 28.8475L203.098 166.747C202.621 170.497 203.236 174.307 204.868 177.704L205.007 178.002C205.039 178.095 205.08 178.184 205.13 178.268C206.512 181.577 208.903 184.348 211.949 186.172L408.059 291.656L406.519 300.327L418.295 292.783L418.48 292.673C419.741 291.849 420.803 290.745 421.584 289.443C422.365 288.142 422.846 286.677 422.99 285.16L444.002 143.895C444.463 140.283 443.902 136.612 442.386 133.313Z" fill="white"/>
<path opacity="0.5" d="M397.992 300.64L199.712 193.983C193.708 190.759 189.814 181.633 190.999 173.635L211.626 34.3261C212.827 26.2963 218.645 22.4144 224.633 25.6545L422.913 132.28C428.917 135.505 432.811 144.63 431.626 152.629L410.999 291.938C409.814 299.983 403.98 303.865 397.992 300.64Z" fill="#6F7583"/>
<path opacity="0.5" d="M422.113 131.842L323.781 78.9204L299.521 242.694L397.176 300.202C403.625 303.661 409.736 300.437 410.845 292.97L431.78 151.721C432.218 147.813 431.539 143.86 429.825 140.334C428.11 136.808 425.433 133.86 422.113 131.842Z" fill="#6F7583"/>
<path opacity="0.5" d="M225.449 25.9987L323.781 78.9203L299.675 241.708L200.527 194.39C197.194 192.397 194.5 189.465 192.771 185.949C191.041 182.432 190.351 178.481 190.783 174.574L211.703 33.2302C212.888 25.7796 218.999 22.5394 225.449 25.9987Z" fill="#6F7583"/>
<path opacity="0.5" d="M192.461 185.077C194.076 188.987 196.91 192.248 200.528 194.359L397.176 300.202C398.59 301.081 400.212 301.556 401.869 301.578C403.527 301.6 405.16 301.168 406.596 300.327L314.453 141.954L192.461 185.077Z" fill="#6F7583"/>
<path opacity="0.5" d="M430.163 141.124C428.555 137.215 425.726 133.954 422.113 131.842L225.449 25.9988C224.034 25.1202 222.413 24.6449 220.756 24.6229C219.098 24.6008 217.465 25.0329 216.028 25.8736L308.188 184.263L430.163 141.124Z" fill="#6F7583"/>
</g>
<path d="M388.032 132.719L387.847 132.296C387.847 132.187 387.77 132.093 387.74 131.999L387.601 131.686C386.256 128.107 383.817 125.062 380.643 122.999L379.797 122.498L277.093 62.188L174.39 1.86266L173.543 1.37744C172.289 0.551744 170.841 0.0790573 169.349 0.00756476C167.856 -0.0639278 166.371 0.268339 165.046 0.970475L164.846 1.08003L164.646 1.20526L151.084 9.15681L158.904 12.5221L131.781 158.749C131.143 162.703 131.651 166.761 133.244 170.426L133.382 170.739C133.382 170.849 133.459 170.943 133.505 171.037C134.85 174.615 137.289 177.66 140.463 179.724L345.3 300.03L343.422 309.203L356.26 301.642L356.461 301.533C357.837 300.706 359.011 299.572 359.894 298.216C360.776 296.86 361.345 295.318 361.556 293.707L389.263 143.973C389.893 140.178 389.467 136.28 388.032 132.719Z" fill="white"/>
<path d="M334.233 309.187L127.132 187.565C120.883 183.887 117.081 174.01 118.651 165.527L146.035 17.922C147.575 9.43824 153.963 5.52507 160.228 9.20344L367.328 130.84C373.578 134.519 377.38 144.38 375.81 152.879L348.425 300.421C346.855 308.968 340.498 312.943 334.233 309.187Z" fill="#6F7583"/>
<path d="M366.482 130.339L263.778 70.0298L231.591 243.524L333.402 308.702C340.128 312.646 346.763 309.437 348.241 301.533L375.948 151.815C377.472 143.895 373.208 134.3 366.482 130.339Z" fill="#6F7583"/>
<path d="M161.075 9.70466L263.778 70.03L231.791 242.507L127.979 188.114C121.252 184.169 116.988 174.558 118.451 166.654L146.159 16.9205C147.682 8.95333 154.332 5.74454 161.075 9.70466Z" fill="#6F7583"/>
<path d="M119.759 177.845C121.318 182.076 124.208 185.664 127.979 188.051L333.401 308.702C334.871 309.7 336.579 310.274 338.344 310.362C340.109 310.45 341.864 310.049 343.422 309.203L251.386 136.789L119.759 177.845Z" fill="#6F7583"/>
<path d="M333.655 308.271L333.669 308.279L333.682 308.288C335.076 309.235 336.696 309.779 338.369 309.862C339.877 309.938 341.377 309.637 342.741 308.988L251.14 137.389L120.417 178.164C121.975 182.076 124.712 185.389 128.239 187.624L333.655 308.271Z" stroke="white" stroke-opacity="0.15"/>
<g filter="url(#filter0_d_421_2035)">
<path d="M374.701 140.545C373.134 136.32 370.246 132.735 366.481 130.34L161.074 9.70478C159.604 8.70442 157.894 8.1281 156.126 8.03714C154.359 7.94619 152.601 8.344 151.038 9.18824L243.12 181.618L374.701 140.545Z" fill="#6F7583"/>
</g>
</g>
<defs>
<filter id="filter0_d_421_2035" x="126.038" y="-16.9756" width="273.663" height="223.594" filterUnits="userSpaceOnUse" color-interpolation-filters="sRGB">
<feFlood flood-opacity="0" result="BackgroundImageFix"/>
<feColorMatrix in="SourceAlpha" type="matrix" values="0 0 0 0 0 0 0 0 0 0 0 0 0 0 0 0 0 0 127 0" result="hardAlpha"/>
<feOffset/>
<feGaussianBlur stdDeviation="12.5"/>
<feComposite in2="hardAlpha" operator="out"/>
<feColorMatrix type="matrix" values="0 0 0 0 0 0 0 0 0 0 0 0 0 0 0 0 0 0 0.15 0"/>
<feBlend mode="normal" in2="BackgroundImageFix" result="effect1_dropShadow_421_2035"/>
<feBlend mode="normal" in="SourceGraphic" in2="effect1_dropShadow_421_2035" result="shape"/>
</filter>
<clipPath id="clip0_421_2035">
<rect width="496" height="336" fill="white" transform="matrix(-1 0 0 1 496 0)"/>
</clipPath>
</defs>
</svg>
