<svg width="349" height="348" viewBox="0 0 349 348" fill="none" xmlns="http://www.w3.org/2000/svg">
<g opacity="0.03" clip-path="url(#clip0_423_2643)">
<path d="M347.374 251.348L346.717 249.451L330.291 257.386L330.102 257.246L329.828 257.611L303.947 270.112C299.556 244.622 273.659 222.431 261.139 211.703C258.656 209.576 256.102 207.384 255.24 206.407C256.528 203.635 265.374 194.212 276.45 183.861L278.799 181.664L275.965 180.589C241.368 167.466 213.612 184.543 208.462 188.04L204.783 186.848C157.067 171.387 107.046 202.426 106.545 202.743L105.085 203.667L119.69 240.454C112.53 238.101 98.1244 233.363 96.993 232.987L94.1216 232.251L94.4987 235.431C97.3378 259.524 116.404 281.205 151.157 299.867C163.015 306.238 174.759 311.131 184.004 314.569C186.277 315.638 188.599 316.632 191.023 317.47L191.314 317.572C193.728 318.389 196.163 319.023 198.603 319.555C199.939 319.963 200.974 320.269 201.577 320.441C201.809 320.817 202.089 321.225 202.396 321.676C206.781 328.085 215.498 332.302 223.078 334.907C230.227 337.368 236.363 338.388 236.875 338.474L239.428 338.888L237.381 320.661L293.366 304.583C295.64 309.831 299.255 318.464 302.611 326.538L302.568 327.408L302.983 327.43C307.174 337.513 310.864 346.484 310.864 346.484L313.025 345.705C338.34 335.622 333.2 299.818 333.141 299.453L332.963 298.894C332.963 298.889 332.807 298.481 332.958 298.346C356.021 277.396 347.466 251.606 347.374 251.348ZM344.357 254.818C344.934 257.391 345.682 262.306 344.998 268.317L333.744 259.943L344.357 254.818ZM271.645 183.248C250.688 203.081 251.21 206.133 251.404 207.304C251.437 207.502 251.507 207.701 251.593 207.905C238.626 201.029 225.211 195.201 211.118 190.801C217.103 186.896 241.303 173.117 271.645 183.248ZM313.445 341.359C312.335 338.748 310.11 333.586 307.551 327.661L325.755 328.585C323.298 333.795 319.446 338.496 313.445 341.359ZM330.582 295.467C328.982 296.928 328.879 299.039 329.467 300.533C329.574 301.36 329.887 304.288 329.855 308.22L309.345 307.172L309.264 308.693L329.828 309.74C329.779 311.244 329.666 312.867 329.483 314.553L307.115 313.414L307.034 314.935L329.294 316.068C329.079 317.631 328.782 319.238 328.4 320.855L304.879 319.657L304.798 321.177L328.017 322.364C327.527 324.153 326.913 325.931 326.153 327.671L326.18 327.102L306.867 326.119C303.112 317.422 298.791 307.436 296.173 301.392L295.564 299.936L233.265 317.83L235.092 334.096C229.359 332.866 215.401 329.288 207.988 322.187L207.46 321.655C207.417 321.574 207.455 321.488 207.385 321.413C198.851 311.787 196.297 300.076 197.116 286.797C197.203 285.362 195.069 285.255 194.983 286.7C194.315 297.562 195.877 307.473 200.855 316.09C185.803 311.524 107.563 285.61 98.6846 237.714C105.72 240.029 122.373 245.503 122.373 245.503L126.365 246.814L109.836 205.192C116.339 201.443 143.437 187.019 174.463 186.509C173.272 205.601 168.946 224.059 161.582 241.979C161.027 243.333 163.031 244.015 163.586 242.667C171.031 224.542 175.411 205.832 176.601 186.514C185.415 186.557 194.487 187.686 203.495 190.602L208.209 192.133C208.268 192.166 208.273 192.236 208.349 192.262C225.626 197.457 241.81 204.924 257.449 213.745C257.842 214.083 258.219 214.411 258.666 214.792C270.993 225.353 296.642 247.33 300.386 271.793C300.607 273.217 301.178 274.114 302.099 274.474C302.842 274.715 303.548 274.586 304.065 274.291L332.193 260.7L344.75 270.042C344.492 271.702 344.115 273.426 343.592 275.199L327.829 263.472L326.913 264.697L343.118 276.751C342.612 278.266 341.971 279.808 341.227 281.366L325.555 269.709L324.64 270.934L340.543 282.762C339.816 284.143 338.981 285.529 338.038 286.915L323.282 275.94L322.366 277.165L337.144 288.161C335.339 290.627 333.211 293.076 330.582 295.467Z" fill="white"/>
<path d="M158.754 248.28C155.15 255.79 151.028 262.978 146.39 269.875C145.576 271.084 147.3 272.314 148.114 271.105C152.871 264.031 157.062 256.66 160.752 248.968C161.388 247.652 159.379 246.975 158.754 248.28Z" fill="white"/>
<path d="M154.702 212.412C156.022 208.765 154.309 204.838 150.877 203.662C147.451 202.485 143.588 204.494 142.274 208.142C140.954 211.789 142.667 215.716 146.098 216.898C149.525 218.069 153.382 216.06 154.702 212.412ZM146.863 214.76C144.542 213.959 143.378 211.3 144.272 208.824C145.166 206.353 147.779 204.988 150.107 205.789C152.429 206.589 153.592 209.248 152.703 211.719C151.809 214.196 149.191 215.56 146.863 214.76Z" fill="white"/>
<path d="M189.585 239.557C190.733 236.376 189.968 233.041 187.926 230.86C190.916 230.414 193.658 228.281 194.805 225.101C195.953 221.921 195.188 218.585 193.146 216.404C196.142 215.958 198.878 213.825 200.031 210.645C201.642 206.197 199.546 201.405 195.366 199.966L194.757 201.658C198.065 202.797 199.719 206.584 198.447 210.103C197.176 213.621 193.453 215.56 190.145 214.422L189.537 216.108C192.844 217.247 194.498 221.034 193.227 224.553C191.956 228.072 188.233 230.011 184.925 228.872L184.316 230.559C187.624 231.698 189.278 235.485 188.007 239.003C186.735 242.522 183.013 244.461 179.705 243.328L179.096 245.014C182.404 246.153 184.058 249.94 182.786 253.459C181.515 256.978 177.792 258.917 174.484 257.778L173.876 259.465C178.056 260.905 182.765 258.45 184.37 254.002C185.518 250.821 184.753 247.486 182.711 245.305C185.696 244.864 188.438 242.737 189.585 239.557Z" fill="white"/>
<path d="M203.948 236.451C205.095 233.271 204.33 229.935 202.289 227.754C205.284 227.308 208.021 225.176 209.174 221.996C210.784 217.548 208.689 212.756 204.508 211.316L203.899 213.003C207.207 214.142 208.861 217.929 207.59 221.448C206.318 224.966 202.596 226.906 199.288 225.767L198.679 227.454C201.987 228.592 203.641 232.38 202.369 235.898C201.098 239.417 197.375 241.356 194.068 240.217L193.459 241.904C196.767 243.043 198.421 246.83 197.149 250.348C195.878 253.867 192.155 255.806 188.847 254.673L188.239 256.36C192.419 257.799 197.128 255.344 198.733 250.891C199.881 247.711 199.116 244.375 197.074 242.194C200.058 241.759 202.795 239.632 203.948 236.451Z" fill="white"/>
<path d="M213.332 222.393L212.724 224.08C216.031 225.219 217.685 229.006 216.414 232.525C215.142 236.043 211.42 237.983 208.112 236.844L207.503 238.53C210.811 239.669 212.465 243.456 211.194 246.975C209.922 250.494 206.2 252.433 202.892 251.299L202.283 252.986C206.464 254.426 211.172 251.971 212.777 247.518C213.925 244.337 213.16 241.002 211.118 238.821C214.108 238.375 216.85 236.242 217.998 233.062C219.603 228.619 217.513 223.833 213.332 222.393Z" fill="white"/>
<path d="M253.425 272.062C255.036 267.614 252.94 262.822 248.765 261.382L248.156 263.069C251.464 264.208 253.118 267.995 251.846 271.514C250.575 275.032 246.852 276.972 243.544 275.833L242.936 277.519C246.243 278.658 247.897 282.446 246.626 285.964C245.355 289.483 241.632 291.422 238.324 290.288L237.715 291.975C241.896 293.415 246.604 290.96 248.21 286.507C249.357 283.326 248.592 279.991 246.551 277.81C249.535 277.369 252.277 275.242 253.425 272.062Z" fill="white"/>
<path d="M254.782 273.62L254.173 275.306C257.481 276.445 259.135 280.232 257.864 283.751C256.592 287.27 252.87 289.209 249.562 288.075L248.953 289.762C253.134 291.202 257.842 288.747 259.448 284.294C261.053 279.846 258.963 275.059 254.782 273.62Z" fill="white"/>
<path d="M65.4128 204.419H62.9724L62.6599 205.069C60.2248 210.145 56.4699 214.126 52.0846 216.275L50.5923 217.011L51.8152 218.139C53.4961 219.691 55.2739 220.481 57.1002 220.481H65.4128V233.615C65.4128 243.204 57.5904 250.998 47.9795 250.998C38.3631 250.998 30.5461 243.199 30.5461 233.615V182.641C44.1976 181.078 54.8699 169.62 54.8699 155.599V104.792C54.8699 90.7714 44.1976 79.3131 30.5461 77.7499V0H25.1588V77.6693C11.1087 78.8458 0 90.4866 0 104.797V155.605C0 169.91 11.1087 181.556 25.1588 182.733V233.62C25.1588 246.169 35.3947 256.376 47.9795 256.376C60.5589 256.376 70.8002 246.169 70.8002 233.62V204.102H65.4128V204.419ZM49.4825 104.792V111.142H42.4682L49.0192 100.328C49.3155 101.768 49.4825 103.261 49.4825 104.792ZM48.4105 98.3833L40.685 111.142H33.493L45.1727 91.8565C46.6057 93.8119 47.6778 96.0143 48.4105 98.3833ZM44.3861 90.911L44.0737 90.723L31.7098 111.142H24.5123L39.4837 86.4255C41.3531 87.6503 42.9639 89.192 44.3861 90.911ZM38.1422 85.6949L22.7345 111.136H15.5397L32.3347 83.4011C34.4088 83.8739 36.3321 84.685 38.1422 85.6949ZM27.4322 82.8102C28.5528 82.8102 29.6303 82.9768 30.7077 83.1433L13.7538 111.142H6.55637L23.4726 83.2077C24.7655 82.9768 26.08 82.8102 27.4322 82.8102ZM5.38732 104.792C5.38732 94.7895 12.17 86.4148 21.3553 83.7664L5.38732 110.137V104.792ZM5.38732 112.662H49.4825V126.838H5.38732V112.662ZM5.38732 155.599V128.358H49.4825V155.599C49.4825 167.718 39.5914 177.581 27.4376 177.581C15.2838 177.581 5.38732 167.724 5.38732 155.599ZM65.4182 218.203H57.1002V218.198C56.3029 218.198 55.4894 217.951 54.6813 217.467C58.6571 215.082 62.0565 211.333 64.4108 206.707H65.4182V218.203Z" fill="white"/>
<path d="M106.922 169.131C111.733 169.131 115.644 165.231 115.644 160.434C115.644 155.637 111.733 151.737 106.922 151.737C102.111 151.737 98.2002 155.637 98.2002 160.434C98.2002 165.231 102.111 169.131 106.922 169.131ZM106.922 154.02C110.467 154.02 113.355 156.899 113.355 160.434C113.355 163.974 110.467 166.848 106.922 166.848C103.372 166.848 100.49 163.969 100.49 160.434C100.49 156.899 103.372 154.02 106.922 154.02Z" fill="white"/>
<path d="M151.605 137.394C158.042 137.394 163.284 132.167 163.284 125.748C163.284 119.328 158.042 114.107 151.605 114.107C145.167 114.107 139.93 119.328 139.93 125.748C139.93 132.167 145.161 137.394 151.605 137.394ZM151.605 116.39C156.782 116.39 160.995 120.591 160.995 125.753C160.995 130.915 156.782 135.116 151.605 135.116C146.427 135.116 142.214 130.915 142.214 125.753C142.214 120.591 146.427 116.39 151.605 116.39Z" fill="white"/>
<path d="M118.586 103.632C121.473 103.632 123.817 101.289 123.817 98.4155C123.817 95.5416 121.468 93.1995 118.586 93.1995C115.703 93.1995 113.354 95.5416 113.354 98.4155C113.354 101.289 115.703 103.632 118.586 103.632ZM118.586 95.4825C120.207 95.4825 121.527 96.7986 121.527 98.4155C121.527 100.032 120.207 101.349 118.586 101.349C116.964 101.349 115.644 100.032 115.644 98.4155C115.644 96.7986 116.964 95.4825 118.586 95.4825Z" fill="white"/>
<path d="M148.744 57.7452C151.626 57.7452 153.975 55.4031 153.975 52.5291C153.975 49.6551 151.626 47.313 148.744 47.313C145.856 47.313 143.513 49.6551 143.513 52.5291C143.513 55.4031 145.856 57.7452 148.744 57.7452ZM148.744 49.5907C150.366 49.5907 151.686 50.9068 151.686 52.5237C151.686 54.1407 150.366 55.4568 148.744 55.4568C147.122 55.4568 145.803 54.1407 145.803 52.5237C145.803 50.9068 147.122 49.5907 148.744 49.5907Z" fill="white"/>
</g>
<defs>
<clipPath id="clip0_423_2643">
<rect width="349" height="348" fill="white"/>
</clipPath>
</defs>
</svg>
