<svg width="64" height="58" viewBox="0 0 64 58" fill="none" xmlns="http://www.w3.org/2000/svg">
<path d="M26.343 25.5392C26.3158 25.546 26.2896 25.5499 26.2634 25.5499C26.1247 25.5499 25.9976 25.4567 25.9598 25.3161C24.8239 21.0013 25.2934 16.2131 27.248 12.1796C27.3227 12.0244 27.5119 11.9594 27.6671 12.0341C27.8223 12.1098 27.8883 12.297 27.8126 12.4532C25.921 16.3537 25.467 20.9838 26.5661 25.156C26.6097 25.3238 26.5098 25.4955 26.343 25.5392Z" fill="#06324F"/>
<path d="M0.00117493 48.7497H1.84427C1.32238 48.2181 0.99839 47.4925 0.99839 46.6912C0.99839 45.0683 2.31863 43.7471 3.9425 43.7471H40.0081L40.4 43.2863L36.2142 22.792C31.2776 24.055 27.6506 26.905 27.801 29.5213C27.8126 29.7279 27.6787 29.9141 27.4799 29.9694C27.283 30.0247 27.0705 29.9326 26.9745 29.7502C25.7803 27.4667 22.3318 26.3385 18.7698 27.066C16.2505 27.5811 14.0902 28.9363 12.9912 30.6911C12.9097 30.8211 12.768 30.8968 12.6196 30.8968C12.5818 30.8968 12.543 30.8919 12.5052 30.8813C12.3189 30.8308 12.187 30.664 12.1812 30.4709C12.1113 28.0274 12.4392 25.5838 13.1541 23.2062C13.4083 22.3603 13.7158 21.5154 14.066 20.6957C14.3774 19.9662 14.7295 19.2426 15.1127 18.5441C18.6747 12.0409 24.9345 7.30994 32.4271 5.397L32.0508 3.98654C31.8975 3.23572 32.3049 2.49945 32.9849 2.21134L32.7929 1.27233C32.7579 1.10257 32.8675 0.937663 33.0373 0.902741C33.208 0.867819 33.372 0.977435 33.4069 1.14719L33.598 2.08718C34.3343 2.08718 34.9997 2.60324 35.154 3.3531L35.4159 4.63357C35.4285 4.69371 35.4198 4.74318 35.4236 4.79848C47.9616 2.95731 60.0523 9.5789 63.9752 20.6812C64.0431 20.8742 63.9694 21.0886 63.7958 21.1972C63.6231 21.3078 63.3971 21.2826 63.2516 21.1381C61.6481 19.5462 58.7331 18.9021 55.8258 19.4958C52.3831 20.199 49.7242 22.4311 49.3594 24.9242C49.3245 25.1638 49.1033 25.3316 48.8618 25.2947C48.6222 25.2598 48.4563 25.0367 48.4912 24.7971C48.5261 24.5604 48.5844 24.3266 48.6523 24.0948C48.7658 19.8692 46.7539 14.7008 43.4964 10.9874C41.6116 8.83778 38.4929 6.26229 34.2169 5.89658C34.1451 5.91016 34.0743 5.91695 34.0025 5.9315C33.9812 5.93635 33.9598 5.94217 33.9385 5.94605C31.8936 7.02087 30.1174 8.65832 28.7856 10.7216C28.7254 10.8147 28.6245 10.8652 28.5217 10.8652C28.4635 10.8652 28.4043 10.8487 28.352 10.8147C28.2064 10.7207 28.1647 10.5266 28.2588 10.3811C29.2735 8.81062 30.5385 7.47873 31.9761 6.43204C25.0159 8.38961 19.2199 12.8713 15.8809 18.9651C15.5114 19.6393 15.1718 20.3368 14.8721 21.0391C14.5345 21.8297 14.2386 22.6436 13.9932 23.4584C13.4296 25.3306 13.1163 27.2455 13.0581 29.1682C14.3803 27.7354 16.3621 26.6615 18.5932 26.2056C21.9923 25.512 25.3312 26.4016 27.0598 28.3475C27.8466 25.4907 31.8306 22.7658 37.0456 21.7007C37.3589 21.6367 37.6722 21.5823 37.9846 21.5329L38.0903 21.5115C38.0961 21.5106 38.101 21.5125 38.1058 21.5115C40.626 21.1235 43.0774 21.2011 45.0989 21.7405C45.3327 21.8035 45.4724 22.0441 45.4103 22.2779C45.3473 22.5116 45.1096 22.6484 44.8729 22.5893C43.088 22.112 40.9384 22.0266 38.7024 22.3196L42.4847 40.8379L48.4582 33.8254C48.9666 33.2288 49.6786 32.866 50.4643 32.8029C51.2481 32.7389 52.0106 32.9843 52.6072 33.4927C53.2037 34.001 53.5665 34.713 53.6296 35.4987C53.6558 35.8227 53.617 36.1399 53.5413 36.4455L55.5299 38.7833L52.9108 41.8623L57.4681 48.7497H61.4996V52.7385H58.9115V57.1038H54.6084V55.12L52.9671 52.7385H8.56286L6.9225 55.12V57.1038H2.61935V52.7385H0.000198364V48.7497H0.00117493ZM43.9679 10.5751C46.9828 14.012 48.9569 18.6693 49.244 22.7551C50.4226 20.7966 52.7944 19.2203 55.6502 18.6373C58.2199 18.1125 60.7343 18.4578 62.5803 19.5346C58.3741 9.87864 47.527 4.1757 36.1774 5.58034C39.6861 6.43496 42.2955 8.66802 43.9679 10.5751ZM32.66 3.84491L33.0363 5.25731C33.3002 5.1962 33.5611 5.12829 33.8269 5.07397C34.1567 5.00704 34.4856 4.9498 34.8144 4.89451C34.8164 4.85668 34.8125 4.81109 34.8018 4.75967L34.5399 3.4792C34.4478 3.02619 34.0471 2.71383 33.6019 2.71383C33.5388 2.71383 33.4738 2.72062 33.4098 2.73323C32.8928 2.83897 32.5581 3.34534 32.66 3.84491ZM37.0737 22.6145L37.2027 23.246L37.7459 22.4777L37.0737 22.6145ZM37.8885 22.7095L37.2716 23.5836L37.4423 24.4188L38.0593 23.5448L37.8885 22.7095ZM38.1281 23.8823L37.5112 24.7564L37.6645 25.5052L38.2824 24.6312L38.1281 23.8823ZM38.3503 24.9688L37.7333 25.8428L37.8934 26.6286L38.5103 25.7545L38.3503 24.9688ZM38.5792 26.0911L37.9623 26.9652L41.1227 42.4385L41.7649 41.6848L38.5792 26.0911ZM52.7488 35.5695C52.7051 35.0195 52.452 34.5209 52.0348 34.1659C51.6187 33.8108 51.089 33.6401 50.5361 33.6838C49.9861 33.7274 49.4875 33.9816 49.1334 34.3977L40.4165 44.6308H3.9425C2.80753 44.6308 1.88307 45.5543 1.88307 46.6902C1.88307 47.8252 2.80656 48.7487 3.9425 48.7487H40.7376C40.788 48.7487 40.8356 48.7409 40.9714 48.7225L41.0267 48.7157L41.082 48.7235C41.7862 48.8224 42.4788 48.5595 42.9319 48.027L52.2667 37.0683C52.6217 36.6521 52.7924 36.1196 52.7488 35.5695ZM54.7083 38.7833L53.3512 37.1886L43.5158 48.7497H46.23L54.7083 38.7833ZM47.0526 48.7497H55.3088L51.6973 43.2912L47.0526 48.7497ZM52.4888 42.3589L52.1192 42.7935L56.0606 48.7487H56.7183L52.4888 42.3589ZM55.494 54.8445V56.2191H58.0278V52.7385H54.0419L55.494 54.8445ZM3.505 56.2191H6.03878V54.8445L7.48998 52.7385H3.505V56.2191ZM2.62032 51.8538H9.174H52.3588H58.9125H60.6159V49.6334H41.3904C41.3866 49.6334 41.3827 49.6343 41.3788 49.6343C41.372 49.6343 41.3662 49.6334 41.3594 49.6334H40.7386H3.94347H0.886826V51.8538H2.62032Z" fill="#06324F"/>
<path d="M4.75437 55.056C4.3159 55.056 3.95795 54.699 3.95795 54.2605C3.95795 53.822 4.31493 53.4641 4.75437 53.4641C5.19283 53.4641 5.55078 53.8211 5.55078 54.2605C5.55078 54.6999 5.1938 55.056 4.75437 55.056ZM4.75437 53.8405C4.52252 53.8405 4.33433 54.0296 4.33433 54.2605C4.33433 54.4914 4.52349 54.6805 4.75437 54.6805C4.98621 54.6805 5.1744 54.4924 5.1744 54.2605C5.1744 54.0287 4.98621 53.8405 4.75437 53.8405Z" fill="#06324F"/>
<path d="M56.7783 55.056C56.3398 55.056 55.9819 54.699 55.9819 54.2605C55.9819 53.822 56.3389 53.4641 56.7783 53.4641C57.2177 53.4641 57.5747 53.8211 57.5747 54.2605C57.5747 54.6999 57.2168 55.056 56.7783 55.056ZM56.7783 53.8405C56.5465 53.8405 56.3583 54.0296 56.3583 54.2605C56.3583 54.4914 56.5474 54.6805 56.7783 54.6805C57.0092 54.6805 57.1983 54.4924 57.1983 54.2605C57.1983 54.0287 57.0092 53.8405 56.7783 53.8405Z" fill="#06324F"/>
<path d="M51.3763 40.2597C51.7808 40.2597 52.1096 40.5886 52.1096 40.9931C52.1096 41.3976 51.7808 41.7265 51.3763 41.7265C50.9717 41.7265 50.6429 41.3976 50.6429 40.9931C50.6429 40.5886 50.9717 40.2597 51.3763 40.2597ZM51.3763 41.351C51.5732 41.351 51.7342 41.19 51.7342 40.9931C51.7342 40.7962 51.5732 40.6351 51.3763 40.6351C51.1793 40.6351 51.0183 40.7962 51.0183 40.9931C51.0183 41.19 51.1793 41.351 51.3763 41.351Z" fill="#06324F"/>
</svg>
