<svg width="128" height="192" viewBox="0 0 128 192" fill="none" xmlns="http://www.w3.org/2000/svg">
<path d="M126.93 40.8215C125.466 36.9223 122.584 33.8324 118.814 32.122L101.976 24.48C102.207 24.2967 102.394 24.0552 102.466 23.7444C104.456 15.2238 100.447 6.39679 92.7156 2.28291C88.1568 -0.145182 82.9273 -0.659418 77.9839 0.851988C73.5905 2.19124 69.9015 4.98823 67.4264 8.79581L52.0239 1.80444C48.2588 0.0940492 44.0376 -0.0423351 40.1339 1.41988C36.2369 2.88434 33.1448 5.76406 31.4344 9.53363L5.91039 65.7597C2.36663 73.5649 5.83661 82.801 13.6441 86.3493L20.8299 89.6113C20.1659 90.2083 19.6092 90.9416 19.2179 91.8046C17.6931 95.1673 19.1889 99.1448 22.5493 100.674L30.4014 104.24L17.9547 131.662C17.6417 132.344 17.7602 133.149 18.2498 133.717L20.669 136.532L15.6406 138.081C15.113 138.247 14.6792 138.627 14.4512 139.13C14.2231 139.633 14.2231 140.21 14.4467 140.715L16.9061 146.229L11.1355 148.008C10.6078 148.172 10.1741 148.552 9.94602 149.055C9.71797 149.558 9.71797 150.135 9.94155 150.64L12.4009 156.153L6.62808 157.929C6.10043 158.092 5.66892 158.474 5.43863 158.975C5.21058 159.478 5.21058 160.055 5.43193 160.56L7.58053 165.372L3.86686 165.396C3.11786 165.403 2.43594 165.848 2.12516 166.53L0.233671 170.7C0.0525705 171.098 0.0145626 171.543 0.119646 171.97L4.77907 190.538C4.92216 191.108 5.32014 191.58 5.85226 191.826C6.1049 191.94 6.37991 192 6.65044 192C6.95004 192 7.25411 191.926 7.52911 191.788L24.5772 183.07C24.9662 182.871 25.277 182.547 25.4581 182.149L55.6258 115.694L63.4802 119.258C66.8384 120.781 70.8204 119.287 72.3497 115.927C72.7409 115.064 72.9265 114.16 72.9399 113.268L80.4366 116.671C82.5136 117.615 84.6958 118.06 86.8422 118.06C92.7604 118.06 98.4259 114.668 101.028 108.938L126.552 52.7138C128.258 48.9397 128.395 44.7185 126.93 40.8215ZM78.7709 3.43658C83.0234 2.13758 87.5241 2.5758 91.4457 4.66628C98.0995 8.21003 101.547 15.8006 99.8344 23.1296C99.8054 23.257 99.8166 23.3778 99.8233 23.5007L69.9842 9.9562C72.1082 6.86408 75.131 4.54554 78.7709 3.43658ZM74.5318 36.4192C77.3825 37.9396 80.4746 38.7065 83.5958 38.7065C85.6639 38.7065 87.741 38.3711 89.7666 37.6914C89.9164 37.64 90.0438 37.5572 90.1623 37.4656C91.2557 38.0156 92.0986 38.9345 92.5368 40.0971C92.9973 41.3223 92.9571 42.6482 92.4183 43.8265C91.3071 46.2791 88.3983 47.3702 85.9568 46.2523L63.0107 35.8379C60.5602 34.7245 59.4759 31.8269 60.5871 29.3764C61.1237 28.1959 62.0918 27.2927 63.317 26.8321C63.8804 26.6219 64.464 26.5146 65.0475 26.5146C65.2711 26.5146 65.488 26.5548 65.7071 26.5861C67.3459 30.6598 70.3643 34.2013 74.5318 36.4192ZM69.4655 28.0484L86.4062 35.7373C82.7931 36.3611 79.1085 35.7932 75.804 34.0358C73.0942 32.5938 70.9635 30.4943 69.4655 28.0484ZM68.8305 114.328C68.1843 115.752 66.4918 116.385 65.0743 115.739L55.4626 111.377C54.5034 110.948 53.3498 111.363 52.9048 112.338L22.2184 179.938L7.93379 187.247L4.03007 171.683L5.13009 169.251L10.5631 169.211C11.2137 169.206 11.8196 168.873 12.1707 168.325C12.5239 167.775 12.5731 167.087 12.3115 166.492L9.85212 160.978L15.6227 159.203C16.1504 159.038 16.5841 158.658 16.8122 158.157C17.0402 157.654 17.0402 157.077 16.8167 156.572L14.3573 151.058L20.1279 149.278C20.6555 149.115 21.0871 148.735 21.3173 148.232C21.5454 147.729 21.5454 147.152 21.324 146.647L18.8647 141.133L24.6353 139.36C25.2568 139.166 25.7398 138.674 25.9186 138.048C26.0997 137.424 25.9544 136.747 25.5296 136.255L21.9858 132.139L34.7232 104.081C35.1615 103.111 34.7344 101.966 33.7641 101.524L24.1523 97.1617C22.7281 96.5155 22.0976 94.8297 22.7416 93.4055C23.2603 92.2563 24.4542 91.6616 25.6436 91.7957L68.1217 111.08C69.0094 111.884 69.3537 113.177 68.8305 114.328ZM123.031 51.1152L97.5092 107.341C94.8441 113.213 87.893 115.819 82.0307 113.154L70.2726 107.815C69.888 107.527 69.4744 107.265 69.0161 107.06L28.0874 88.4778C27.629 88.2721 27.1595 88.129 26.6878 88.0306L15.2404 82.8346C9.37142 80.1695 6.76223 73.2251 9.42955 67.3561L34.9535 11.13C36.2391 8.29946 38.5599 6.13297 41.4933 5.03295C42.8415 4.52766 44.2388 4.27501 45.634 4.27501C47.2728 4.27501 48.9005 4.62603 50.4298 5.32137L65.6534 12.2323C64.3008 15.6463 63.9967 19.2661 64.6071 22.707C63.715 22.754 62.8274 22.8948 61.9643 23.219C59.7755 24.0418 58.0383 25.6583 57.0746 27.7801C55.0848 32.1712 57.0321 37.3605 61.4188 39.3548L84.3649 49.7715C85.5119 50.2902 86.7326 50.5518 87.9578 50.5518C88.9997 50.5518 90.0416 50.364 91.05 49.9861C93.2388 49.1656 94.976 47.5446 95.9397 45.4228C97.9318 41.0339 95.9822 35.8424 91.591 33.8503L68.6449 23.4336C68.247 23.2525 67.8333 23.1341 67.4175 23.0178C66.7042 19.8698 66.8921 16.5116 68.1173 13.3502L117.218 35.6389C120.048 36.9245 122.215 39.2453 123.315 42.1787C124.417 45.1098 124.314 48.2847 123.031 51.1152Z" fill="#06324F"/>
<path d="M22.243 162.313C21.3956 161.922 20.9865 162.121 20.4879 163.011L20.4476 162.995C20.432 163.028 20.2688 163.388 19.9602 164.068C19.873 164.256 19.7814 164.457 19.6852 164.672C19.674 164.692 19.6673 164.712 19.6584 164.732C18.8177 166.583 17.3085 169.912 15.1264 174.715C14.8179 175.395 15.1197 176.197 15.7994 176.506C15.9805 176.586 16.1683 176.627 16.3561 176.627C16.8703 176.627 17.3577 176.331 17.588 175.833C19.7433 171.084 21.1117 168.072 21.9143 166.138C22.0082 166.038 22.0842 165.919 22.1468 165.79L22.9093 164.108L22.7125 164.021C23.1082 162.709 22.8019 162.57 22.243 162.313Z" fill="#06324F"/>
<path d="M26.7906 152.29C26.1198 151.981 25.3127 152.279 25.0019 152.961L23.457 156.366C23.1462 157.043 23.4503 157.844 24.1277 158.154C24.3088 158.237 24.4966 158.277 24.6867 158.277C25.2009 158.277 25.6906 157.982 25.9186 157.484L27.4636 154.078C27.7721 153.399 27.4725 152.598 26.7906 152.29Z" fill="#06324F"/>
<path d="M35.9104 132.201C35.2352 131.906 34.4281 132.192 34.1195 132.874L27.2802 147.937C26.9717 148.614 27.2735 149.415 27.9532 149.725C28.1343 149.806 28.3221 149.846 28.5121 149.846C29.0264 149.846 29.5138 149.551 29.7441 149.052L36.5834 133.99C36.8919 133.312 36.5901 132.507 35.9104 132.201Z" fill="#06324F"/>
<path d="M41.7818 119.265C41.1133 118.965 40.3039 119.256 39.9931 119.938L36.0357 128.66C35.7272 129.341 36.0268 130.142 36.7065 130.45C36.8876 130.531 37.0776 130.569 37.2654 130.569C37.7797 130.569 38.2715 130.274 38.4974 129.777L42.4547 121.053C42.7588 120.374 42.4592 119.571 41.7818 119.265Z" fill="#06324F"/>
<path d="M92.7984 60.463L46.8615 39.6096C43.3401 38.0132 39.3872 37.8835 35.7428 39.2496C35.043 39.5134 34.6897 40.2915 34.9491 40.9891C35.2129 41.6844 35.9977 42.0488 36.6885 41.7828C39.6622 40.6626 42.8795 40.7677 45.7413 42.0734L91.6805 62.9268C94.5445 64.2281 96.7379 66.5801 97.8558 69.5471C98.9692 72.5162 98.8663 75.7313 97.5651 78.5976L91.2959 92.4082C89.9969 95.2723 87.6448 97.4656 84.6757 98.579C81.7088 99.6924 78.4914 99.5941 75.6251 98.2928C74.9499 97.9865 74.1473 98.2861 73.8365 98.9636C73.5257 99.641 73.8253 100.441 74.5072 100.75C76.4121 101.617 78.4422 102.051 80.4835 102.051C82.2141 102.051 83.9535 101.74 85.6237 101.11C89.2703 99.7439 92.1589 97.0475 93.7598 93.5239L100.029 79.7155C103.34 72.4134 100.098 63.7764 92.7984 60.463Z" fill="#06324F"/>
<path d="M60.3501 91.3574L29.9633 77.5602C23.8014 74.7654 21.0647 67.4767 23.8617 61.3193L27.8057 52.6354C28.1142 51.9579 27.8102 51.1531 27.1327 50.8445C26.4597 50.5494 25.6571 50.8378 25.3418 51.5175L21.4001 60.2014C19.7523 63.8301 19.6226 67.8948 21.0334 71.6487C22.4442 75.4026 25.2189 78.374 28.8476 80.0218L59.2345 93.819C59.4156 93.8995 59.6034 93.9397 59.7912 93.9397C60.3054 93.9397 60.795 93.6446 61.0231 93.146C61.3339 92.4708 61.0298 91.6659 60.3501 91.3574Z" fill="#06324F"/>
</svg>
