<svg width="140" height="192" viewBox="0 0 140 192" fill="none" xmlns="http://www.w3.org/2000/svg">
<path d="M71.1773 23.2582C40.0489 23.2582 14.7219 48.5803 14.7219 79.7086C14.7219 100.516 26.0164 119.398 44.2976 129.305L43.2502 137.946C43.2502 142.983 45.7788 147.434 49.6282 150.113C46.9198 151.683 45.0591 154.657 45.0591 158.105C45.0591 161.651 47.0233 164.7 49.8623 166.228C48.3689 167.81 47.4349 169.927 47.4349 172.268C47.4349 177.133 51.3952 181.096 56.2625 181.096H56.5533C56.5508 181.123 56.5385 181.145 56.5385 181.172C56.5385 187.244 63.3674 192.001 72.0792 192.001C75.4925 192.001 78.7234 191.259 81.4194 189.862C82.3633 189.376 82.7305 188.215 82.2401 187.271C81.7522 186.333 80.5988 185.955 79.65 186.451C77.5281 187.548 74.8394 188.156 72.0792 188.156C65.7382 188.156 60.383 184.957 60.383 181.17C60.383 181.142 60.3682 181.12 60.3658 181.093H86.0871C90.9519 181.093 94.9147 177.133 94.9147 172.266C94.9147 167.948 91.7923 164.36 87.6915 163.601C87.4573 163.497 87.201 163.438 86.9275 163.438H86.0896H56.2649H53.8868C51.1389 163.438 48.9037 161.045 48.9037 158.102C48.9037 155.157 51.1389 152.764 53.8868 152.764H58.0689H84.2782H88.4628C91.2107 152.764 93.4459 155.157 93.4459 158.102C93.4459 159.648 93.4459 159.648 92.3689 161.136C91.7479 161.994 91.9401 163.196 92.8002 163.817C93.6554 164.436 94.858 164.246 95.4815 163.386C97.1549 161.077 97.2904 160.68 97.2904 158.1C97.2904 153.038 93.3301 148.917 88.4628 148.917H84.2782H58.0689C52.0163 148.917 47.0923 143.991 47.0751 138.173L48.2678 128.45L47.2377 126.508C29.5504 117.452 18.5664 99.5178 18.5664 79.7086C18.5664 50.6997 42.1659 27.1003 71.1773 27.1003C100.186 27.1003 123.783 50.6997 123.783 79.7086C123.783 99.5153 112.797 117.451 95.1143 126.516L94.0842 128.46L95.2597 137.946C95.2597 140.893 94.0941 143.668 91.9771 145.753C91.2205 146.497 91.2131 147.715 91.9574 148.469C92.7016 149.223 93.9191 149.233 94.6732 148.489C97.5319 145.672 99.1067 141.928 99.0895 137.712L98.0593 129.303C116.333 119.393 127.628 100.513 127.628 79.7062C127.628 48.5828 102.303 23.2582 71.1773 23.2582ZM56.2649 167.287H86.0896C88.8374 167.287 91.0727 169.522 91.0727 172.27C91.0727 175.018 88.8374 177.253 86.0896 177.253H56.2649C53.5171 177.253 51.2818 175.018 51.2818 172.27C51.2818 169.523 53.5171 167.287 56.2649 167.287Z" fill="#06324F"/>
<path d="M94.5278 109.525C95.2548 109.348 95.7009 108.616 95.5234 107.886C95.346 107.159 94.6017 106.713 93.8871 106.891C90.9248 107.618 87.6028 106.61 85.0052 104.209C85.0028 104.204 84.9978 104.199 84.9929 104.197C87.1789 101.319 88.2213 97.7623 87.8664 94.3466C87.6742 92.5155 87.0532 91.2636 85.9688 90.5194C84.9461 89.8195 83.7336 89.711 82.5556 90.2138C80.8182 90.9556 79.3099 93.0232 78.9674 95.1279C78.4622 98.2232 79.342 101.461 81.348 104.175C79.7856 105.577 77.9323 106.417 76.0051 106.58C73.8364 106.765 71.579 105.915 69.7873 104.325C71.2192 101.984 72.0891 99.5146 72.614 97.4617C73.2376 95.0317 72.9221 93.2302 71.6825 92.1065C70.7904 91.3006 69.6296 91.0369 68.4196 91.3573C66.6821 91.8206 65.0507 93.4496 64.4518 95.3127C63.4661 98.3563 64.1536 101.713 66.3273 104.559C65.5189 105.577 64.5677 106.518 63.4414 107.31C63.2886 107.418 63.1284 107.522 62.9732 107.62C61.7705 104.355 60.2007 101.227 58.1798 98.2823C55.7967 94.8173 53.5147 94.3811 52.0163 94.6399C51.0625 94.7952 50.1458 95.2806 49.2832 96.0742C47.5557 97.6736 46.6512 100.089 46.8114 102.701C46.9888 105.651 48.4355 108.382 50.6781 110.006C53.6231 112.135 57.6377 112.576 61.3516 111.356C64.3976 121.655 64.0526 133.295 63.0471 144.658C62.9806 145.405 63.5326 146.063 64.2793 146.127C64.3188 146.129 64.3582 146.132 64.4001 146.132C65.0926 146.132 65.684 145.6 65.7481 144.895C66.7906 133.12 67.1307 121.034 63.8554 110.25C64.2473 110.028 64.6293 109.786 65.0014 109.525C66.2459 108.653 67.3081 107.632 68.2126 106.538C70.5242 108.493 73.4396 109.508 76.2343 109.279C78.7603 109.064 81.1582 107.985 83.1594 106.188C83.1618 106.191 83.1618 106.191 83.1643 106.193C86.4272 109.217 90.6734 110.459 94.5278 109.525ZM52.2652 107.81C50.6953 106.674 49.6406 104.655 49.5149 102.538C49.404 100.717 49.9757 99.1301 51.1242 98.0655C51.5801 97.6441 52.0409 97.3853 52.455 97.3138C52.5437 97.3015 52.6275 97.2941 52.7113 97.2941C54.0051 97.2941 55.2743 98.8492 55.9421 99.8201C57.8718 102.627 59.3628 105.629 60.4989 108.773C57.6032 109.711 54.4733 109.404 52.2652 107.81ZM67.9341 102.12C66.7462 100.188 66.4135 98.0612 67.0346 96.1463C67.3475 95.1728 68.284 94.1994 69.1219 93.9776C69.2328 93.948 69.3289 93.9332 69.4103 93.9332C69.6271 93.9332 69.7602 94.0195 69.8613 94.1131C70.2852 94.4976 70.3295 95.4488 69.9894 96.787C69.5779 98.3932 68.9346 100.286 67.9341 102.12ZM81.6437 95.5641C81.836 94.391 82.7429 93.0824 83.6227 92.7053C83.7804 92.6363 83.9135 92.6092 84.0244 92.6092C84.1969 92.6092 84.3275 92.6757 84.4384 92.7521C84.8155 93.0109 85.0668 93.6591 85.1728 94.6276C85.4316 97.1314 84.6972 99.8374 83.1865 102.065C81.8532 100.052 81.2889 97.7482 81.6437 95.5641Z" fill="#06324F"/>
<path d="M84.5348 110.258C79.4408 121.358 78.0804 133.204 80.3625 145.196C80.6878 146.909 83.3026 146.184 82.9773 144.476C80.8431 133.266 82.1098 122.013 86.876 111.628C87.598 110.05 85.2618 108.67 84.5348 110.258Z" fill="#06324F"/>
<path d="M94.0081 38.0348C92.495 37.1624 91.1272 39.5036 92.6404 40.3761C105.914 48.0183 113.361 62.4303 112.038 77.6704C111.885 79.4078 114.599 79.398 114.749 77.6704C116.151 61.5111 108.048 46.1182 94.0081 38.0348Z" fill="#06324F"/>
<path d="M113.041 91.8921C114.445 89.3488 114.867 86.5886 114.379 83.7348C114.086 82.0196 111.473 82.7466 111.764 84.4569C112.126 86.5689 111.73 88.6563 110.699 90.5244C109.854 92.0554 112.195 93.4225 113.041 91.8921Z" fill="#06324F"/>
<path d="M31.7781 55.5417C27.6798 61.8236 25.4914 68.8521 25.2375 76.3465C25.1784 78.0913 27.8893 78.0888 27.9484 76.3465C28.1875 69.2908 30.2625 62.8241 34.1193 56.9119C35.0731 55.4456 32.7269 54.0858 31.7781 55.5417Z" fill="#06324F"/>
<path d="M25.4473 83.0997C24.8312 86.4538 25.4128 89.7586 27.271 92.6346C28.2149 94.0935 30.5635 92.7381 29.6122 91.2668C28.1607 89.0217 27.5766 86.4636 28.0621 83.8193C28.3751 82.1139 25.7628 81.3814 25.4473 83.0997Z" fill="#06324F"/>
<path d="M67.3847 9.91055V1.30905C67.3847 -0.435769 64.6738 -0.438234 64.6738 1.30905V9.90994C64.6738 11.6548 67.3847 11.6578 67.3847 9.91055Z" fill="#06324F"/>
<path d="M137.848 34.0691C134.604 36.2255 131.359 38.3819 128.116 40.5382C126.669 41.4994 128.024 43.8505 129.483 42.8795C132.727 40.7231 135.972 38.5667 139.215 36.4103C140.662 35.4492 139.307 33.0981 137.848 34.0691Z" fill="#06324F"/>
<path d="M2.48355 50.234C1.2464 48.9993 -0.670931 50.9142 0.566216 52.1513C2.86061 54.4432 5.155 56.7376 7.44692 59.032C8.68407 60.2667 10.6014 58.3518 9.36426 57.1147C7.06987 54.8228 4.77794 52.5284 2.48355 50.234Z" fill="#06324F"/>
<path d="M31.4034 27.736C32.3793 29.1703 34.7304 27.8148 33.7446 26.3682C31.9998 23.8052 30.2574 21.2397 28.5101 18.6767C27.5342 17.2424 25.1856 18.5954 26.1714 20.0445C27.9162 22.6069 29.661 25.1723 31.4034 27.736Z" fill="#06324F"/>
<path d="M103.947 23.7504C105.6 21.6901 107.252 19.6274 108.905 17.5671C109.987 16.2191 108.08 14.2894 106.988 15.6498C105.334 17.7125 103.683 19.7728 102.029 21.8331C100.947 23.1811 102.855 25.1114 103.947 23.7504Z" fill="#06324F"/>
</svg>
