<svg width="64" height="60" viewBox="0 0 64 60" fill="none" xmlns="http://www.w3.org/2000/svg">
<path d="M63.4582 4.74084L47.8894 0.662989L47.7065 0.804153L47.5236 0.662989L32.0432 4.71897L16.5629 0.662989L16.5261 0.691818C16.3949 0.646089 16.2537 0.625212 16.1076 0.662989L0.539803 4.74183L0 5.44169V58.6337L0.906631 59.3326L16.3363 55.2905L31.7649 59.3326C31.8265 59.3485 31.8882 59.3564 31.9488 59.3564C32.0572 59.3564 32.1586 59.3246 32.254 59.2789L32.3236 59.3326L47.7085 55.3024L63.0934 59.3326L64 58.6337V5.4407L63.4582 4.74084ZM62.5516 57.6962L48.4292 53.9962V40.8739V39.8122C48.4292 39.4125 48.1051 39.0894 47.7065 39.0894C47.3069 39.0894 46.9838 39.4135 46.9838 39.8122V40.8739V53.9972L32.8614 57.6972V38.1132C32.8614 37.7136 32.5383 37.3905 32.1387 37.3905C31.739 37.3905 31.416 37.7136 31.416 38.1132V57.7469L17.1027 53.9962V15.1701C17.1027 14.7704 16.7786 14.4474 16.38 14.4474C15.9814 14.4474 15.6573 14.7704 15.6573 15.1701V53.9733L1.44544 57.6962V5.9974L15.6573 2.27445V9.39031C15.6573 9.78994 15.9804 10.112 16.38 10.112C16.7796 10.112 17.1027 9.78895 17.1027 9.39031V2.29731L31.416 6.0471V27.2774C31.416 27.677 31.74 27.9991 32.1387 27.9991C32.5383 27.9991 32.8614 27.676 32.8614 27.2774V5.9974L46.9838 2.29731V16.8273V17.5917C46.9838 17.9914 47.3069 18.3145 47.7065 18.3145C48.1061 18.3145 48.4292 17.9914 48.4292 17.5917V16.8273V2.2983L62.5516 5.99839V57.6962Z" fill="#06324F"/>
<path d="M56.05 41.9565C57.1118 40.7089 58.1725 39.4603 59.2342 38.2127C59.8336 37.5078 58.8157 36.4809 58.2122 37.1907C57.1664 38.4204 56.1206 39.6492 55.0748 40.8789C54.0171 39.7078 52.9584 38.5368 51.8996 37.3657C51.2743 36.6738 50.2554 37.6987 50.8777 38.3876C51.9623 39.5875 53.0478 40.7874 54.1324 41.9883L51.2276 45.4031C50.6282 46.1069 51.6461 47.1348 52.2495 46.425C53.2019 45.3057 54.1533 44.1863 55.1056 43.0669C56.1932 44.2698 57.2808 45.4737 58.3693 46.6765C58.9946 47.3685 60.0136 46.3435 59.3913 45.6546C58.2779 44.4209 57.1644 43.1892 56.05 41.9565Z" fill="#06324F"/>
<path d="M32.8915 31.2389C32.3427 31.904 31.8029 32.576 31.2631 33.247L31.0673 33.4906C30.8913 33.7093 30.9261 34.0304 31.1448 34.2063C31.2393 34.2819 31.3526 34.3197 31.4649 34.3197C31.6131 34.3197 31.7622 34.2541 31.8626 34.1288L32.0574 33.8862C32.5943 33.2182 33.1321 32.5492 33.6778 31.8881C33.8568 31.6704 33.826 31.3493 33.6092 31.1703C33.3915 30.9924 33.0704 31.0222 32.8915 31.2389Z" fill="#06324F"/>
<path d="M35.1968 30.0987C35.7734 29.4446 36.3519 28.8262 36.9176 28.2606C37.1174 28.0617 37.1174 27.7387 36.9176 27.5398C36.7188 27.34 36.3957 27.34 36.1969 27.5398C35.6163 28.1204 35.0228 28.7546 34.4333 29.4227L34.2047 29.6821C34.0198 29.8949 34.0416 30.216 34.2534 30.4019C34.3508 30.4864 34.4691 30.5271 34.5894 30.5271C34.7315 30.5271 34.8727 30.4675 34.9731 30.3522L35.1968 30.0987Z" fill="#06324F"/>
<path d="M29.7974 35.0593C29.19 35.7999 28.5737 36.5336 27.9385 37.2473C27.7516 37.4581 27.7704 37.7792 27.9812 37.9671C28.0786 38.0536 28.1999 38.0953 28.3202 38.0953C28.4604 38.0953 28.6005 38.0377 28.7019 37.9243C29.3451 37.2006 29.9694 36.458 30.5868 35.7075C30.7657 35.4897 30.7329 35.1677 30.5162 34.9897C30.2995 34.8108 29.9794 34.8416 29.7974 35.0593Z" fill="#06324F"/>
<path d="M26.5785 38.7106C25.8995 39.4065 25.2464 40.0209 24.5843 40.5865C24.5843 40.5865 24.5068 40.6521 24.5058 40.6521C24.291 40.8341 24.2642 41.1561 24.4461 41.3709C24.5465 41.4892 24.6907 41.5508 24.8348 41.5508C24.9521 41.5508 25.0684 41.511 25.1649 41.4305L25.2434 41.3639C25.9323 40.7744 26.6073 40.1392 27.3082 39.4214C27.505 39.2196 27.501 38.8965 27.3002 38.7007C27.0974 38.5068 26.7743 38.5098 26.5785 38.7106Z" fill="#06324F"/>
<path d="M56.9596 35.9023C57.0441 35.956 57.1386 35.9818 57.233 35.9818C57.401 35.9818 57.566 35.8983 57.6635 35.7462C57.8335 35.4788 57.9199 35.1816 57.9199 34.8635C57.9199 34.5523 57.8325 34.2272 57.6684 33.924C57.5332 33.6775 57.2231 33.585 56.9765 33.7202C56.73 33.8554 56.6376 34.1646 56.7727 34.4121C56.8572 34.5662 56.901 34.7223 56.901 34.8635C56.901 34.9857 56.8692 35.0951 56.8036 35.1985C56.6515 35.4351 56.7211 35.7502 56.9596 35.9023Z" fill="#06324F"/>
<path d="M52.4238 34.2124C52.5172 34.3794 52.6902 34.4728 52.8691 34.4728C52.9536 34.4728 53.0391 34.4519 53.1176 34.4072C53.8473 33.9986 54.7062 33.5553 55.5473 33.6238C55.8306 33.6467 56.0741 33.437 56.096 33.1556C56.1189 32.8753 55.9101 32.6297 55.6288 32.6069C54.5352 32.5184 53.5411 33.0005 52.6196 33.5185C52.374 33.6557 52.2866 33.9658 52.4238 34.2124Z" fill="#06324F"/>
<path d="M40.002 24.303C39.2355 24.8398 38.4591 25.4552 37.6916 26.1311C37.4809 26.317 37.461 26.6401 37.6469 26.8509C37.7473 26.9652 37.8875 27.0229 38.0296 27.0229C38.1499 27.0229 38.2692 26.9811 38.3676 26.8956C39.1043 26.2445 39.8518 25.653 40.5875 25.138C40.8181 24.976 40.8738 24.6589 40.7118 24.4282C40.5517 24.1966 40.2336 24.1419 40.002 24.303Z" fill="#06324F"/>
<path d="M50.4073 23.8298C50.4073 24.3576 50.2095 24.9988 49.8337 25.6838C49.6985 25.9303 49.789 26.2405 50.0365 26.3757C50.1141 26.4184 50.1976 26.4383 50.2811 26.4383C50.461 26.4383 50.636 26.3429 50.7284 26.1739C51.1927 25.3279 51.4273 24.5386 51.4273 23.8298C51.4273 23.5445 51.3885 23.2701 51.311 23.0156C51.2295 22.7472 50.9481 22.5931 50.6747 22.6756C50.4053 22.7581 50.2532 23.0424 50.3348 23.3118C50.3835 23.4709 50.4073 23.6449 50.4073 23.8298Z" fill="#06324F"/>
<path d="M46.6288 36.9263C46.3792 37.0406 46.1924 37.0873 46.0094 37.0555C45.5064 36.977 45.3483 36.3258 45.3036 36.0495C45.2599 35.7711 45.0024 35.5792 44.7191 35.627C44.4417 35.6717 44.2518 35.9332 44.2976 36.2115C44.4636 37.2454 45.0451 37.9373 45.8524 38.0635C45.9398 38.0765 46.0263 38.0834 46.1108 38.0834C46.4031 38.0834 46.7103 38.0089 47.0483 37.8548C47.3048 37.7385 47.4181 37.4363 47.3018 37.1798C47.1885 36.9233 46.8833 36.8129 46.6288 36.9263Z" fill="#06324F"/>
<path d="M51.5545 34.7134C51.4134 34.4678 51.0992 34.3843 50.8586 34.5255L48.3525 35.961C48.1079 36.1012 48.0224 36.4123 48.1636 36.6569C48.257 36.8219 48.429 36.9133 48.606 36.9133C48.6925 36.9133 48.779 36.8925 48.8585 36.8457L51.3666 35.4092C51.6102 35.2701 51.6947 34.9579 51.5545 34.7134Z" fill="#06324F"/>
<path d="M49.5056 27.8997C49.6826 27.681 49.6508 27.3599 49.4331 27.1819C49.2163 27.004 48.8952 27.0358 48.7153 27.2545L48.3475 27.7048C47.8564 28.3023 47.3623 28.9057 46.8941 29.5241C46.7241 29.7487 46.7678 30.0688 46.9925 30.2378C47.084 30.3074 47.1923 30.3412 47.3007 30.3412C47.4538 30.3412 47.6059 30.2716 47.7073 30.1394C48.1676 29.532 48.6537 28.9385 49.1358 28.351L49.5056 27.8997Z" fill="#06324F"/>
<path d="M47.1209 21.2501C46.8982 21.2859 46.6795 21.3276 46.4608 21.3744C46.1864 21.433 46.0095 21.7034 46.0681 21.9788C46.1198 22.2184 46.3306 22.3824 46.5662 22.3824C46.602 22.3824 46.6377 22.3794 46.6745 22.3715C46.8763 22.3287 47.0811 22.2899 47.2889 22.2551C48.0862 22.1219 48.7632 22.1349 49.2692 22.2989C49.5366 22.3854 49.8239 22.2382 49.9104 21.9698C49.9969 21.7024 49.8497 21.4141 49.5813 21.3276C48.9182 21.1139 48.0832 21.09 47.1209 21.2501Z" fill="#06324F"/>
<path d="M26.16 17.6862C26.1799 17.6862 26.1988 17.6852 26.2187 17.6832C26.498 17.6514 26.6988 17.3989 26.668 17.1185C26.5437 16.0359 26.1829 15.0567 25.6331 14.2684C25.6232 14.2495 25.6103 14.2266 25.5983 14.2088L24.7583 14.7863C25.2484 15.4971 25.5506 16.3202 25.655 17.2348C25.6838 17.4943 25.9055 17.6862 26.16 17.6862Z" fill="#06324F"/>
<path d="M23.8161 24.4054C23.5477 24.9422 23.2723 25.481 22.9969 26.0228L22.8995 26.2137C22.7713 26.4642 22.8707 26.7714 23.1222 26.8996C23.1967 26.9374 23.2753 26.9553 23.3538 26.9553C23.5397 26.9553 23.7187 26.8539 23.8081 26.6769L23.9055 26.4871C24.1819 25.9423 24.4593 25.4015 24.7277 24.8627C24.8579 24.6042 24.9852 24.3408 25.1094 24.0734C25.2267 23.8179 25.1164 23.5147 24.8609 23.3964C24.6054 23.2781 24.3022 23.3894 24.1839 23.6449C24.0656 23.9024 23.9413 24.1559 23.8161 24.4054Z" fill="#06324F"/>
<path d="M22.6646 27.7933C22.4141 27.669 22.1079 27.7704 21.9817 28.0239C21.4767 29.0419 21.084 29.8809 20.745 30.6653C20.6336 30.9237 20.7519 31.224 21.0104 31.3353C21.076 31.3641 21.1446 31.3771 21.2132 31.3771C21.4101 31.3771 21.5969 31.2617 21.6804 31.0689C22.0125 30.3014 22.3982 29.4773 22.8953 28.4762C23.0205 28.2247 22.9181 27.9185 22.6646 27.7933Z" fill="#06324F"/>
<path d="M25.8995 22.1626C26.2683 21.1307 26.5158 20.1545 26.6341 19.2588C26.6699 18.9805 26.4741 18.724 26.1947 18.6872C25.9174 18.6524 25.6589 18.8463 25.6221 19.1266C25.5138 19.9487 25.2841 20.8544 24.9392 21.8177C24.8437 22.0831 24.9819 22.3754 25.2463 22.4698C25.303 22.4897 25.3627 22.4996 25.4183 22.4996C25.6281 22.4996 25.8249 22.3704 25.8995 22.1626Z" fill="#06324F"/>
<path d="M14.0268 12.0864C13.1341 12.3737 12.2444 12.7067 11.3835 13.0775C11.124 13.1889 11.0047 13.4881 11.1151 13.7475C11.1986 13.9404 11.3875 14.0557 11.5843 14.0557C11.6519 14.0557 11.7195 14.0428 11.7851 14.015C12.6172 13.6581 13.4771 13.336 14.34 13.0586L14.4543 13.0209C14.7197 12.9324 14.8092 12.663 14.7227 12.3966C14.6352 12.1301 14.2952 12.0009 14.0268 12.0864Z" fill="#06324F"/>
<path d="M41.5609 23.8905C41.6544 24.0565 41.8273 24.1499 42.0053 24.1499C42.0908 24.1499 42.1763 24.1291 42.2558 24.0843C43.0958 23.6101 43.9518 23.2145 44.7997 22.9093C45.0642 22.8139 45.2014 22.5226 45.1059 22.2571C45.0095 21.9917 44.7212 21.8545 44.4528 21.95C43.5531 22.274 42.6445 22.6936 41.7548 23.1966C41.5092 23.3338 41.4227 23.6459 41.5609 23.8905Z" fill="#06324F"/>
<path d="M10.2076 14.172C10.0794 13.9215 9.77221 13.824 9.52169 13.9493C8.65582 14.3927 7.7979 14.8838 6.97179 15.4106C6.73519 15.5617 6.66561 15.8779 6.81671 16.1145C6.91413 16.2666 7.07916 16.3501 7.24716 16.3501C7.3416 16.3501 7.43604 16.3242 7.52154 16.2696C8.31981 15.7606 9.14791 15.2844 9.98495 14.8569C10.2355 14.7297 10.3359 14.4235 10.2076 14.172Z" fill="#06324F"/>
<path d="M44.8603 34.6239C44.904 34.6348 44.9478 34.6408 44.9905 34.6408C45.2162 34.6408 45.423 34.4897 45.4826 34.262C45.6973 33.4568 46.0592 32.6386 46.591 31.7618C46.7362 31.5213 46.6596 31.2071 46.4191 31.062C46.1795 30.9178 45.8653 30.9934 45.7192 31.234C45.1367 32.1963 44.737 33.1019 44.4975 34.0016C44.4259 34.273 44.5869 34.5513 44.8603 34.6239Z" fill="#06324F"/>
<path d="M19.5572 36.0216C19.593 36.0285 19.6278 36.0325 19.6636 36.0325C19.8982 36.0325 20.1109 35.8685 20.1616 35.6279C20.3425 34.768 20.599 33.8822 20.945 32.9209C21.0394 32.6555 20.9022 32.3632 20.6368 32.2688C20.3724 32.1743 20.0801 32.3125 19.9847 32.577C19.6248 33.583 19.3554 34.5125 19.1645 35.4191C19.1068 35.6925 19.2828 35.9629 19.5572 36.0216Z" fill="#06324F"/>
<path d="M19.9488 40.3252C19.93 40.2069 19.915 40.0886 19.9021 39.9723C19.8544 39.5329 19.8305 39.0816 19.8305 38.6282C19.8296 38.2713 19.8445 37.9164 19.8733 37.5625C19.8962 37.2822 19.6864 37.0357 19.4061 37.0128C19.1317 36.9989 18.8792 37.1987 18.8573 37.48C18.8265 37.8628 18.8096 38.2455 18.8106 38.6302C18.8106 39.1193 18.8364 39.6074 18.8881 40.0836C18.903 40.2158 18.9199 40.35 18.9408 40.4842C18.9806 40.7348 19.1973 40.9147 19.4438 40.9147C19.4707 40.9147 19.4975 40.9127 19.5244 40.9087C19.8027 40.864 19.9916 40.6025 19.9488 40.3252Z" fill="#06324F"/>
<path d="M19.1007 12.1987V12.1977L19.1107 11.6877L19.0311 11.1777C18.1185 11.1777 17.1721 11.2871 16.1363 11.5108C15.8599 11.5704 15.686 11.8418 15.7456 12.1162C15.7963 12.3548 16.008 12.5188 16.2427 12.5188C16.2784 12.5188 16.3152 12.5158 16.351 12.5079C17.3133 12.2991 18.1881 12.1987 19.0958 12.1987H19.1007Z" fill="#06324F"/>
<path d="M22.9542 41.711C22.7823 41.7905 22.6043 41.8561 22.4194 41.9058C22.2067 41.9625 21.985 42.04 21.7653 41.9903C21.3527 41.9903 20.966 41.8849 20.6767 41.6941C20.4421 41.539 20.125 41.6046 19.9709 41.8392C19.8158 42.0738 19.8804 42.3909 20.115 42.545C20.5763 42.8502 21.1469 43.0103 21.7643 43.0103H21.7712C22.0814 43.0103 22.3876 42.9695 22.6838 42.891C22.9234 42.8264 23.1541 42.7409 23.3787 42.6395C23.6342 42.5222 23.7465 42.219 23.6302 41.9635C23.5129 41.706 23.2067 41.5956 22.9542 41.711Z" fill="#06324F"/>
<path d="M3.34446 19.3264C3.46673 19.3264 3.58801 19.2827 3.68643 19.1942C4.38331 18.5649 5.12193 17.9605 5.88442 17.3979C6.11207 17.2308 6.15978 16.9107 5.99277 16.6851C5.82477 16.4584 5.50466 16.4097 5.27999 16.5767C4.49166 17.1603 3.7262 17.7866 3.00447 18.4387C2.79471 18.6276 2.77881 18.9497 2.96769 19.1584C3.0671 19.2698 3.20528 19.3264 3.34446 19.3264Z" fill="#06324F"/>
<path d="M21.0015 12.4124C21.9121 12.6252 22.7601 12.996 23.454 13.4861C23.5424 13.5497 23.6448 13.5795 23.7482 13.5795C23.9073 13.5795 24.0644 13.504 24.1648 13.3638C24.3268 13.1342 24.2721 12.816 24.0425 12.654C23.2422 12.0884 22.271 11.6619 21.2341 11.4203C20.9578 11.3527 20.6854 11.5277 20.6217 11.8011C20.5561 12.0754 20.7261 12.3488 21.0015 12.4124Z" fill="#06324F"/>
<path d="M37.3507 12.3835C37.6519 12.1241 37.9392 11.8507 38.2295 11.5783C38.3955 11.7354 38.5616 11.8924 38.7276 12.0495C39.2038 12.5008 39.9265 11.7811 39.4483 11.3288C39.164 11.0594 38.8797 10.791 38.5964 10.5216C38.3946 10.3297 38.0774 10.3247 37.8756 10.5216C37.472 10.9142 37.0575 11.294 36.631 11.6618C36.1319 12.0923 36.8557 12.811 37.3507 12.3835Z" fill="#06324F"/>
<path d="M55.8473 24.4223C55.6863 24.2254 55.2846 24.2215 55.1266 24.4223C54.6066 25.0794 54.0668 25.7196 53.5082 26.3449C53.0717 26.832 53.7905 27.5557 54.2289 27.0656C54.6613 26.5825 55.0719 26.0805 55.4815 25.5784C55.733 25.8866 55.9835 26.1948 56.235 26.504C56.6495 27.0129 57.3673 26.2872 56.9557 25.7832C56.5869 25.3289 56.2171 24.8756 55.8473 24.4223Z" fill="#06324F"/>
<path d="M51.3978 13.3449C51.8303 12.8618 52.2408 12.3597 52.6504 11.8577C52.9019 12.1659 53.1534 12.4741 53.4049 12.7822C53.8195 13.2912 54.5372 12.5655 54.1257 12.0615C53.7569 11.6082 53.3871 11.1549 53.0172 10.7015C52.8572 10.5047 52.4556 10.5007 52.2965 10.7015C51.7756 11.3587 51.2368 11.9989 50.6771 12.6242C50.2407 13.1113 50.9594 13.835 51.3978 13.3449Z" fill="#06324F"/>
<path d="M40.7567 17.9744C41.1892 17.4913 41.5997 16.9893 42.0093 16.4873C42.2608 16.7954 42.5123 17.1036 42.7638 17.4118C43.1784 17.9208 43.8961 17.1951 43.4846 16.691C43.1158 16.2377 42.7459 15.7844 42.3761 15.3311C42.2161 15.1343 41.8145 15.1303 41.6554 15.3311C41.1345 15.9882 40.5957 16.6284 40.036 17.2537C39.5996 17.7408 40.3183 18.4645 40.7567 17.9744Z" fill="#06324F"/>
<path d="M38.5955 32.8792C38.3937 32.6884 38.0766 32.6824 37.8748 32.8792C37.4712 33.2719 37.0566 33.6516 36.6301 34.0205C36.1331 34.4499 36.8568 35.1687 37.3509 34.7412C37.6521 34.4817 37.9394 34.2084 38.2297 33.936C38.3957 34.093 38.5617 34.2501 38.7277 34.4072C39.2039 34.8585 39.9266 34.1388 39.4484 33.6864L38.5955 32.8792Z" fill="#06324F"/>
<path d="M43.365 42.9695C43.1632 42.7786 42.8461 42.7726 42.6443 42.9695C42.2407 43.3622 41.8261 43.7419 41.3997 44.1107C40.9026 44.5402 41.6263 45.2589 42.1204 44.8315C42.4216 44.572 42.7089 44.2986 42.9992 44.0262C43.1652 44.1833 43.3312 44.3404 43.4972 44.4974C43.9734 44.9488 44.6961 44.229 44.218 43.7767C43.9327 43.5073 43.6484 43.2379 43.365 42.9695Z" fill="#06324F"/>
<path d="M25.836 45.8037C25.6342 45.6128 25.3171 45.6068 25.1153 45.8037C24.7116 46.1963 24.2971 46.5761 23.8706 46.9449C23.3736 47.3744 24.0973 48.0931 24.5914 47.6656C24.8926 47.4062 25.1799 47.1328 25.4701 46.8604C25.6362 47.0175 25.8022 47.1745 25.9682 47.3316C26.4444 47.7829 27.1671 47.0632 26.6889 46.6109C26.4046 46.3415 26.1203 46.0721 25.836 45.8037Z" fill="#06324F"/>
<path d="M37.2902 50.6122C37.1291 50.4154 36.7275 50.4114 36.5694 50.6122C36.0495 51.2693 35.5097 51.9095 34.951 52.5348C34.5146 53.0219 35.2334 53.7456 35.6718 53.2555C36.1042 52.7724 36.5148 52.2704 36.9243 51.7683L37.6779 52.6939C38.0924 53.2028 38.8102 52.4771 38.3986 51.9731C38.0298 51.5188 37.66 51.0655 37.2902 50.6122Z" fill="#06324F"/>
<path d="M12.5237 20.43C12.3219 20.2391 12.0048 20.2331 11.803 20.43C11.3994 20.8226 10.9848 21.2024 10.5584 21.5712C10.0613 22.0007 10.785 22.7194 11.2791 22.2919C11.5803 22.0325 11.8676 21.7591 12.1579 21.4867C12.3239 21.6438 12.4899 21.8008 12.6559 21.9579C13.1321 22.4092 13.8548 21.6895 13.3767 21.2372C13.0914 20.9678 12.807 20.6984 12.5237 20.43Z" fill="#06324F"/>
<path d="M5.93495 28.6752C5.7739 28.4783 5.37228 28.4743 5.21422 28.6752C4.69429 29.3323 4.15449 29.9725 3.5958 30.5978C3.15938 31.0849 3.87813 31.8086 4.31653 31.3185C4.74897 30.8354 5.15954 30.3343 5.56911 29.8313C5.82062 30.1395 6.07114 30.4477 6.32265 30.7568C6.7372 31.2658 7.45495 30.5401 7.04338 30.0361C6.67457 29.5818 6.30476 29.1285 5.93495 28.6752Z" fill="#06324F"/>
<path d="M8.86634 9.2094C9.29878 8.72626 9.70934 8.22423 10.1189 7.72221C10.3704 8.03038 10.6219 8.33856 10.8735 8.64673C11.288 9.15572 12.0057 8.43001 11.5942 7.926C11.2254 7.47268 10.8556 7.01937 10.4857 6.56605C10.3257 6.36922 9.92407 6.36524 9.76501 6.56605C9.2441 7.22316 8.70529 7.86337 8.14561 8.48867C7.70919 8.97678 8.42793 9.70049 8.86634 9.2094Z" fill="#06324F"/>
<path d="M24.2762 35.1319C24.7087 34.6487 25.1193 34.1467 25.5288 33.6447C25.7803 33.9529 26.0319 34.261 26.2834 34.5702C26.6979 35.0792 27.4157 34.3535 27.0041 33.8495C26.6353 33.3962 26.2655 32.9428 25.8957 32.4895C25.7356 32.2927 25.334 32.2887 25.1749 32.4895C24.654 33.1466 24.1152 33.7869 23.5555 34.4121C23.1191 34.8983 23.8378 35.622 24.2762 35.1319Z" fill="#06324F"/>
<path d="M11.849 39.9373C11.689 39.7405 11.2863 39.7365 11.1283 39.9373C10.6084 40.5944 10.0686 41.2347 9.50986 41.8599C9.07345 42.3481 9.79219 43.0718 10.2306 42.5807C10.663 42.0975 11.0736 41.5955 11.4832 41.0935C11.7347 41.4017 11.9852 41.7098 12.2367 42.019C12.6513 42.528 13.369 41.8023 12.9574 41.2983C12.5876 40.845 12.2188 40.3906 11.849 39.9373Z" fill="#06324F"/>
<path d="M27.0043 10.4242C27.3045 10.1647 27.5928 9.89132 27.8831 9.61894C28.0491 9.77601 28.2151 9.93308 28.3811 10.0901C28.8573 10.5415 29.58 9.82174 29.1019 9.36942C28.8176 9.101 28.5332 8.8316 28.2499 8.5622C28.0481 8.37033 27.731 8.36536 27.5292 8.5622C27.1256 8.95487 26.711 9.33462 26.2846 9.70244C25.7855 10.1329 26.5092 10.8516 27.0043 10.4242Z" fill="#06324F"/>
<path d="M60.7553 16.1463C60.4759 16.1463 60.2493 16.3729 60.2493 16.6523V19.8861C60.2493 20.1655 60.4759 20.3921 60.7553 20.3921C61.0346 20.3921 61.2613 20.1655 61.2613 19.8861V16.6523C61.2613 16.3729 61.0346 16.1463 60.7553 16.1463Z" fill="#06324F"/>
<path d="M53.2138 5.85527L60.2492 8.25009V13.6113C60.2492 13.8907 60.4749 14.1173 60.7552 14.1173C61.0345 14.1173 61.2612 13.8907 61.2612 13.6113V7.88823L60.9182 7.40907L53.5409 4.89794C53.2725 4.80748 52.9882 4.94963 52.8987 5.21407C52.8092 5.47751 52.9504 5.76481 53.2138 5.85527Z" fill="#06324F"/>
<path d="M3.34445 51.3907C3.06312 51.3907 2.83447 51.6193 2.83447 51.9006V54.5549C2.83447 54.8363 3.06312 55.0649 3.34445 55.0649C3.62579 55.0649 3.85443 54.8363 3.85443 54.5549V51.9006C3.85443 51.6183 3.62579 51.3907 3.34445 51.3907Z" fill="#06324F"/>
<path d="M3.34445 39.3868C3.06312 39.3868 2.83447 39.6154 2.83447 39.8967V49.0863C2.83447 49.3677 3.06312 49.5963 3.34445 49.5963C3.62579 49.5963 3.85443 49.3677 3.85443 49.0863V39.8958C3.85443 39.6144 3.62579 39.3868 3.34445 39.3868Z" fill="#06324F"/>
</svg>
