<svg width="16" height="16" viewBox="0 0 16 16" fill="none" xmlns="http://www.w3.org/2000/svg">
<g opacity="0.5" clip-path="url(#clip0_311_1539)">
<path d="M15.1953 2.05727L14.6093 1.47126C13.5364 0.398338 11.7969 0.398338 10.7239 1.47123C10.7239 1.47123 10.7239 1.47123 10.7239 1.47126L3.23577 8.95939C2.4771 9.71806 2.4771 10.9481 3.23577 11.7068L3.62643 12.0974C4.3992 12.8213 5.60106 12.8213 6.37383 12.0974L11.9026 6.5687C12.035 6.44079 12.0386 6.22978 11.9108 6.09734C11.7829 5.96494 11.5719 5.96128 11.4394 6.08916C11.4366 6.09184 11.4339 6.09456 11.4312 6.09734L5.90247 11.6261C5.39472 12.1012 4.60555 12.1012 4.09779 11.6261L3.70712 11.2354C3.20877 10.7371 3.20871 9.92922 3.707 9.43087C3.70703 9.43084 3.70709 9.43078 3.70712 9.43075L11.1952 1.94258C12.0192 1.15782 13.314 1.15782 14.1379 1.94258L14.7239 2.52859C15.5362 3.34133 15.5362 4.65857 14.7239 5.4713L6.3738 13.8214C5.24681 14.948 3.42006 14.948 2.29307 13.8214L1.51171 13.0408C0.385128 11.9138 0.385128 10.087 1.51171 8.96005L7.90251 2.56928C8.03492 2.44137 8.03861 2.23037 7.9107 2.09793C7.78279 1.96552 7.57178 1.96183 7.43934 2.08974C7.43656 2.09243 7.43385 2.09515 7.43116 2.09793L1.04039 8.48804C-0.346791 9.87519 -0.346791 12.1242 1.04036 13.5114C1.04036 13.5114 1.04039 13.5114 1.04039 13.5114L1.82175 14.2928C3.2089 15.68 5.45794 15.68 6.84512 14.2929C6.84512 14.2928 6.84515 14.2928 6.84515 14.2928L15.1953 5.94265C16.2682 4.86976 16.2682 3.1302 15.1953 2.05727C15.1953 2.05727 15.1953 2.05727 15.1953 2.05727Z" fill="#CFD8DC"/>
<path d="M4.33314 15.3335C3.3905 15.3356 2.48611 14.9609 1.8211 14.2928L1.0404 13.5121C-0.346779 12.125 -0.34681 9.87594 1.04037 8.48876L1.0404 8.48873L7.43119 2.09793C7.5591 1.96552 7.7701 1.96183 7.90254 2.08974C8.03495 2.21765 8.03863 2.42865 7.91073 2.56109C7.90804 2.56388 7.90532 2.56659 7.90254 2.56928L1.51175 8.95939C0.38517 10.0864 0.38517 11.9131 1.51175 13.0401L2.29311 13.8215C3.42009 14.9481 5.24684 14.9481 6.37383 13.8215L14.724 5.47133C15.5363 4.6586 15.5363 3.34136 14.724 2.52863L14.1379 1.94261C13.314 1.15785 12.0192 1.15785 11.1952 1.94261L3.7071 9.43072C3.20875 9.92901 3.20868 10.7369 3.70697 11.2353C3.707 11.2353 3.70707 11.2354 3.7071 11.2354L4.09776 11.6261C4.60552 12.1012 5.39469 12.1012 5.90244 11.6261L11.4312 6.09731C11.5591 5.9649 11.7701 5.96122 11.9025 6.08913C12.0349 6.21703 12.0386 6.42804 11.9107 6.56048C11.908 6.56326 11.9053 6.56598 11.9025 6.56867L6.37383 12.0974C5.60106 12.8213 4.3992 12.8213 3.62644 12.0974L3.23578 11.7068C2.47711 10.9481 2.47711 9.71806 3.23578 8.95939L10.7239 1.47126C11.7968 0.398338 13.5363 0.398338 14.6093 1.47123C14.6093 1.47123 14.6093 1.47123 14.6093 1.47126L15.1953 2.05727C16.2682 3.1302 16.2682 4.86973 15.1953 5.94265C15.1953 5.94265 15.1953 5.94265 15.1953 5.94269L6.84518 14.2928C6.18017 14.9609 5.27578 15.3356 4.33314 15.3335Z" fill="#06324F"/>
</g>
<defs>
<clipPath id="clip0_311_1539">
<rect width="16" height="16" fill="white"/>
</clipPath>
</defs>
</svg>
