<svg width="32" height="32" viewBox="0 0 32 32" fill="none" xmlns="http://www.w3.org/2000/svg">
<path d="M21.6158 17.9692C20.8316 17.5051 19.4615 16.3701 18.1848 17.585C17.8836 17.8916 17.6841 18.0969 17.5552 18.2288C16.3955 17.6794 14.3335 15.6885 13.7989 14.4321C15.6934 12.71 14.8164 12.0957 12.9532 8.55688C12.6348 8.00757 12.1187 7.64307 11.4888 7.64307C10.7173 7.64307 10.4158 8.02319 9.31375 9.13843C7.93387 10.5344 7.12406 10.9729 7.6431 13.3384C9.12015 20.0718 18.9773 26.8154 21.7688 23.8008C24.0489 21.5361 24.4886 21.3215 24.355 20.2974C24.1868 19.2776 23.4043 19.0276 21.6158 17.9692ZM20.3948 22.5249C20.2354 22.7019 19.2808 22.7603 17.6973 22.103C14.6946 20.8569 11.5799 17.5869 10.3035 15.1458C9.89701 14.3682 8.99808 12.0625 9.4971 11.6128C9.70121 11.4192 11.0735 10.0178 11.4246 9.67822C12.3592 11.4497 12.8142 12.2778 12.9654 12.6152C12.6966 13.0303 11.8369 13.3552 11.8369 14.3733C12.2151 16.3623 14.8028 18.7998 16.3494 19.7068C17.928 20.6326 18.4331 20.0137 19.0081 19.4243C19.5215 18.8984 19.4776 18.9304 19.531 18.925L22.355 20.5847C22.024 20.9309 20.6233 22.2847 20.3948 22.5249Z" fill="#0B8F91"/>
<path d="M16 0C7.15601 0 0 7.15723 0 16C0 24.844 7.15723 32 16 32C24.844 32 32 24.8428 32 16C32 7.15601 24.8428 0 16 0ZM16 30.125C8.19238 30.125 1.875 23.8064 1.875 16C1.875 8.19238 8.1936 1.875 16 1.875C23.8076 1.875 30.125 8.1936 30.125 16C30.125 23.8076 23.8064 30.125 16 30.125Z" fill="#0B8F91"/>
</svg>
