<svg width="16" height="16" viewBox="0 0 16 16" fill="none" xmlns="http://www.w3.org/2000/svg">
<path d="M10.8125 0.5H5.1875C4.93895 0.500281 4.70065 0.599144 4.5249 0.774898C4.34914 0.950652 4.25028 1.18895 4.25 1.4375V15C4.25016 15.1326 4.30289 15.2596 4.39662 15.3534C4.49035 15.4471 4.61744 15.4998 4.75 15.5H11.25C11.3826 15.4998 11.5096 15.4471 11.6034 15.3534C11.6971 15.2596 11.7498 15.1326 11.75 15V1.4375C11.7497 1.18895 11.6509 0.950652 11.4751 0.774898C11.2993 0.599144 11.0611 0.500281 10.8125 0.5ZM4.75 6H11.25V13H4.75V6ZM5.1875 1H10.8125C10.9285 1.00012 11.0397 1.04626 11.1217 1.12828C11.2037 1.2103 11.2499 1.32151 11.25 1.4375V5.5H4.75V1.4375C4.75012 1.32151 4.79626 1.2103 4.87828 1.12828C4.9603 1.04626 5.07151 1.00012 5.1875 1ZM11.25 15H4.75V13.5H11.25L11.2503 15H11.25Z" fill="black"/>
<path d="M5.5 5H6.5C6.5663 5 6.62989 4.97366 6.67678 4.92678C6.72366 4.87989 6.75 4.8163 6.75 4.75C6.75 4.6837 6.72366 4.62011 6.67678 4.57322C6.62989 4.52634 6.5663 4.5 6.5 4.5H5.5C5.4337 4.5 5.37011 4.52634 5.32322 4.57322C5.27634 4.62011 5.25 4.6837 5.25 4.75C5.25 4.8163 5.27634 4.87989 5.32322 4.92678C5.37011 4.97366 5.4337 5 5.5 5Z" fill="black"/>
<path d="M6.5 6.5H5.5C5.4337 6.5 5.37011 6.52634 5.32322 6.57322C5.27634 6.62011 5.25 6.6837 5.25 6.75C5.25 6.8163 5.27634 6.87989 5.32322 6.92678C5.37011 6.97366 5.4337 7 5.5 7H6.5C6.5663 7 6.62989 6.97366 6.67678 6.92678C6.72366 6.87989 6.75 6.8163 6.75 6.75C6.75 6.6837 6.72366 6.62011 6.67678 6.57322C6.62989 6.52634 6.5663 6.5 6.5 6.5Z" fill="black"/>
<path d="M10.5 14H5.5C5.4337 14 5.37011 14.0263 5.32322 14.0732C5.27634 14.1201 5.25 14.1837 5.25 14.25C5.25 14.3163 5.27634 14.3799 5.32322 14.4268C5.37011 14.4737 5.4337 14.5 5.5 14.5H10.5C10.5663 14.5 10.6299 14.4737 10.6768 14.4268C10.7237 14.3799 10.75 14.3163 10.75 14.25C10.75 14.1837 10.7237 14.1201 10.6768 14.0732C10.6299 14.0263 10.5663 14 10.5 14Z" fill="black"/>
</svg>
