<svg width="16" height="16" viewBox="0 0 16 16" fill="none" xmlns="http://www.w3.org/2000/svg">
<path d="M14.5778 5.51104C14.3289 5.51104 14.0835 5.58214 13.8667 5.71014V5.51104C13.8667 4.33061 13.2693 3.73328 12.0889 3.73328H3.9111C2.73067 3.73328 2.13333 4.33061 2.13333 5.51104V5.71014C1.91643 5.58214 1.6711 5.51458 1.42223 5.51104C0.636433 5.51104 0 6.14751 0 6.93328V9.77771C0 10.5635 0.636433 11.1999 1.42223 11.1999H2.13333V11.911C2.13333 12.1066 2.29333 12.2666 2.4889 12.2666C2.68447 12.2666 2.84447 12.1066 2.84447 11.911V11.1999H13.1556V11.911C13.1556 12.1066 13.3156 12.2666 13.5111 12.2666C13.7067 12.2666 13.8667 12.1066 13.8667 11.911V11.1999H14.5742C15.36 11.1999 16 10.5635 16 9.77771V6.93328C16 6.14751 15.3636 5.51104 14.5778 5.51104ZM2.84443 5.51104C2.84443 4.72528 3.12177 4.44438 3.9111 4.44438H12.0889C12.8746 4.44438 13.1555 4.72528 13.1555 5.51104V7.99994H2.84443V5.51104ZM15.2889 9.77771C15.2889 10.1724 14.9653 10.4888 14.5742 10.4888H1.42223C1.03113 10.4888 0.711133 10.1688 0.711133 9.77771V6.93328C0.711133 6.54218 1.03113 6.22218 1.42223 6.22218C1.81333 6.22218 2.13333 6.54218 2.13333 6.93328V8.71104H13.8667V6.93328C13.8667 6.54218 14.1867 6.22218 14.5778 6.22218C14.9689 6.22218 15.2889 6.54218 15.2889 6.93328V9.77771H15.2889Z" fill="black"/>
</svg>
