<svg width="32" height="64" viewBox="0 0 32 64" fill="none" xmlns="http://www.w3.org/2000/svg">
<path d="M26.1274 24.0964H15.8539C11.3341 24.0248 7.65707 20.2907 7.65707 15.773C7.65707 11.1806 11.3933 7.44333 15.9857 7.44333C20.5781 7.44333 24.3153 11.1806 24.3153 15.773C24.3153 17.8248 25.9842 19.4946 28.037 19.4946C30.0898 19.4946 31.7586 17.8248 31.7586 15.773C31.7586 7.07594 24.6827 0 15.9857 0C7.28863 0 0.213731 7.07594 0.213731 15.773L0.209579 16.0573C0.205428 16.2659 0.202315 16.4735 0.213731 16.6489V52.2279C0.213731 58.7195 5.50564 64 12.0118 64H20.0228C26.5145 64 31.7939 58.7195 31.7939 52.2279V29.7567C31.7939 26.6349 29.2523 24.0964 26.1274 24.0964ZM30.7654 52.2279C30.7654 58.1518 25.9458 62.9705 20.0228 62.9705H12.0118C6.07333 62.9705 1.24326 58.1518 1.24326 52.2279L1.24222 16.6178C1.23184 16.4382 1.236 16.2576 1.23911 16.0771L1.24326 15.773C1.24326 7.64363 7.85633 1.02953 15.9857 1.02953C24.115 1.02953 30.7291 7.64363 30.7312 15.773C30.7312 17.2571 29.5242 18.4651 28.0391 18.4651C26.5539 18.4651 25.3469 17.2571 25.3469 15.773C25.3469 10.6118 21.1478 6.4138 15.9867 6.4138C10.8256 6.4138 6.62754 10.6118 6.62754 15.773C6.62754 20.8501 10.7602 25.045 15.8466 25.1259H26.1284C28.6856 25.1259 30.7654 27.2026 30.7654 29.7557V52.2279Z" fill="#06324F"/>
<path d="M16.3633 34.7072C10.2578 34.7072 5.29175 39.6286 5.29175 45.6771C5.29175 51.7256 10.2578 56.647 16.3633 56.647C22.4689 56.647 27.4349 51.7256 27.4349 45.6771C27.4349 39.6286 22.4689 34.7072 16.3633 34.7072ZM16.3633 55.8219C10.7123 55.8219 6.11475 51.2699 6.11475 45.676C6.11475 40.0821 10.7123 35.5302 16.3633 35.5302C22.0154 35.5302 26.6119 40.0821 26.6119 45.676C26.6119 51.2699 22.0143 55.8219 16.3633 55.8219Z" fill="#06324F"/>
<path d="M16.3634 36.9655C11.5603 36.9655 7.65186 40.874 7.65186 45.6771C7.65186 50.4802 11.5603 54.3886 16.3634 54.3886C21.1675 54.3886 25.076 50.4812 25.076 45.6771C25.076 40.873 21.1675 36.9655 16.3634 36.9655ZM16.3634 54.0939C11.7233 54.0939 7.9466 50.3172 7.9466 45.676C7.9466 41.0349 11.7222 37.2592 16.3634 37.2592C21.0056 37.2592 24.7813 41.0349 24.7813 45.676C24.7813 50.3172 21.0056 54.0939 16.3634 54.0939Z" fill="#06324F"/>
<path d="M20.7089 45.511C20.3353 45.511 19.9887 45.6615 19.7085 45.9417C19.2736 46.3454 18.7973 46.7813 18.6312 46.8664C18.5845 46.8976 18.4351 46.883 18.3655 46.7896C18.324 46.7274 18.2721 46.6173 18.3074 46.3994C18.35 46.2302 18.9415 42.4816 19.0152 41.9627C19.0588 41.6575 18.9737 41.3369 18.7775 41.094C18.5409 40.8574 18.269 40.738 17.9691 40.738C17.5124 40.738 16.98 41.0608 16.8451 41.6887C16.8399 41.7281 16.8326 41.7779 16.8243 41.8361V40.8065C16.8243 40.519 16.7237 40.2523 16.5472 40.0759C16.3334 39.8631 16.0688 39.7594 15.7388 39.7594C15.2115 39.7594 14.6584 40.105 14.6127 40.8844V41.5216C14.51 41.0546 14.0928 40.7391 13.5676 40.7391C13.5666 40.7391 13.5655 40.7391 13.5645 40.7391C13.1878 40.6872 12.8256 40.8397 12.6595 41.094C12.5775 41.175 12.3212 41.4832 12.4229 42.0426C12.4644 42.3103 12.5288 42.7006 12.6045 43.1271C12.4146 42.9538 12.1531 42.8511 11.8635 42.8511C11.5252 42.8511 11.2066 43.0088 10.9689 43.2952C10.7426 43.5661 10.6887 43.9698 10.8215 44.3673L10.9481 44.8261C11.2356 45.8701 11.5926 47.1705 12.0368 48.6401L12.0752 48.7511C12.6045 50.585 13.9049 51.5958 15.7377 51.5958C16.9676 51.5958 17.9379 50.9804 18.5316 50.4677C18.9083 50.1657 21.1199 48.1938 21.6399 47.6334C21.9917 47.238 22.0778 46.6993 21.8589 46.2593C21.6451 45.7912 21.2154 45.511 20.7089 45.511ZM21.4209 47.4341C20.9082 47.9863 18.7194 49.9384 18.3406 50.2415C17.7823 50.7251 16.8773 51.3011 15.7367 51.3011C14.0471 51.3011 12.8463 50.367 12.3544 48.6629L12.316 48.5498C11.8739 47.0885 11.5169 45.7902 11.2304 44.7472L11.1017 44.2801C10.9979 43.9719 11.0332 43.6741 11.192 43.4821C11.3747 43.2641 11.6134 43.1437 11.8625 43.1437C12.2444 43.1437 12.5557 43.3835 12.618 43.7477C12.6419 43.8162 12.6616 43.8816 12.6813 43.946C12.727 44.0985 12.7737 44.2563 12.8619 44.4317C12.8941 44.4981 12.9719 44.5292 13.0435 44.5043C13.1141 44.4794 13.1546 44.4057 13.138 44.3331C12.9574 43.5215 12.7913 42.5189 12.7083 41.9907C12.6294 41.5579 12.8235 41.3389 12.8816 41.2767C13.002 41.095 13.2521 40.9975 13.5417 41.0286C13.9838 41.0286 14.3024 41.2891 14.3356 41.6856C14.3771 41.973 14.4965 42.7203 14.6106 43.372C14.6231 43.4478 14.6729 43.5028 14.7684 43.4935C14.8442 43.4872 14.9023 43.4239 14.9023 43.3471V40.8906C14.9386 40.271 15.3734 40.051 15.7346 40.051C15.9868 40.051 16.1778 40.1247 16.3345 40.2814C16.4569 40.4028 16.5265 40.5927 16.5265 40.8034V43.7384C16.5265 43.8152 16.5856 43.8795 16.6624 43.8847C16.6655 43.8847 16.6697 43.8847 16.6739 43.8847C16.7465 43.8847 16.8077 43.8318 16.8191 43.7602L16.8586 43.5132C16.9717 42.8064 17.0983 42.0031 17.1315 41.7343C17.2312 41.2715 17.6266 41.0286 17.966 41.0286C18.1849 41.0286 18.3873 41.12 18.5554 41.287C18.6914 41.4552 18.7526 41.6908 18.7194 41.917C18.6354 42.5096 18.0552 46.1711 18.0158 46.3361C17.9743 46.5862 18.0085 46.7876 18.1227 46.9567C18.2773 47.1653 18.5949 47.2369 18.7755 47.1176C18.9436 47.0335 19.3027 46.7139 19.9098 46.1503C20.1402 45.9199 20.408 45.8026 20.7058 45.8026C21.094 45.8026 21.425 46.0196 21.5901 46.3818C21.5911 46.3838 21.5911 46.3859 21.5921 46.3869C21.7603 46.7242 21.6949 47.1269 21.4209 47.4341Z" fill="#06324F"/>
</svg>
