<svg width="64" height="56" viewBox="0 0 64 56" fill="none" xmlns="http://www.w3.org/2000/svg">
<path d="M27.6489 3.15518C13.7882 3.15518 2.51221 14.4312 2.51221 28.2928C2.51221 42.1535 13.7882 53.4295 27.6489 53.4295C41.5106 53.4295 52.7866 42.1535 52.7866 28.2928C52.7856 14.4312 41.5096 3.15518 27.6489 3.15518ZM27.6489 52.9065C14.0763 52.9065 3.03412 41.8643 3.03412 28.2917C3.03412 14.7191 14.0763 3.67595 27.6489 3.67595C41.2215 3.67595 52.2646 14.7191 52.2646 28.2917C52.2646 41.8643 41.2215 52.9065 27.6489 52.9065Z" fill="#06324F"/>
<path d="M27.6895 0.3116C27.6526 0.3116 27.614 0.3116 27.5772 0.3116C12.3099 0.373273 -0.0605295 12.845 0.000222815 28.1122C0.0296785 35.5083 2.93842 42.4497 8.18889 47.6579C13.4127 52.8393 20.3311 55.6882 27.6849 55.6882C27.7235 55.6882 27.7622 55.6882 27.8008 55.6882C43.0681 55.6275 55.4385 43.1567 55.3778 27.8885C55.3152 12.659 42.9061 0.3116 27.6895 0.3116ZM27.7972 54.7751C27.7594 54.7751 27.7226 54.7751 27.6849 54.7751C20.575 54.7751 13.884 52.0201 8.83324 47.0089C3.7549 41.9729 0.942804 35.2598 0.913348 28.1085C0.854437 13.3448 12.8171 1.28456 27.5808 1.22473C27.6177 1.22473 27.6526 1.22473 27.6895 1.22473C42.4026 1.22473 54.4039 13.1653 54.4646 27.8922C54.5236 42.6559 42.5609 54.7153 27.7972 54.7751Z" fill="#06324F"/>
<path d="M32.57 41.312L33.0136 40.5949C33.0532 40.5314 33.3975 39.9533 33.3975 39.2169C33.3975 38.4805 33.0532 37.9025 33.0136 37.8389L32.57 37.1219L32.1263 37.8389C32.0867 37.9025 31.7424 38.4805 31.7424 39.2169C31.7424 39.9533 32.0867 40.5314 32.1263 40.5949L32.57 41.312ZM32.57 38.1133C32.57 38.1133 32.8756 38.6076 32.8756 39.2169C32.8756 39.8263 32.57 40.3206 32.57 40.3206C32.57 40.3206 32.2643 39.8263 32.2643 39.2169C32.2643 38.6076 32.57 38.1133 32.57 38.1133Z" fill="#06324F"/>
<path d="M34.5225 42.7204C34.0015 42.1994 33.3498 42.0346 33.277 42.0171L32.6723 41.8744L32.6842 41.8238L32.5701 41.8505L32.456 41.8238L32.4679 41.8744L31.8632 42.0171C31.7904 42.0346 31.1378 42.1994 30.6177 42.7204C30.0967 43.2414 29.932 43.8931 29.9145 43.9658L29.7212 44.7869L30.5423 44.5936C30.615 44.5761 31.2676 44.4113 31.7877 43.8903C32.3087 43.3693 32.4735 42.7176 32.4909 42.6449L32.5701 42.308L32.6493 42.6449C32.6668 42.7176 32.8315 43.3702 33.3525 43.8903C33.8735 44.4104 34.5252 44.5761 34.5979 44.5936L35.419 44.7869L35.2257 43.9658C35.2082 43.894 35.0435 43.2414 34.5225 42.7204ZM31.4186 43.5221C30.9878 43.9529 30.4226 44.0864 30.4226 44.0864C30.4226 44.0864 30.5561 43.5212 30.9869 43.0904C31.4177 42.6596 31.9828 42.5262 31.9828 42.5262C31.9828 42.5262 31.8494 43.0913 31.4186 43.5221ZM33.7216 43.5221C33.2908 43.0913 33.1574 42.5262 33.1574 42.5262C33.1574 42.5262 33.7226 42.6596 34.1533 43.0904C34.5841 43.5212 34.7176 44.0864 34.7176 44.0864C34.7176 44.0864 34.1524 43.9529 33.7216 43.5221Z" fill="#06324F"/>
<path d="M31.3025 41.7401C31.5096 41.7401 31.6421 41.719 31.6421 41.719L32.466 41.5864L31.991 40.9034C31.9477 40.8426 31.5519 40.2986 30.8744 40.0087C30.4685 39.8356 30.0644 39.7988 29.7966 39.7988C29.5894 39.7988 29.4569 39.82 29.4569 39.82L28.6331 39.9525L29.108 40.6355C29.1513 40.6963 29.5471 41.2403 30.2246 41.5303C30.6296 41.7033 31.0346 41.7401 31.3025 41.7401ZM29.5351 40.3355C29.5351 40.3355 29.6373 40.3198 29.7966 40.3198C30.0166 40.3198 30.3452 40.3493 30.6701 40.4873C31.2307 40.7267 31.5648 41.2016 31.5648 41.2016C31.5648 41.2016 31.4626 41.2173 31.3034 41.2173C31.0834 41.2173 30.7548 41.1878 30.4299 41.0498C29.8693 40.8114 29.5351 40.3355 29.5351 40.3355Z" fill="#06324F"/>
<path d="M35.3435 39.7988C35.0756 39.7988 34.6715 39.8356 34.2656 40.0087C33.5881 40.2977 33.1923 40.8417 33.149 40.9034L32.6694 41.5855L33.4979 41.719C33.4979 41.719 33.6304 41.7401 33.8375 41.7401C34.1054 41.7401 34.5095 41.7033 34.9154 41.5303C35.5929 41.2412 35.9887 40.6972 36.032 40.6355L36.5116 39.9535L35.6831 39.82C35.6831 39.8202 35.5506 39.7988 35.3435 39.7988ZM34.7102 41.0507C34.3861 41.1897 34.0566 41.2182 33.8375 41.2182C33.6774 41.2182 33.5761 41.2026 33.5761 41.2026C33.5761 41.2026 33.9103 40.7276 34.4708 40.4883C34.7948 40.3493 35.1244 40.3207 35.3435 40.3207C35.5036 40.3207 35.6049 40.3364 35.6049 40.3364C35.6049 40.3364 35.2707 40.8114 34.7102 41.0507Z" fill="#06324F"/>
<path d="M14.5009 31.8174C14.581 31.5081 14.3435 31.2347 14.071 31.1003C14.0195 31.0764 13.967 31.0534 13.9136 31.0304C13.782 30.9751 13.6596 30.9236 13.5905 30.8371C13.5058 30.7312 13.5224 30.5462 13.6227 30.456C13.724 30.3658 14.1962 30.5996 14.3297 30.4845C14.4779 30.3566 14.2072 29.6542 14.4705 29.5622C14.7338 29.4701 14.8065 30.0657 15.0633 29.9957C15.3201 29.9258 15.1388 29.3726 15.3201 29.3514C15.5024 29.3293 15.4315 29.5898 15.4711 29.6524C15.5917 29.8485 15.877 29.958 16.0952 29.8908C16.2517 29.8429 16.2655 29.5539 16.2655 29.5539C16.2977 27.9762 16.2185 26.3893 16.0298 24.8355C16.0178 24.7342 16.0004 24.5805 15.9019 24.4544C15.7527 24.2602 15.4959 24.204 15.1388 24.2878C14.3785 24.4664 13.6237 24.8318 12.7621 25.4384C11.9659 25.9971 11.3648 26.566 10.9275 27.1754C9.85978 28.6629 9.62137 30.5453 9.4115 32.2067C9.31393 32.9809 9.50355 33.4936 9.94723 33.651C10.0384 33.6832 10.1286 33.6961 10.2188 33.6961C10.3826 33.6961 10.5437 33.6538 10.6983 33.6068C11.8582 33.2607 12.9931 32.8051 14.0719 32.2528C14.198 32.1872 14.4346 32.0657 14.5009 31.8174ZM10.5842 33.231C10.4065 33.2844 10.2197 33.3323 10.077 33.2816C9.72355 33.1565 9.76405 32.5222 9.79811 32.2544C10.0025 30.6398 10.2344 28.8099 11.2442 27.4025C11.6557 26.8299 12.2254 26.2915 12.9858 25.7576C13.8059 25.1813 14.5175 24.8352 15.2271 24.6677C15.3054 24.6493 15.3735 24.641 15.4306 24.641C15.5097 24.641 15.565 24.6585 15.5926 24.6926C15.6211 24.7303 15.6312 24.7993 15.6414 24.8803C15.8255 26.4019 15.9037 27.9557 15.8743 29.5003C15.8457 29.4874 15.8181 29.4699 15.8043 29.446C15.773 29.3953 15.7472 29.3392 15.7215 29.2821C15.6423 29.11 15.3118 28.7004 15.1342 28.7602C14.9565 28.82 14.8626 29.4404 14.8626 29.4404C14.8056 29.341 14.7264 29.2287 14.5819 29.1873C14.4604 29.1523 14.3426 29.1772 14.2459 29.2573C14.0876 29.3889 14.0324 29.6301 14.0471 29.8004L14.0535 29.8593C14.06 29.9182 14.0683 29.99 14.0673 30.0498C13.8354 29.9559 13.5546 29.9927 13.3632 30.1621C13.1073 30.3904 13.0704 30.8101 13.284 31.0798C13.4147 31.2437 13.5979 31.3219 13.7608 31.39C13.8078 31.4094 13.8547 31.4296 13.898 31.4508C14.0259 31.5134 14.1447 31.6303 14.1207 31.7177C14.1032 31.7877 13.9955 31.8512 13.8924 31.9037C12.8348 32.4449 11.7228 32.8914 10.5842 33.231Z" fill="#06324F"/>
<path d="M18.1662 30.5994C18.2187 30.5561 18.2693 30.5082 18.3199 30.4613C18.4488 30.3425 18.5694 30.2293 18.6936 30.1934C18.7581 30.1741 18.828 30.1833 18.8888 30.2229C18.9514 30.2625 18.9946 30.3297 19.0075 30.4051C19.0361 30.5865 18.6375 30.8378 18.6108 30.9445C18.5022 31.379 18.9486 31.5346 19.1355 31.6027L19.1889 31.622C19.2515 31.646 19.3168 31.7141 19.3214 31.8135C19.2984 31.8402 19.2367 31.8475 19.1484 31.8558C19.0112 31.8687 18.6292 31.9239 18.6255 32.201C18.6237 32.3409 19.1097 32.8407 19.1097 32.8407C19.0526 32.8527 18.9836 32.8546 18.8989 32.8564C18.8151 32.8582 18.7323 32.861 18.6513 32.8739C18.3825 32.9171 18.1478 33.2016 18.1174 33.4289C18.0962 33.5882 18.3448 33.7097 18.3448 33.7097C19.7605 34.4912 21.2544 35.1576 22.7871 35.6943C22.8607 35.7191 22.9601 35.7541 23.0752 35.7541C23.1194 35.7541 23.1654 35.7486 23.2123 35.7357C23.4553 35.6694 23.6376 35.4328 23.7545 35.0324C24.0187 34.1276 24.1107 33.1399 24.0444 31.9239C23.9837 30.7927 23.8042 29.8731 23.4977 29.1137C22.7456 27.2479 21.1596 26.0926 19.7596 25.0727C19.1042 24.595 18.5298 24.5527 18.1441 24.9531C17.9342 25.1703 17.8514 25.4658 17.7824 25.7502C17.4436 27.1715 17.219 28.6185 17.1122 30.0507C17.0993 30.2155 17.0782 30.522 17.2669 30.7098C17.5145 30.951 17.8947 30.8276 18.1662 30.5994ZM17.5053 30.0811C17.6093 28.67 17.8311 27.2442 18.1662 25.8423C18.2233 25.6011 18.2868 25.3728 18.4285 25.2265C18.7268 24.9172 19.1935 25.1445 19.5313 25.3912C20.8881 26.3798 22.4262 27.5001 23.1359 29.261C23.4259 29.9808 23.5962 30.8589 23.6551 31.947C23.7177 33.1169 23.6302 34.0632 23.3789 34.9238C23.3062 35.1733 23.2068 35.3316 23.1092 35.3592C23.0595 35.3712 22.9914 35.3509 22.9159 35.3251C21.4118 34.7986 19.9455 34.1451 18.5556 33.3792C18.5988 33.3231 18.6596 33.2697 18.712 33.2614C18.7746 33.2513 18.8409 33.2504 18.9063 33.2494C19.1051 33.2448 19.6316 33.0589 19.6555 32.9162C19.6795 32.7736 19.1502 32.2498 19.1502 32.2498C19.1603 32.2489 19.1704 32.248 19.1815 32.247C19.3104 32.2351 19.4862 32.2194 19.615 32.0721C19.7108 31.9617 19.7458 31.8218 19.7099 31.6772C19.6648 31.4968 19.512 31.3284 19.3288 31.2584L19.2708 31.2373C19.1769 31.2023 19.1106 31.1756 19.0674 31.147C19.2984 30.9593 19.4392 30.6325 19.3941 30.3444C19.3638 30.1575 19.2561 29.9928 19.0987 29.8933C18.9458 29.7967 18.759 29.77 18.5859 29.8188C18.3715 29.8805 18.2104 30.0305 18.0539 30.1769C18.007 30.2201 17.9609 30.2625 17.9149 30.303C17.7538 30.4373 17.5909 30.4806 17.5458 30.4346C17.4841 30.372 17.4998 30.1612 17.5053 30.0811Z" fill="#06324F"/>
<path d="M19.8681 38.862C20.5263 38.6641 20.8503 38.2674 20.7601 37.7749C20.7113 37.507 20.5465 37.2879 20.3818 37.0854C19.5598 36.0757 18.6669 35.1331 17.7271 34.2816C17.6166 34.1813 17.4187 33.9852 17.173 34.0248C16.9042 34.0598 16.7458 34.3488 16.7808 34.74C16.7863 34.8008 16.7946 34.8634 16.802 34.9251C16.8213 35.076 16.8416 35.2187 16.8075 35.3199C16.7882 35.377 16.7486 35.4037 16.7173 35.4157C16.6667 35.4341 16.6133 35.4286 16.5608 35.3991C16.4283 35.3245 16.3611 35.0871 16.3602 34.9619C16.3592 34.8367 16.281 34.7603 16.281 34.7603C16.0242 34.5808 15.7701 34.7492 15.5925 34.8661C15.5575 34.8892 15.4912 34.9453 15.4406 34.8579C15.4341 34.833 15.4572 34.7916 15.4921 34.729C15.552 34.6241 15.6284 34.4363 15.5557 34.2669C15.4829 34.0975 14.8404 34.1408 14.8404 34.1408C14.8598 34.104 14.8865 34.0626 14.9187 34.0138C14.9583 33.9539 14.9978 33.8932 15.0282 33.8287C15.1368 33.6032 15.0457 33.2728 14.892 33.1273C14.7843 33.027 14.5615 33.1439 14.5615 33.1439C13.3327 33.7026 12.1452 34.3783 11.0333 35.1506C10.9596 35.2012 10.8372 35.285 10.7838 35.4405C10.7093 35.6522 10.782 35.9054 11.0075 36.2119C11.5064 36.8875 12.1462 37.4905 13.0225 38.1072C13.8353 38.6807 14.5606 39.0571 15.239 39.2596C15.7388 39.4078 16.2359 39.4677 16.7219 39.4677C17.8624 39.4684 18.944 39.1407 19.8681 38.862ZM13.2471 37.7885C12.4067 37.1966 11.7945 36.6222 11.3214 35.9815C11.1244 35.7137 11.1419 35.6005 11.152 35.571C11.1631 35.5397 11.2045 35.5093 11.2542 35.4753C12.3339 34.726 13.4827 34.0697 14.6729 33.5248C14.6858 33.5772 14.6895 33.6325 14.6757 33.6619C14.6527 33.7098 14.6214 33.7549 14.5919 33.7991C14.4962 33.9427 14.2274 34.3688 14.4575 34.5281C14.5772 34.6109 15.1506 34.5401 15.1506 34.5401C15.0945 34.6386 15.0181 34.7748 15.0595 34.9488C15.0917 35.0868 15.1829 35.1927 15.3154 35.2452C15.471 35.3068 15.6624 35.2884 15.806 35.1954L15.8493 35.166C15.8999 35.1329 15.9377 35.1089 15.9662 35.0942C15.992 35.3538 16.1475 35.6161 16.3694 35.7404C16.524 35.8278 16.7017 35.8416 16.8572 35.78C17.0082 35.7229 17.1242 35.5995 17.1766 35.4449C17.2401 35.258 17.2144 35.062 17.1895 34.8733C17.1812 34.8171 17.1739 34.7619 17.1702 34.7067C17.1545 34.5318 17.2015 34.425 17.2236 34.413C17.2355 34.4121 17.3027 34.425 17.4629 34.5714C18.388 35.4099 19.268 36.3387 20.0771 37.3319C20.2152 37.5022 20.3422 37.6688 20.3744 37.8465C20.4398 38.2027 20.0734 38.3923 19.754 38.488C18.4202 38.8903 16.9106 39.3478 15.3504 38.8848C14.7134 38.6951 14.0258 38.3362 13.2471 37.7885Z" fill="#06324F"/>
<path d="M20.2107 28.2669C20.3064 28.1546 20.4141 28.0276 20.4592 27.8573C20.5126 27.6603 20.4546 27.4016 20.2438 27.2866C20.1545 27.2387 20.0468 27.224 19.9262 27.2378C19.4568 27.2958 19.1549 27.7349 19.0739 28.1169C18.991 28.5071 19.3887 29.2316 19.3887 29.2316L20.2107 28.2669ZM19.4559 28.1979C19.5111 27.9392 19.7062 27.6594 19.975 27.6262C19.9888 27.6244 19.9999 27.6235 20.0109 27.6235C20.033 27.6235 20.0487 27.6272 20.056 27.6308C20.0763 27.6428 20.0956 27.699 20.08 27.757C20.0569 27.8426 19.9851 27.9263 19.9106 28.0138L19.431 28.5753C19.4246 28.4473 19.4301 28.3203 19.4559 28.1979Z" fill="#06324F"/>
<path d="M21.5675 30.6565C21.6982 30.6473 21.8768 30.6362 22.036 30.546C22.2128 30.4448 22.3573 30.2211 22.2892 29.9901C22.2606 29.8943 22.1971 29.8078 22.1014 29.7314C21.7304 29.4405 21.2058 29.5317 20.8781 29.7434C20.5402 29.9588 20.3166 30.2929 20.1187 30.5884L21.5675 30.6565ZM21.0898 30.072C21.2168 29.9901 21.3806 29.9376 21.5381 29.9376C21.655 29.9376 21.7691 29.967 21.8593 30.0379C21.9044 30.0738 21.9136 30.0968 21.9155 30.1014C21.9219 30.1226 21.8934 30.1778 21.8437 30.2055C21.7691 30.2478 21.6632 30.2588 21.5408 30.2662L20.8044 30.3196C20.89 30.2248 20.9839 30.1401 21.0898 30.072Z" fill="#06324F"/>
<path d="M21.6657 32.3143C21.269 32.2489 20.5703 32.6889 20.5703 32.6889L21.5792 33.4575C21.6906 33.5422 21.8286 33.6471 22.0035 33.683C22.0385 33.6904 22.0762 33.695 22.114 33.695C22.2889 33.695 22.4776 33.614 22.5604 33.4354C22.6037 33.3434 22.6138 33.2357 22.5908 33.116C22.5181 32.7165 22.137 32.3861 21.6657 32.3143ZM22.206 33.2688C22.195 33.2918 22.1397 33.3093 22.0818 33.3001C21.9934 33.2817 21.9032 33.2127 21.8157 33.1464L21.2275 32.699C21.3555 32.6843 21.4816 32.6825 21.6059 32.7009C21.8664 32.7414 22.1572 32.9209 22.2051 33.1869C22.2152 33.2412 22.2079 33.2651 22.206 33.2688Z" fill="#06324F"/>
<path d="M18.2455 38.0636C18.3403 38.1713 18.4894 38.2513 18.6432 38.2513C18.7085 38.2513 18.7766 38.2366 18.8401 38.2026C18.9303 38.1556 19.0031 38.0755 19.0583 37.966C19.27 37.5416 19.0749 37.0483 18.8033 36.7693C18.5263 36.4831 18.1516 36.3293 17.823 36.194L18.0439 37.6291C18.0817 37.7626 18.1286 37.9282 18.2455 38.0636ZM18.5216 37.0418C18.7057 37.2305 18.8291 37.549 18.7076 37.7911C18.6827 37.8417 18.6616 37.8537 18.657 37.8564C18.6386 37.8638 18.5796 37.8509 18.541 37.8067C18.4811 37.7377 18.4499 37.6282 18.4204 37.5232L18.2206 36.8108C18.332 36.8761 18.4342 36.9516 18.5216 37.0418Z" fill="#06324F"/>
<path d="M15.3025 37.4239C15.2335 37.5454 15.1479 37.6955 15.1341 37.8731C15.1184 38.0775 15.2234 38.3205 15.4526 38.3923C15.4958 38.407 15.5419 38.4134 15.5888 38.4134C15.6477 38.4134 15.7094 38.4024 15.7729 38.3812C16.223 38.2367 16.4384 37.7498 16.4467 37.3595C16.455 36.9563 16.3013 36.5844 16.166 36.2576L15.3025 37.4239ZM15.6514 38.0103C15.6109 38.0241 15.5833 38.025 15.5704 38.0204C15.5492 38.0139 15.5198 37.9615 15.5244 37.9026C15.5317 37.8124 15.587 37.7139 15.6422 37.6181L16.0076 36.9775C16.0389 37.1017 16.0583 37.2269 16.0555 37.3521C16.05 37.6163 15.9101 37.9276 15.6514 38.0103Z" fill="#06324F"/>
<path d="M12.5481 36.0966C12.3778 36.2623 12.3336 36.5145 12.4413 36.6977C12.4938 36.7842 12.5766 36.8523 12.6898 36.902C12.8021 36.9508 12.9172 36.972 13.0304 36.972C13.3581 36.972 13.6747 36.7943 13.8717 36.5808C14.1442 36.2844 14.2749 35.9051 14.3909 35.5701L12.9706 35.8701C12.8399 35.9153 12.6751 35.9723 12.5481 36.0966ZM13.7963 36.0036C13.7373 36.1168 13.6683 36.2236 13.5845 36.3157C13.405 36.5108 13.0939 36.6516 12.8463 36.5421C12.7929 36.52 12.78 36.4998 12.7782 36.497C12.7653 36.4749 12.7819 36.416 12.8224 36.3755C12.8859 36.3138 12.9945 36.277 13.0985 36.2411L13.7963 36.0036Z" fill="#06324F"/>
<path d="M10.6697 30.6298C10.4736 30.6887 10.284 30.8765 10.3006 31.1121C10.3052 31.2124 10.3466 31.31 10.4267 31.4094C10.62 31.6487 10.9118 31.7417 11.1944 31.7417C11.3453 31.7417 11.4935 31.715 11.6224 31.669C11.997 31.5328 12.2916 31.2557 12.5493 31.0108L11.1502 30.6233C11.013 30.604 10.8427 30.5782 10.6697 30.6298ZM11.4889 31.3017C11.2404 31.3938 10.8998 31.3735 10.7314 31.1655C10.6955 31.1204 10.6918 31.0992 10.6909 31.09C10.6899 31.0679 10.7286 31.0219 10.7857 31.0044C10.817 30.9943 10.8529 30.9906 10.8906 30.9906C10.9541 30.9906 11.025 31.0016 11.0931 31.0108L11.8231 31.1213C11.7172 31.1968 11.6067 31.2594 11.4889 31.3017Z" fill="#06324F"/>
<path d="M12.0502 29.2785C12.4129 29.4515 12.8143 29.4653 13.1696 29.4773L12.4626 28.2098C12.3807 28.0966 12.2785 27.9567 12.122 27.872C11.9425 27.7753 11.6765 27.7689 11.5173 27.9484C11.451 28.0229 11.4096 28.1223 11.3949 28.2457C11.3507 28.6489 11.6204 29.0732 12.0502 29.2785ZM11.81 28.208C11.8174 28.1997 11.8339 28.1941 11.8569 28.1941C11.8809 28.1941 11.9103 28.1997 11.937 28.2144C12.0153 28.2567 12.0825 28.3488 12.1478 28.4381L12.5814 29.0346C12.4553 29.0125 12.3338 28.9775 12.2205 28.9232C11.9812 28.81 11.7557 28.555 11.7842 28.289C11.7907 28.2328 11.8054 28.2126 11.81 28.208Z" fill="#06324F"/>
<path d="M14.5273 28.1398L14.8375 26.7223C14.8504 26.5842 14.8669 26.4121 14.8053 26.2436C14.7362 26.0512 14.5484 25.8635 14.3027 25.9003C14.2023 25.9104 14.1048 25.9583 14.0136 26.042C13.662 26.3596 13.6666 26.8916 13.8203 27.2497C13.9759 27.6207 14.2686 27.8968 14.5273 28.1398ZM14.276 26.3322C14.3183 26.2935 14.3404 26.2899 14.3469 26.2889C14.3469 26.2889 14.3478 26.2889 14.3487 26.2889C14.3708 26.2889 14.4168 26.3248 14.4371 26.3782C14.4684 26.4638 14.4564 26.5817 14.4472 26.6848L14.3772 27.4221C14.2972 27.3208 14.229 27.2131 14.1793 27.0981C14.0762 26.8548 14.0753 26.5142 14.276 26.3322Z" fill="#06324F"/>
<path d="M35.3542 31.4066L39.1522 30.7697L44.8804 32.8969L45.0166 32.5296L39.9272 30.6399L42.0158 30.2892L45.3609 31.7758L45.5192 31.4186L42.7154 30.1723L44.1992 29.9228L46.7508 31.0578L46.9091 30.6997L44.8979 29.8059L48.1684 29.2573L48.103 28.8707L35.2898 31.02L35.3542 31.4066Z" fill="#06324F"/>
<path d="M43.8881 17.4605C43.5466 17.3215 43.1913 17.2516 42.8295 17.223C42.1603 16.2399 41.4101 15.3029 40.5467 14.4459C38.702 12.616 36.5315 11.2472 34.1815 10.3313C34.2321 9.72656 34.234 9.11812 34.0131 8.54925C33.6964 7.7337 32.9481 7.12342 32.0101 6.91631C31.2884 6.75338 30.4913 6.81597 29.4935 7.10501C29.3084 7.15747 29.117 7.20994 29.0028 7.15563C28.8961 7.10225 28.8049 6.95129 28.7276 6.81413C28.0557 5.62394 26.5249 4.89583 24.9232 5.00629C23.2001 5.12319 21.7825 6.17255 21.1308 7.81286C21.1041 7.88006 21.0839 7.95094 21.0655 8.02089C21.0388 8.11847 21.0121 8.21051 20.9706 8.24825C20.9191 8.29704 20.8243 8.31269 20.7184 8.32005C20.4874 8.30256 20.2517 8.30809 20.0133 8.3357C19.2033 8.36424 18.558 8.5244 18.0223 8.81436C17.1874 9.2654 16.6674 10.0543 16.6305 10.9223C16.6103 11.388 16.73 11.8391 16.8956 12.2809C12.1993 15.487 9.04387 20.7715 8.753 26.797C7.83251 28.2505 7.29126 29.97 7.29126 31.8174C7.29126 36.1391 10.2166 39.7778 14.1774 40.863C17.5612 44.2652 22.229 46.385 27.3901 46.385H27.4675C28.0105 46.3832 28.5444 46.3436 29.0737 46.2921C30.0642 46.9889 31.2682 47.4022 32.5688 47.4022C35.4582 47.4022 37.8791 45.378 38.5014 42.6745C41.2592 40.6219 43.4315 37.8346 44.722 34.5945C45.0488 34.4739 45.3783 34.3368 45.7116 34.1665C46.9772 33.5203 48.0284 32.6504 48.7483 31.6526C49.5343 30.5664 50.0691 28.9473 49.214 27.6586C48.6332 26.7841 47.5894 26.334 46.5483 25.976C46.3541 25.9097 46.1442 25.8425 45.9269 25.7771C45.8441 25.0932 45.7106 24.4194 45.5348 23.7567C45.9003 22.8288 46.0761 21.877 46.0402 20.9593C45.9886 19.6706 45.3967 18.0736 43.8881 17.4605ZM18.2709 9.27345C18.8278 8.97245 19.5172 8.8445 20.4846 8.84726C20.562 8.85002 20.6457 8.8491 20.7313 8.8445C22.0752 8.96785 23.2102 9.94817 23.4109 11.293L23.9273 11.2157C23.7248 9.8598 22.7214 8.82241 21.4493 8.45421C21.5027 8.3548 21.5423 8.25263 21.5671 8.1615C21.5819 8.10903 21.5957 8.05656 21.6159 8.00594C22.2004 6.53592 23.4182 5.63291 24.9582 5.52798C26.361 5.43501 27.6976 6.05266 28.2729 7.07164C28.3677 7.24101 28.4956 7.41222 28.6669 7.53833C28.0621 7.92861 27.5742 8.45882 27.2926 9.08383C26.9474 9.84783 26.9225 10.6827 27.2217 11.4338L27.7068 11.2415C27.4592 10.6229 27.4822 9.93252 27.7675 9.29922C28.1127 8.5343 28.8095 7.91665 29.6785 7.60552L29.6757 7.59908C30.564 7.34502 31.2709 7.28887 31.8959 7.42787C32.6636 7.59816 33.2721 8.08878 33.5252 8.74141C33.7682 9.36642 33.69 10.077 33.6071 10.8309C33.5712 11.1549 33.5353 11.4799 33.5252 11.7993C33.5151 12.0929 33.5326 12.4675 33.7507 12.7483C34.014 13.0852 34.4346 13.1349 34.8001 13.1782C35.2852 13.2352 36.4395 13.4681 36.6595 14.3969C36.7349 14.7154 36.6825 15.0771 36.6153 15.4214C36.4339 16.3529 36.0731 17.244 35.5714 17.9997C35.0136 18.841 33.632 19.4522 32.4712 19.4099C31.8214 19.3823 30.9451 19.1402 30.3679 18.1985C30.5198 17.9132 30.6929 17.6352 30.877 17.3618C31.1991 17.4363 31.5333 17.4879 31.8849 17.4879C32.0073 17.4879 32.1307 17.4833 32.254 17.4732L32.2144 16.954C31.2267 17.0286 30.2713 16.7506 29.6702 16.2103C29.2799 15.8595 29.0673 15.4269 29.0525 14.9602L28.5315 14.9768C28.5454 15.4407 28.7055 15.8734 28.9992 16.2517C28.6982 16.6861 28.4358 17.1703 28.2398 17.5404C28.2085 17.5984 28.1772 17.6591 28.1449 17.7162C27.7998 17.1482 27.7326 17.0534 27.6387 16.7736C27.7427 16.7313 27.8504 16.7064 27.9507 16.6521L27.7013 16.1937C26.6528 16.7644 25.3503 16.514 24.7999 15.6322L24.358 15.9093C24.5937 16.2867 24.9389 16.5674 25.3375 16.7552C25.3568 17.1197 25.3568 17.5928 25.3485 17.9684C24.8468 17.44 24.1288 16.9789 23.1089 16.5223L23.0997 16.5186C23.1734 16.3069 23.2305 16.0869 23.2443 15.854L22.7233 15.8218C22.6579 16.8997 21.7255 17.7548 20.631 17.7548C20.6117 17.7548 20.5905 17.7539 20.5712 17.7539L20.5564 18.2749C20.5804 18.2758 20.6061 18.2758 20.631 18.2758C20.9467 18.2758 21.2496 18.2132 21.5331 18.1083C21.9547 18.3844 22.3569 18.6781 22.7177 19.0039C22.669 19.7891 22.3541 20.3433 21.7632 20.6369C20.5435 21.2426 18.6418 20.6525 18.2073 20.3396C17.5658 19.8766 16.1418 18.482 16.1013 17.209C16.0893 16.85 15.9144 16.0777 17.3982 15.5309C17.714 15.415 18.0969 15.2419 18.2414 14.8424C18.3611 14.512 18.2552 14.1484 18.1494 13.8695C18.0352 13.5675 17.8962 13.2675 17.7563 12.9674C17.4314 12.2687 17.1239 11.6087 17.1534 10.9478C17.1819 10.2602 17.5998 9.63704 18.2709 9.27345ZM29.3351 25.0168C29.3986 25.2525 29.3618 25.3003 29.3038 25.3408C29.2081 25.4062 29.0249 25.4375 28.8905 25.4614L27.8311 25.6446L26.5571 25.8103C26.4227 25.8287 26.2358 25.8508 26.1272 25.8158C26.0582 25.7937 26.0085 25.7587 26.0011 25.5157C25.9348 23.4133 25.3899 21.5935 24.3811 20.1088C23.7883 19.2352 22.9948 18.4767 22.0762 17.8333C22.4223 17.605 22.7067 17.2957 22.911 16.9358C24.0828 17.4762 24.9214 18.1408 25.3338 18.7879L25.4516 18.9683L25.6486 18.8956C25.9358 18.7897 25.9008 17.5038 25.8971 16.9469C26.0978 16.9911 26.3049 17.0168 26.5157 17.0168C26.7265 17.0168 26.9391 16.9846 27.1508 16.9386C27.2751 17.2451 27.4711 17.6336 27.9121 18.3258L28.0059 18.4602L28.1551 18.4537C28.3511 18.4464 28.4183 18.3193 28.7028 17.7836C28.8795 17.4504 29.1115 17.0196 29.3701 16.6311C29.6499 16.8732 29.9832 17.0638 30.3504 17.2046C29.9012 17.8941 29.5413 18.6194 29.3075 19.3724C28.7755 21.0861 28.7847 22.986 29.3351 25.0168ZM7.94481 31.8162C7.94481 27.0012 11.8394 23.0835 16.6278 23.0835C21.4162 23.0835 25.3108 27.0012 25.3108 31.8162C25.3108 36.6304 21.4162 40.548 16.6278 40.548C11.8394 40.548 7.94481 36.6313 7.94481 31.8162ZM32.5697 46.7484C29.5699 46.7484 27.1296 44.3082 27.1296 41.3083C27.1296 38.3084 29.5699 35.8691 32.5697 35.8691C35.5696 35.8691 38.0089 38.3084 38.0089 41.3083C38.0089 44.3082 35.5696 46.7484 32.5697 46.7484ZM38.6302 41.9296C38.6514 41.7253 38.6615 41.5182 38.6615 41.3083C38.6615 37.9494 35.9286 35.2165 32.5697 35.2165C29.2109 35.2165 26.477 37.9494 26.477 41.3083C26.477 43.0987 27.2585 44.7058 28.492 45.8215C28.1523 45.8445 27.8117 45.861 27.4665 45.8629H27.3911C22.6754 45.8629 18.3859 44.0357 15.1532 41.0727C15.6346 41.15 16.1243 41.2015 16.6269 41.2015C21.7742 41.2015 25.9625 36.9921 25.9625 31.8171C25.9625 26.6422 21.7752 22.4309 16.6278 22.4309C13.6739 22.4309 11.0413 23.8218 9.32922 25.9812C9.84838 20.5126 12.7995 15.7417 17.0954 12.7704C17.1571 12.9085 17.2197 13.0465 17.2832 13.1837C17.4176 13.4709 17.551 13.7599 17.6596 14.0499C17.7278 14.2294 17.8115 14.4899 17.7499 14.6602C17.6845 14.8433 17.4369 14.9464 17.169 15.0569C16.4704 15.345 15.8794 15.8715 15.7045 16.2195C15.5296 16.5665 15.5517 16.977 15.5941 17.3765C15.6383 17.7898 15.9917 18.517 15.9899 18.5179C16.568 19.5093 17.193 20.2475 17.9008 20.7575C18.2948 21.0419 19.3754 21.4175 20.4699 21.4175C21.0001 21.4175 21.534 21.3291 21.9952 21.0999C22.4618 20.8679 23.0031 20.3966 23.1863 19.4725C23.4643 19.767 23.7257 20.0717 23.9484 20.3994C24.9002 21.8013 25.4148 23.5272 25.4783 25.5293C25.4829 25.6849 25.4976 26.1589 25.9652 26.3099C26.0656 26.343 26.1742 26.354 26.2782 26.354C26.4015 26.354 26.5212 26.3384 26.6197 26.3264L28.9771 25.9739C29.1593 25.9426 29.4097 25.9002 29.6002 25.7677C30.0025 25.486 29.8828 25.0451 29.8377 24.8785C29.3075 22.9179 29.2965 21.1671 29.8046 19.5259C29.8893 19.2525 29.997 18.9837 30.1157 18.7186C30.6708 19.4495 31.4725 19.8867 32.4501 19.9281C33.8106 20.0073 35.3468 19.2801 36.0068 18.285C36.5453 17.4732 36.9329 16.5168 37.128 15.519C37.2062 15.1167 37.2651 14.6887 37.1676 14.2726C36.8721 13.0244 35.4573 12.7262 34.8351 12.6526C34.5681 12.6213 34.2929 12.5891 34.164 12.4234C34.049 12.2752 34.0416 12.0183 34.048 11.8112C34.0582 11.5056 34.0922 11.1945 34.1272 10.8834C34.1281 10.8779 34.1281 10.8714 34.129 10.8659C36.3612 11.7569 38.4222 13.0723 40.1794 14.8157C40.9305 15.5604 41.5933 16.3686 42.1944 17.2136C41.6761 17.2394 41.1533 17.3323 40.6443 17.4456C39.5857 17.6794 38.2215 18.0402 37.0672 18.7563C35.7086 19.5995 34.6372 20.9388 34.0526 22.5285C33.5445 23.9055 33.3816 25.4731 33.5703 27.2027C33.5878 27.3583 33.6025 27.5056 33.5574 27.6124C33.5178 27.7062 33.4184 27.802 33.3301 27.8867C32.4611 28.7243 31.6594 29.6871 30.8834 30.6196C30.5345 31.0393 30.1774 31.4637 29.8147 31.8807C28.6926 32.2148 27.5439 32.5508 26.4245 32.7689L26.5148 33.2835C27.265 33.1666 28.0253 33.081 28.7828 32.9871C28.6797 33.092 28.5822 33.2098 28.4772 33.3111L28.8316 33.694C29.1566 33.4059 29.5045 33.1325 29.8377 32.849C31.0988 32.7109 32.3635 32.6005 33.6246 32.5287C34.188 32.4955 34.6924 32.4762 35.1784 32.5719C35.7648 32.687 36.3097 32.9751 36.8657 33.2706C38.5069 34.1368 40.3948 35.0352 42.3895 35.0352C42.6555 35.0352 42.9243 35.0186 43.194 34.9846C43.4849 34.9477 43.7831 34.8805 44.0832 34.7995C42.882 37.6107 40.995 40.0546 38.6302 41.9296ZM46.3798 26.47C47.3344 26.7959 48.2862 27.2018 48.7805 27.9465C49.4892 29.0124 48.9793 30.4438 48.3276 31.3449C47.6547 32.2765 46.6689 33.0902 45.4759 33.7005C44.665 34.1147 43.8752 34.3715 43.1268 34.4663C40.9968 34.7397 38.8981 33.7539 37.0801 32.7929C36.5196 32.4965 35.9396 32.1899 35.2778 32.0592C34.974 32.0003 34.6648 31.9801 34.35 31.9801C34.1005 31.9801 33.8483 31.993 33.5933 32.0068C32.5817 32.0657 31.5664 32.1476 30.552 32.2479C30.575 32.2286 30.598 32.2093 30.622 32.1899C31.733 31.8595 32.8689 31.5281 33.9753 31.3136C34.1419 31.2814 34.3472 31.2418 34.5285 31.1314C34.7495 30.9961 34.8765 30.7945 34.9943 30.6076C35.5171 29.7764 36.1145 29.0695 36.7534 28.4408C36.9365 28.4242 37.1206 28.4113 37.3075 28.3985C39.4614 28.253 41.9026 27.9796 43.6 26.5676C43.8356 26.3715 44.0547 26.1433 44.2645 25.8993C44.6806 25.9757 45.0792 26.0715 45.4547 26.1792C45.4547 26.181 45.4557 26.1838 45.4557 26.1856C45.4649 26.1865 45.475 26.1874 45.4842 26.1884C45.8018 26.2806 46.1064 26.3764 46.3798 26.47ZM31.641 31.3523C32.4712 30.6978 33.3153 30.0572 34.1769 29.4441C34.6187 29.1293 35.0228 28.855 35.4748 28.6884C35.6221 28.6323 35.7767 28.5908 35.935 28.5559C35.4398 29.0934 34.9667 29.6706 34.546 30.3388C34.4567 30.4797 34.373 30.6141 34.2561 30.6859C34.1567 30.7457 34.014 30.7742 33.8768 30.8009C33.1349 30.9454 32.3866 31.1424 31.641 31.3523ZM44.6208 25.4428C44.8095 25.1786 44.9899 24.8997 45.1519 24.5931C45.1648 24.5683 45.1731 24.5434 45.186 24.5186C45.2642 24.8831 45.3277 25.2495 45.3783 25.6195C45.1344 25.5551 44.8813 25.4973 44.6208 25.4428ZM44.6917 24.3492C44.2968 25.0967 43.8172 25.7079 43.2658 26.1663C41.689 27.478 39.3455 27.7375 37.2357 27.8793C36.5886 27.9226 35.9176 27.9677 35.2925 28.1987C34.7807 28.3883 34.3472 28.681 33.8741 29.0189C32.9895 29.6485 32.1205 30.3011 31.2691 30.974C31.2746 30.9666 31.2801 30.9602 31.2857 30.9546C32.0515 30.0342 32.8431 29.0815 33.6918 28.2641C33.8096 28.1518 33.956 28.0109 34.0388 27.8185C34.1355 27.5857 34.1116 27.3537 34.0885 27.1328C33.91 25.4998 34.0637 24.0114 34.5423 22.7098C35.0891 21.2297 36.0832 19.9833 37.3434 19.2018C38.4314 18.5271 39.7394 18.1819 40.7575 17.9555C41.3236 17.8312 41.9044 17.7281 42.4641 17.7281C42.8912 17.7281 43.3063 17.788 43.6929 17.9445C44.9706 18.4636 45.4741 19.8536 45.5192 20.9802C45.5624 22.0839 45.2762 23.2495 44.6917 24.3492Z" fill="#06324F"/>
<path d="M44.5216 20.9665L44.4691 20.578L42.3308 20.8627L44.0226 19.3236L43.7585 19.0344L34.6235 27.3455L34.8859 27.6345L37.3905 25.3563L43.4832 24.1689L43.4078 23.7841L37.9493 24.8484L39.909 23.0661L39.9117 23.0884L44.0015 22.512L43.9481 22.1235L40.3941 22.6245L41.8218 21.3255L44.5216 20.9665Z" fill="#06324F"/>
<path d="M63.8677 6.13832C63.8557 5.61088 63.748 5.36879 63.4866 4.9021L63.4203 4.78244L62.2614 4.80177L62.37 16.2794L61.8389 16.2904L61.7312 4.81097L60.0845 4.83859L60.1931 16.3502C60.0099 16.3511 59.7632 16.3558 59.58 16.3604L59.4714 4.84871L57.8247 4.87633L57.9324 16.3558L57.4279 16.3622L57.3193 4.88461L56.1604 4.90486L56.096 5.02729C56.0472 5.12026 56.0067 5.1893 55.9754 5.24545C55.8272 5.5041 55.7978 5.59155 55.7959 6.00577C55.7766 10.5944 55.8143 14.7808 55.9119 18.8052L55.9174 19.1936C55.9321 20.5246 55.9809 21.6513 56.4274 21.9477C58.5022 23.3202 58.353 25.4281 58.1809 27.8683C58.1505 28.3019 58.1192 28.7382 58.1027 29.1717C57.9379 33.2891 57.8219 37.4773 57.7096 41.5284C57.6709 42.9229 57.6323 44.3175 57.5918 45.712C57.5467 47.2768 57.5614 49.0359 58.3125 50.0963C58.5224 50.3927 58.7811 50.6182 59.0867 50.7701C59.3904 50.922 59.7402 51.002 60.1342 51.0085L60.1968 51.0057L60.2575 51.0048L60.3238 51.0057C61.1108 50.9652 61.7174 50.6375 62.1252 50.0309C62.8561 48.9448 62.8367 47.1857 62.7622 45.6236C62.6959 44.242 62.6315 42.8594 62.567 41.4777C62.3774 37.4211 62.1823 33.2274 61.9402 29.1064C61.9144 28.6737 61.8758 28.2393 61.8371 27.8066C61.6189 25.3729 61.4302 23.2714 63.4783 21.8281C63.9478 21.4967 63.991 20.3424 63.9947 19.0868L63.9956 18.9396C64.015 14.9198 63.9735 10.7325 63.8677 6.13832ZM63.5556 18.934L63.5547 19.0832C63.5529 19.6382 63.5474 21.1128 63.2731 21.3071C60.9571 22.9382 61.1826 25.4493 61.3999 27.8766C61.4385 28.3009 61.4763 28.7271 61.5011 29.1524C61.7441 33.2688 61.9393 37.4607 62.128 41.5146C62.1924 42.8971 62.2568 44.2797 62.324 45.6614C62.3931 47.1047 62.4161 48.7211 61.7994 49.6379C61.4689 50.1276 60.981 50.3835 60.3063 50.4175L60.2225 50.4157L60.1379 50.4203C59.4622 50.4074 58.9707 50.1699 58.631 49.6913C57.9968 48.7956 57.9894 47.1792 58.0309 45.7341C58.0714 44.3395 58.11 42.945 58.1487 41.5495C58.261 37.5012 58.377 33.3158 58.5408 29.203C58.5583 28.7778 58.5878 28.3497 58.6181 27.9235C58.7893 25.4898 58.967 22.9722 56.6216 21.4203C56.3795 21.2601 56.3629 19.7533 56.3574 19.1853L56.351 18.7868C56.2543 14.7697 56.2166 10.5907 56.2359 6.00945C56.2368 5.75632 56.2368 5.75632 56.3243 5.60444C56.3427 5.5713 56.3648 5.53448 56.3887 5.4903L56.8885 5.48201L56.9972 16.9578L58.3797 16.9403L58.2711 5.45808L59.0406 5.44519L59.1493 16.9743L59.3785 16.9578C59.5046 16.9485 60.2769 16.9347 60.4112 16.9403L60.6395 16.9485L60.53 5.42034L61.2995 5.40745L61.4081 16.8887L62.8165 16.8593L62.7079 5.3826L63.2049 5.37431C63.3826 5.70109 63.424 5.83364 63.4323 6.15673C63.5354 10.7435 63.5768 14.9235 63.5556 18.934Z" fill="#06324F"/>
<path d="M58.7817 41.497L59.2199 41.5145L59.2834 38.7558L58.8462 38.7374L58.7817 41.497Z" fill="#06324F"/>
<path d="M58.916 37.6577L59.3532 37.6761L59.5512 29.1699L59.113 29.1515L58.916 37.6577Z" fill="#06324F"/>
</svg>
