<svg width="16" height="16" viewBox="0 0 16 16" fill="none" xmlns="http://www.w3.org/2000/svg">
<g clip-path="url(#clip0_140_61)">
<path d="M13.9395 15.25L13.5472 13.8575C14.5605 13.3065 15.25 12.2323 15.25 11V10.75C15.5258 10.75 15.75 10.5258 15.75 10.25V9.75C15.75 9.47425 15.5258 9.25 15.25 9.25V6.75C15.5258 6.75 15.75 6.52575 15.75 6.25V5.75C15.75 5.47425 15.5258 5.25 15.25 5.25H8.75C8.47425 5.25 8.25 5.47425 8.25 5.75V6.25C8.25 6.52575 8.47425 6.75 8.75 6.75V9.25C8.47425 9.25 8.25 9.47425 8.25 9.75V10.25C8.25 10.5258 8.47425 10.75 8.75 10.75V11C8.75 12.2323 9.4395 13.3065 10.4528 13.8575L10.0605 15.25H6.72475C6.6085 14.6803 6.10375 14.25 5.5 14.25H5.25V11.9993C6.42325 11.5085 7.25 10.3492 7.25 9V7.25H2.75V6.25H3.75V6.75H4.25V6.25C4.25 5.97425 4.02575 5.75 3.75 5.75H2.25H2H1.75C1.47425 5.75 1.25 5.97425 1.25 6.25V7.25H0.75V9C0.75 10.3492 1.57675 11.5085 2.75 11.9993V14.25H2.5C1.8965 14.25 1.3915 14.6803 1.27525 15.25H0V15.75H16V15.25H13.9395ZM8.74975 5.75H15.25V6.25H8.75L8.74975 5.75ZM9.25 7.75H10.25V7.25H9.25V6.75H14.75V9.25H9.25V7.75ZM8.74975 9.75H15.25V10.25H8.75L8.74975 9.75ZM9.25 11V10.75H14.75V11C14.75 12.5163 13.5162 13.75 12 13.75C10.4838 13.75 9.25 12.5163 9.25 11ZM10.9152 14.06C11.2552 14.1808 11.6193 14.25 12 14.25C12.3807 14.25 12.7448 14.1808 13.0848 14.06L13.4198 15.25H10.5802L10.9152 14.06ZM1.75 6.25H2H2.25V7.25H1.75V6.25ZM6.75 7.75V8.25H1.25V7.75H6.75ZM1.25 9V8.75H6.75V9C6.75 10.5163 5.51625 11.75 4 11.75C2.48375 11.75 1.25 10.5163 1.25 9ZM3.25 12.1593C3.49125 12.2165 3.7415 12.25 4 12.25C4.2585 12.25 4.50875 12.2165 4.75 12.1593V14.25H3.25V12.1593ZM2.5 14.75H5.5C5.8255 14.75 6.1005 14.9598 6.204 15.25H1.796C1.8995 14.9598 2.1745 14.75 2.5 14.75Z" fill="black"/>
<path d="M1 5.25H7C7.4135 5.25 7.75 4.9135 7.75 4.5V1C7.75 0.5865 7.4135 0.25 7 0.25H1C0.5865 0.25 0.25 0.5865 0.25 1V4.5C0.25 4.9135 0.5865 5.25 1 5.25ZM0.75 1C0.75 0.86225 0.862 0.75 1 0.75H7C7.138 0.75 7.25 0.86225 7.25 1V4.5C7.25 4.63775 7.138 4.75 7 4.75H1C0.862 4.75 0.75 4.63775 0.75 4.5V1Z" fill="black"/>
<path d="M1.073 1.42712L1.4265 1.07362L4.42612 4.07325L4.07262 4.42675L1.073 1.42712Z" fill="black"/>
<path d="M3.57275 1.42725L3.92625 1.07375L6.92588 4.07337L6.57238 4.42687L3.57275 1.42725Z" fill="black"/>
<path d="M8.75 2.25H9.25V2.75H8.75V2.25Z" fill="black"/>
<path d="M8.75 3.25H9.25V3.75H8.75V3.25Z" fill="black"/>
<path d="M9.25 2.75H9.75V3.25H9.25V2.75Z" fill="black"/>
<path d="M8.25 2.75H8.75V3.25H8.25V2.75Z" fill="black"/>
<path d="M11.25 0.75H11.75V1.25H11.25V0.75Z" fill="black"/>
<path d="M11.25 1.75H11.75V2.25H11.25V1.75Z" fill="black"/>
<path d="M11.75 1.25H12.25V1.75H11.75V1.25Z" fill="black"/>
<path d="M10.75 1.25H11.25V1.75H10.75V1.25Z" fill="black"/>
<path d="M13.75 3.25H14.25V3.75H13.75V3.25Z" fill="black"/>
<path d="M13.75 4.25H14.25V4.75H13.75V4.25Z" fill="black"/>
<path d="M14.25 3.75H14.75V4.25H14.25V3.75Z" fill="black"/>
<path d="M13.25 3.75H13.75V4.25H13.25V3.75Z" fill="black"/>
</g>
<defs>
<clipPath id="clip0_140_61">
<rect width="16" height="16" fill="white"/>
</clipPath>
</defs>
</svg>
