<svg width="16" height="16" viewBox="0 0 16 16" fill="none" xmlns="http://www.w3.org/2000/svg">
<path d="M14.5 9.75V3.25C14.5 3.1837 14.4737 3.12011 14.4268 3.07322C14.3799 3.02634 14.3163 3 14.25 3H1.75C1.6837 3 1.62011 3.02634 1.57322 3.07322C1.52634 3.12011 1.5 3.1837 1.5 3.25V9.75C1.5 9.8163 1.52634 9.87989 1.57322 9.92678C1.62011 9.97366 1.6837 10 1.75 10H14.25C14.3163 10 14.3799 9.97366 14.4268 9.92678C14.4737 9.87989 14.5 9.8163 14.5 9.75ZM14 9.5H2V3.5H14V9.5Z" fill="black"/>
<path d="M0.75 14.25H1.75C1.8163 14.25 1.87989 14.2237 1.92678 14.1768C1.97366 14.1299 2 14.0663 2 14V13.25H14V14C14 14.0663 14.0263 14.1299 14.0732 14.1768C14.1201 14.2237 14.1837 14.25 14.25 14.25H15.25C15.3163 14.25 15.3799 14.2237 15.4268 14.1768C15.4737 14.1299 15.5 14.0663 15.5 14V12C15.5 11.9337 15.4737 11.8701 15.4268 11.8232C15.3799 11.7763 15.3163 11.75 15.25 11.75H14.6692L14.3693 11H15.25C15.3163 11 15.3799 10.9737 15.4268 10.9268C15.4737 10.8799 15.5 10.8163 15.5 10.75V2.25C15.5 2.1837 15.4737 2.12011 15.4268 2.07322C15.3799 2.02634 15.3163 2 15.25 2H0.75C0.683696 2 0.620107 2.02634 0.573223 2.07322C0.526339 2.12011 0.5 2.1837 0.5 2.25V10.75C0.5 10.8163 0.526339 10.8799 0.573223 10.9268C0.620107 10.9737 0.683696 11 0.75 11H1.88075L1.58075 11.75H0.75C0.683696 11.75 0.620107 11.7763 0.573223 11.8232C0.526339 11.8701 0.5 11.9337 0.5 12V14C0.5 14.0663 0.526339 14.1299 0.573223 14.1768C0.620107 14.2237 0.683696 14.25 0.75 14.25ZM14.1307 11.75H13.6692L13.3693 11H13.8308L14.1307 11.75ZM4.91925 11.75L4.61925 11H11.6307L11.3308 11.75H4.91925ZM3.61925 11H4.08075L4.38075 11.75H3.91925L3.61925 11ZM3.38075 11.75H3.11925L3.25 11.4232L3.38075 11.75ZM12.1692 11H12.6307L12.3308 11.75H11.8693L12.1692 11ZM13 11.4232L13.1307 11.75H12.8693L13 11.4232ZM1 2.5H15V10.5H1V2.5ZM2.41925 11H2.88075L2.58075 11.75H2.11925L2.41925 11ZM1 12.25H15V13.75H14.5V13C14.5 12.9337 14.4737 12.8701 14.4268 12.8232C14.3799 12.7763 14.3163 12.75 14.25 12.75H1.75C1.6837 12.75 1.62011 12.7763 1.57322 12.8232C1.52634 12.8701 1.5 12.9337 1.5 13V13.75H1V12.25Z" fill="black"/>
</svg>
